{"glyphs":{"0":{"ha":1196,"x_min":0,"x_max":1263,"o":"m 517 -26 q 335 19 414 -26 q 213 157 257 64 q 168 394 168 250 q 192 634 168 511 q 263 874 217 757 q 374 1094 308 992 q 522 1274 439 1196 q 705 1397 606 1353 q 918 1442 804 1442 q 1098 1396 1021 1442 q 1219 1258 1175 1350 q 1263 1024 1263 1167 q 1238 783 1263 907 q 1169 542 1214 660 q 1058 322 1124 424 q 910 141 993 219 q 728 18 826 63 q 517 -26 629 -26 m 535 49 q 710 90 626 49 q 865 203 793 132 q 996 370 938 275 q 1095 573 1054 465 q 1158 792 1136 681 q 1181 1010 1181 903 q 1146 1218 1181 1140 q 1048 1332 1111 1296 q 900 1368 985 1368 q 724 1327 808 1368 q 568 1214 640 1286 q 438 1047 496 1142 q 338 846 379 953 q 274 627 296 739 q 251 408 251 515 q 287 197 251 276 q 386 83 322 118 q 535 49 450 49 m 0 -712 l 1196 -712 l 1196 -726 l 0 -726 l 0 -712 m 0 28 l 1196 28 l 1196 0 l 0 0 l 0 28 m 0 701 l 1196 701 l 1196 694 l 0 694 l 0 701 m 0 1435 l 1196 1435 l 1196 1421 l 0 1421 l 0 1435 z "},"1":{"ha":706,"x_min":0,"x_max":775,"o":"m 272 -19 q 246 -11 254 -19 q 242 13 238 -3 l 665 1324 q 563 1250 617 1286 q 460 1184 510 1214 q 368 1133 410 1154 q 335 1124 349 1122 q 313 1144 321 1126 q 311 1172 304 1161 q 338 1193 318 1183 q 445 1255 388 1219 q 560 1331 503 1290 q 667 1411 617 1371 q 692 1431 682 1425 q 713 1440 703 1438 q 739 1442 724 1442 q 767 1435 758 1442 q 771 1410 775 1428 l 318 7 q 303 -13 314 -7 q 272 -19 293 -19 m 0 -712 l 706 -712 l 706 -726 l 0 -726 l 0 -712 m 0 28 l 706 28 l 706 0 l 0 0 l 0 28 m 0 701 l 706 701 l 706 694 l 0 694 l 0 701 m 0 1435 l 706 1435 l 706 1421 l 0 1421 l 0 1435 z "},"2":{"ha":1040,"x_min":-12,"x_max":1150,"o":"m 15 0 q -6 10 0 0 q -10 32 -12 19 q 3 53 -7 44 l 331 313 q 547 488 447 406 q 730 642 647 569 q 876 782 813 715 q 983 910 940 849 q 1049 1033 1026 972 q 1071 1153 1071 1093 q 1041 1272 1071 1224 q 956 1344 1011 1319 q 822 1369 900 1369 q 635 1331 718 1369 q 467 1225 551 1292 q 434 1210 447 1210 q 408 1225 421 1210 q 399 1251 396 1239 q 421 1281 401 1264 q 542 1364 476 1328 q 681 1421 607 1400 q 833 1442 754 1442 q 961 1423 903 1442 q 1062 1367 1019 1404 q 1127 1278 1104 1331 q 1150 1160 1150 1226 q 1126 1025 1150 1092 q 1056 890 1103 958 q 942 749 1010 821 q 788 600 875 678 q 597 436 701 522 q 371 254 492 350 l 136 69 l 814 69 q 829 63 824 69 q 833 43 835 57 q 820 11 831 22 q 797 0 810 0 l 15 0 m 0 -712 l 1040 -712 l 1040 -726 l 0 -726 l 0 -712 m 0 28 l 1040 28 l 1040 0 l 0 0 l 0 28 m 0 701 l 1040 701 l 1040 694 l 0 694 l 0 701 m 0 1435 l 1040 1435 l 1040 1421 l 0 1421 l 0 1435 z "},"3":{"ha":1074,"x_min":0,"x_max":1125,"o":"m 475 -26 q 300 7 381 -26 q 160 101 219 40 q 67 243 100 161 q 60 278 58 265 q 81 299 63 290 q 111 303 103 308 q 129 278 119 297 q 210 153 161 206 q 326 74 258 101 q 483 46 394 46 q 653 77 576 46 q 784 163 729 108 q 869 290 839 218 q 899 446 899 363 q 864 594 899 531 q 764 692 829 657 q 604 726 699 726 l 503 726 q 490 735 494 726 q 489 761 485 743 q 504 788 494 779 q 524 796 514 796 l 626 796 q 792 819 715 796 q 925 885 868 842 q 1013 993 982 929 q 1044 1140 1044 1057 q 1026 1240 1044 1197 q 973 1313 1007 1283 q 892 1356 939 1342 q 790 1371 846 1371 q 674 1355 731 1371 q 562 1308 617 1339 q 451 1229 507 1276 q 422 1213 433 1213 q 397 1226 410 1214 q 385 1253 383 1242 q 407 1283 388 1264 q 522 1367 458 1332 q 657 1422 586 1403 q 799 1442 728 1442 q 926 1422 867 1442 q 1030 1365 985 1403 q 1100 1272 1075 1326 q 1125 1146 1125 1217 q 1102 1008 1125 1072 q 1034 892 1079 943 q 922 805 989 840 q 765 754 854 769 q 880 691 832 735 q 954 586 928 647 q 981 454 981 525 q 944 267 981 354 q 840 113 907 179 q 680 10 772 47 q 475 -26 588 -26 m 0 -712 l 1074 -712 l 1074 -726 l 0 -726 l 0 -712 m 0 28 l 1074 28 l 1074 0 l 0 0 l 0 28 m 0 701 l 1074 701 l 1074 694 l 0 694 l 0 701 m 0 1435 l 1074 1435 l 1074 1421 l 0 1421 l 0 1435 z "},"4":{"ha":1093,"x_min":0,"x_max":1093,"o":"m 694 -19 q 667 -12 675 -19 q 663 8 658 -6 l 790 401 l 128 401 q 102 417 107 401 q 114 453 97 432 l 942 1418 q 969 1441 956 1435 q 1001 1440 982 1447 q 1022 1431 1014 1438 q 1030 1417 1029 1425 q 1019 1396 1031 1408 l 221 471 l 814 471 l 985 996 q 1031 1024 993 1024 q 1058 1017 1050 1024 q 1063 996 1067 1010 l 892 471 l 1054 471 q 1069 465 1065 471 q 1072 446 1074 460 q 1060 413 1069 424 q 1035 401 1050 401 l 868 401 l 740 7 q 694 -19 732 -19 m 0 -712 l 1093 -712 l 1093 -726 l 0 -726 l 0 -712 m 0 28 l 1093 28 l 1093 0 l 0 0 l 0 28 m 0 701 l 1093 701 l 1093 694 l 0 694 l 0 701 m 0 1435 l 1093 1435 l 1093 1421 l 0 1421 l 0 1435 z "},"5":{"ha":1074,"x_min":0,"x_max":1221,"o":"m 490 -26 q 365 -10 426 -26 q 249 38 303 7 q 152 117 196 69 q 78 225 108 164 q 66 258 65 246 q 83 283 67 271 q 113 292 103 296 q 135 271 124 288 q 224 149 172 200 q 345 73 276 99 q 501 47 414 47 q 676 82 596 47 q 815 181 757 117 q 906 333 874 246 q 939 526 939 421 q 923 644 939 592 q 874 733 907 696 q 791 791 840 771 q 676 811 742 811 q 551 792 613 811 q 433 740 489 774 q 326 663 376 706 q 296 650 313 651 q 269 658 279 649 q 265 688 258 668 l 510 1393 q 523 1410 514 1404 q 547 1417 532 1417 l 1203 1417 q 1217 1410 1213 1417 q 1219 1392 1221 1404 q 1207 1359 1218 1371 q 1183 1347 1196 1347 l 568 1347 l 367 767 q 460 826 408 800 q 569 867 513 851 q 682 882 626 882 q 866 837 790 882 q 981 714 942 792 q 1019 538 1019 636 q 978 299 1019 404 q 863 122 936 194 q 695 11 790 49 q 490 -26 600 -26 m 0 -712 l 1074 -712 l 1074 -726 l 0 -726 l 0 -712 m 0 28 l 1074 28 l 1074 0 l 0 0 l 0 28 m 0 701 l 1074 701 l 1074 694 l 0 694 l 0 701 m 0 1435 l 1074 1435 l 1074 1421 l 0 1421 l 0 1435 z "},"6":{"ha":1154,"x_min":0,"x_max":1193,"o":"m 590 -26 q 391 25 475 -26 q 262 178 307 76 q 215 429 217 279 q 259 735 215 590 q 384 1003 303 881 q 580 1218 465 1125 q 837 1369 694 1311 q 1143 1440 979 1426 q 1179 1439 1168 1443 q 1192 1414 1190 1435 q 1184 1385 1193 1392 q 1154 1375 1175 1378 q 869 1306 1001 1360 q 631 1167 738 1253 q 450 967 525 1081 q 335 717 375 853 q 294 432 294 582 q 317 258 294 331 q 379 138 339 185 q 475 68 419 90 q 596 46 531 46 q 767 81 690 46 q 901 181 844 117 q 987 329 957 244 q 1017 511 1017 414 q 985 660 1017 599 q 894 756 953 722 q 758 789 836 789 q 638 769 697 790 q 526 713 579 749 q 426 631 472 676 q 342 537 379 586 q 278 442 304 488 l 267 526 q 365 660 310 599 q 486 766 421 721 q 624 836 551 811 q 769 861 696 861 q 903 837 843 861 q 1007 767 964 813 q 1074 661 1050 722 q 1097 525 1097 600 q 1060 303 1097 404 q 954 128 1022 201 q 794 14 886 54 q 590 -26 701 -26 m 0 -712 l 1154 -712 l 1154 -726 l 0 -726 l 0 -712 m 0 28 l 1154 28 l 1154 0 l 0 0 l 0 28 m 0 701 l 1154 701 l 1154 694 l 0 694 l 0 701 m 0 1435 l 1154 1435 l 1154 1421 l 0 1421 l 0 1435 z "},"7":{"ha":871,"x_min":0,"x_max":1151,"o":"m 115 -18 q 83 -3 86 -17 q 96 33 79 10 l 1028 1347 l 358 1347 q 345 1354 350 1347 q 343 1374 340 1361 q 357 1406 346 1394 q 379 1417 368 1417 l 1121 1417 q 1142 1406 1133 1417 q 1138 1375 1151 1394 l 175 18 q 148 -10 161 -1 q 115 -18 135 -19 m 0 -712 l 871 -712 l 871 -726 l 0 -726 l 0 -712 m 0 28 l 871 28 l 871 0 l 0 0 l 0 28 m 0 701 l 871 701 l 871 694 l 0 694 l 0 701 m 0 1435 l 871 1435 l 871 1421 l 0 1421 l 0 1435 z "},"8":{"ha":1074,"x_min":0,"x_max":1151,"o":"m 478 -26 q 319 -3 390 -26 q 197 62 249 19 q 119 162 146 104 q 92 290 92 219 q 129 447 92 375 q 234 578 167 518 q 392 686 301 638 q 585 771 482 735 q 463 871 511 818 q 392 979 415 924 q 369 1092 369 1035 q 401 1237 369 1172 q 492 1347 433 1301 q 631 1417 551 1393 q 808 1442 711 1442 q 943 1422 881 1442 q 1053 1367 1006 1403 q 1126 1281 1100 1331 q 1151 1167 1151 1231 q 1120 1033 1151 1094 q 1033 922 1089 972 q 905 832 978 872 q 749 761 832 792 q 876 659 821 715 q 965 538 932 603 q 997 394 997 472 q 957 216 997 294 q 846 83 917 138 q 681 1 775 29 q 478 -26 586 -26 m 496 46 q 659 69 583 46 q 792 138 735 93 q 883 247 850 183 q 915 390 915 310 q 885 522 915 463 q 797 631 854 581 q 657 728 739 682 q 466 649 554 693 q 312 550 378 604 q 209 431 246 496 q 172 290 172 367 q 197 188 172 233 q 264 112 221 143 q 366 63 307 81 q 496 46 425 46 m 678 800 q 883 894 794 842 q 1022 1013 971 947 q 1072 1157 1072 1078 q 1051 1248 1072 1208 q 991 1315 1029 1288 q 903 1356 953 1342 q 793 1371 853 1371 q 660 1353 722 1371 q 550 1300 597 1335 q 476 1215 503 1265 q 449 1097 449 1164 q 478 983 449 1035 q 560 886 508 931 q 678 800 611 842 m 0 -712 l 1074 -712 l 1074 -726 l 0 -726 l 0 -712 m 0 28 l 1074 28 l 1074 0 l 0 0 l 0 28 m 0 701 l 1074 701 l 1074 694 l 0 694 l 0 701 m 0 1435 l 1074 1435 l 1074 1421 l 0 1421 l 0 1435 z "},"9":{"ha":1154,"x_min":0,"x_max":1175,"o":"m 800 1447 q 999 1396 915 1447 q 1129 1243 1083 1344 q 1175 992 1175 1142 q 1131 685 1175 831 q 1006 418 1088 540 q 810 203 925 296 q 553 53 696 110 q 247 -19 411 -4 q 211 -17 222 -21 q 199 7 200 -14 q 206 37 197 31 q 235 46 215 43 q 521 115 389 61 q 759 254 653 168 q 940 454 865 340 q 1056 703 1015 568 q 1096 989 1096 839 q 1074 1163 1096 1090 q 1011 1283 1051 1236 q 915 1353 971 1331 q 793 1375 860 1375 q 622 1340 700 1375 q 489 1240 544 1304 q 403 1092 433 1176 q 372 910 372 1007 q 404 760 372 822 q 495 665 436 699 q 632 632 554 632 q 752 651 693 631 q 865 708 811 672 q 965 790 918 744 q 1049 884 1011 835 q 1111 979 1086 933 l 1124 894 q 1024 761 1081 822 q 903 655 968 700 q 767 585 839 610 q 621 560 694 560 q 487 584 547 560 q 383 653 426 608 q 317 760 340 699 q 293 896 293 821 q 331 1118 293 1017 q 436 1293 368 1219 q 597 1407 504 1367 q 800 1447 689 1447 m 0 -712 l 1154 -712 l 1154 -726 l 0 -726 l 0 -712 m 0 28 l 1154 28 l 1154 0 l 0 0 l 0 28 m 0 701 l 1154 701 l 1154 694 l 0 694 l 0 701 m 0 1435 l 1154 1435 l 1154 1421 l 0 1421 l 0 1435 z "},"\r":{"ha":417,"x_min":0,"x_max":0,"o":""}," ":{"ha":417,"x_min":0,"x_max":0,"o":""}," ":{"ha":139,"x_min":0,"x_max":0,"o":""}," ":{"ha":417,"x_min":0,"x_max":0,"o":""},"Ð":{"ha":1364,"x_min":0,"x_max":1378,"o":"m 154 0 q 125 26 117 0 l 565 1390 q 581 1410 571 1404 q 613 1417 590 1417 l 888 1417 q 1096 1388 1004 1417 q 1250 1303 1188 1360 q 1345 1165 1313 1247 q 1378 975 1378 1082 q 1333 657 1378 806 q 1205 388 1288 508 q 1008 180 1122 267 q 753 47 893 93 q 456 0 613 0 l 154 0 m 215 72 l 456 72 q 724 115 597 72 q 955 237 850 157 q 1135 428 1060 317 q 1253 678 1211 540 q 1294 975 1294 817 q 1267 1138 1294 1068 q 1186 1254 1239 1208 q 1057 1323 1133 1300 q 885 1346 981 1346 l 626 1346 l 215 72 m 176 678 q 156 687 158 678 q 157 711 153 696 q 168 735 161 726 q 193 743 175 743 l 746 743 q 766 733 764 743 q 765 710 768 724 q 753 686 761 694 q 729 678 746 678 l 176 678 m 0 -712 l 1364 -712 l 1364 -726 l 0 -726 l 0 -712 m 0 28 l 1364 28 l 1364 0 l 0 0 l 0 28 m 0 701 l 1364 701 l 1364 694 l 0 694 l 0 701 m 0 1435 l 1364 1435 l 1364 1421 l 0 1421 l 0 1435 z "},"Ŋ":{"ha":1392,"x_min":0,"x_max":1519,"o":"m 983 -210 q 932 -332 960 -287 q 869 -396 904 -376 q 783 -415 833 -415 q 688 -387 735 -415 q 606 -310 640 -358 q 597 -285 597 -297 q 614 -260 597 -274 q 640 -250 628 -249 q 661 -264 653 -251 q 701 -306 681 -287 q 743 -335 721 -325 q 789 -346 765 -346 q 840 -333 819 -346 q 876 -287 860 -319 q 911 -197 893 -254 l 978 7 l 613 1300 l 194 7 q 180 -13 190 -7 q 149 -19 169 -19 q 118 7 110 -19 l 574 1415 q 588 1435 578 1429 q 615 1442 597 1442 q 642 1437 633 1442 q 654 1419 650 1432 l 1019 126 l 1435 1415 q 1451 1435 1440 1429 q 1481 1442 1461 1442 q 1511 1415 1519 1442 l 983 -210 m 0 -712 l 1392 -712 l 1392 -726 l 0 -726 l 0 -712 m 0 28 l 1392 28 l 1392 0 l 0 0 l 0 28 m 0 701 l 1392 701 l 1392 694 l 0 694 l 0 701 m 0 1435 l 1392 1435 l 1392 1421 l 0 1421 l 0 1435 z "},"Þ":{"ha":1135,"x_min":0,"x_max":1194,"o":"m 150 -19 q 122 -13 131 -19 q 118 8 113 -7 l 575 1415 q 590 1435 581 1429 q 619 1442 599 1442 q 647 1435 638 1442 q 651 1414 656 1429 l 582 1207 l 807 1207 q 1021 1178 935 1207 q 1151 1087 1107 1150 q 1194 921 1194 1024 q 1152 718 1194 807 q 1032 565 1110 629 q 844 459 954 500 q 600 400 735 418 q 458 386 531 392 q 313 378 385 381 l 193 7 q 180 -13 189 -7 q 150 -19 171 -19 m 336 449 q 427 453 381 450 q 520 460 474 456 q 608 469 567 464 q 878 549 765 492 q 1053 697 992 606 q 1114 915 1114 789 q 1080 1046 1114 997 q 976 1116 1046 1094 q 801 1138 907 1138 l 558 1138 l 336 449 m 0 -712 l 1135 -712 l 1135 -726 l 0 -726 l 0 -712 m 0 28 l 1135 28 l 1135 0 l 0 0 l 0 28 m 0 701 l 1135 701 l 1135 694 l 0 694 l 0 701 m 0 1435 l 1135 1435 l 1135 1421 l 0 1421 l 0 1435 z "},"ẞ":{"ha":1376,"x_min":0,"x_max":1376,"o":"m 764 -26 q 652 -18 704 -26 q 551 8 600 -10 q 454 50 503 25 q 433 71 436 60 q 438 99 429 82 q 456 120 446 115 q 485 117 467 125 q 576 78 532 94 q 667 56 619 63 q 772 49 715 49 q 908 72 842 49 q 1028 140 975 94 q 1113 251 1081 185 q 1143 406 1144 318 q 1131 513 1143 464 q 1097 606 1118 563 q 1049 687 1076 649 q 994 761 1022 725 q 940 833 967 797 q 893 905 914 868 q 860 983 872 942 q 847 1072 847 1025 q 874 1199 847 1142 q 949 1298 901 1256 q 1058 1365 997 1340 q 812 1301 913 1347 q 644 1187 711 1256 q 531 1029 576 1118 q 453 836 486 940 l 185 8 q 170 -12 181 -6 q 139 -18 160 -18 q 111 -12 119 -18 q 108 10 103 -6 l 376 833 q 457 1038 413 944 q 567 1206 501 1132 q 724 1333 632 1281 q 949 1414 817 1386 q 1260 1442 1081 1442 l 1311 1442 q 1332 1433 1328 1442 q 1329 1406 1336 1425 q 1315 1378 1324 1386 q 1289 1371 1306 1371 q 1149 1350 1214 1371 q 1033 1292 1083 1329 q 953 1201 982 1254 q 925 1085 925 1149 q 939 1003 926 1042 q 972 928 951 964 q 1020 858 993 893 q 1075 787 1047 824 q 1130 710 1103 750 q 1178 624 1157 669 q 1211 526 1199 579 q 1224 408 1224 472 q 1187 225 1224 306 q 1085 88 1150 144 q 938 3 1021 32 q 764 -26 856 -26 m 0 -712 l 1376 -712 l 1376 -726 l 0 -726 l 0 -712 m 0 28 l 1376 28 l 1376 0 l 0 0 l 0 28 m 0 701 l 1376 701 l 1376 694 l 0 694 l 0 701 m 0 1435 l 1376 1435 l 1376 1421 l 0 1421 l 0 1435 z "},"ŋ":{"ha":853,"x_min":0,"x_max":853,"o":"m 536 -174 q 488 -283 513 -244 q 431 -338 463 -322 q 354 -354 400 -354 q 267 -330 310 -354 q 197 -267 225 -306 q 188 -242 189 -254 q 204 -217 188 -231 q 231 -207 219 -206 q 253 -221 243 -208 q 303 -268 278 -251 q 360 -285 329 -285 q 420 -258 399 -285 q 465 -160 442 -232 l 678 476 q 697 572 697 533 q 676 631 697 611 q 611 651 654 651 q 514 625 568 651 q 401 540 460 599 q 281 387 342 481 q 164 158 221 293 l 114 6 q 101 -15 110 -8 q 71 -21 92 -21 q 43 -14 54 -21 q 38 8 32 -7 l 258 686 q 272 709 264 703 q 300 715 281 715 q 331 707 322 715 q 333 682 339 699 l 247 414 q 347 557 296 499 q 449 651 399 615 q 544 704 499 688 q 631 721 590 721 q 726 694 689 721 q 771 610 763 667 q 750 464 779 553 l 536 -174 m 0 -712 l 853 -712 l 853 -726 l 0 -726 l 0 -712 m 0 28 l 853 28 l 853 0 l 0 0 l 0 28 m 0 701 l 853 701 l 853 694 l 0 694 l 0 701 m 0 1435 l 853 1435 l 853 1421 l 0 1421 l 0 1435 z "},"$":{"ha":1058,"x_min":0,"x_max":1151,"o":"m 481 -26 q 332 -7 399 -26 q 214 44 265 13 q 127 110 163 75 q 69 175 92 146 q 65 197 63 188 q 81 218 67 207 q 106 229 96 231 q 124 218 115 228 q 210 135 158 174 q 330 72 261 97 q 482 47 399 47 q 644 73 569 47 q 772 144 718 99 q 857 255 826 190 q 888 396 888 319 q 869 496 888 453 q 816 574 850 539 q 734 641 782 610 q 626 706 686 672 q 542 756 583 729 q 466 813 501 782 q 404 880 431 843 q 363 963 378 917 q 349 1067 349 1008 q 379 1218 349 1149 q 466 1338 410 1288 q 599 1415 522 1388 q 769 1442 676 1442 q 917 1419 850 1442 q 1040 1358 985 1397 q 1140 1269 1096 1319 q 1149 1247 1151 1257 q 1135 1226 1147 1238 q 1113 1217 1124 1217 q 1089 1226 1101 1217 q 1001 1299 1049 1267 q 897 1349 954 1331 q 767 1368 840 1368 q 633 1347 694 1368 q 525 1285 571 1325 q 453 1191 479 1246 q 428 1068 428 1136 q 444 971 428 1013 q 492 895 461 929 q 569 831 524 861 q 672 768 615 800 q 783 699 731 735 q 878 622 836 664 q 943 525 919 579 q 967 399 967 471 q 930 229 967 307 q 828 94 893 151 q 674 5 763 36 q 481 -26 585 -26 m 336 -186 q 308 -160 301 -186 l 879 1594 q 924 1621 888 1621 q 951 1594 960 1621 l 381 -160 q 336 -186 372 -186 m 0 -712 l 1058 -712 l 1058 -726 l 0 -726 l 0 -712 m 0 28 l 1058 28 l 1058 0 l 0 0 l 0 28 m 0 701 l 1058 701 l 1058 694 l 0 694 l 0 701 m 0 1435 l 1058 1435 l 1058 1421 l 0 1421 l 0 1435 z "},"€":{"ha":1201,"x_min":0,"x_max":1369,"o":"m 631 -29 q 474 5 542 -29 q 361 101 407 39 q 292 251 315 164 q 268 444 268 338 q 293 666 268 551 q 365 892 318 781 q 480 1103 413 1004 q 633 1278 547 1201 q 820 1398 718 1354 q 1038 1442 922 1442 q 1167 1422 1107 1442 q 1275 1367 1226 1403 q 1358 1281 1324 1331 q 1366 1258 1369 1268 q 1347 1238 1363 1247 q 1322 1227 1332 1225 q 1299 1243 1311 1229 q 1222 1312 1263 1283 q 1133 1354 1181 1340 q 1029 1368 1085 1368 q 840 1327 929 1368 q 675 1215 750 1286 q 540 1051 600 1143 q 437 855 479 958 q 372 647 394 751 q 350 447 350 543 q 368 280 350 354 q 422 153 386 206 q 511 73 457 100 q 638 46 565 46 q 744 60 692 46 q 847 99 796 74 q 944 161 897 125 q 1036 239 992 197 q 1060 253 1050 253 q 1083 240 1071 253 q 1095 215 1096 226 q 1082 192 1094 204 q 941 72 1015 122 q 789 -3 867 22 q 631 -29 711 -29 m 211 783 q 197 791 200 783 q 200 818 194 799 q 214 844 206 838 q 233 851 222 851 l 1043 851 q 1058 844 1054 851 q 1056 819 1063 838 q 1041 792 1050 800 q 1021 783 1032 783 l 211 783 m 149 579 q 133 587 138 579 q 135 614 129 594 q 151 640 142 632 q 169 647 160 647 l 979 647 q 995 640 992 647 q 992 614 999 633 q 977 587 985 594 q 958 579 969 579 l 149 579 m 0 -712 l 1201 -712 l 1201 -726 l 0 -726 l 0 -712 m 0 28 l 1201 28 l 1201 0 l 0 0 l 0 28 m 0 701 l 1201 701 l 1201 694 l 0 694 l 0 701 m 0 1435 l 1201 1435 l 1201 1421 l 0 1421 l 0 1435 z "},"¢":{"ha":832,"x_min":0,"x_max":847,"o":"m 369 -26 q 232 10 288 -26 q 148 112 176 46 q 119 265 119 178 q 142 442 119 357 q 208 600 165 528 q 310 726 251 672 q 442 810 369 781 q 599 840 515 840 q 700 825 654 840 q 781 783 746 810 q 839 724 817 757 q 844 702 847 713 q 828 681 842 692 q 805 673 815 671 q 783 686 794 675 q 735 731 763 713 q 673 761 708 750 q 590 772 638 772 q 460 744 521 772 q 351 668 400 717 q 269 556 303 619 q 216 418 235 492 q 197 268 197 344 q 217 148 197 199 q 278 70 238 97 q 379 42 319 43 q 484 62 433 42 q 585 119 535 82 q 685 208 635 157 q 708 217 696 219 q 728 206 719 215 q 738 186 738 197 q 729 163 739 175 q 614 58 675 100 q 491 -5 553 17 q 369 -26 429 -26 m 276 -186 q 249 -160 240 -186 l 624 996 q 668 1022 633 1022 q 696 996 704 1022 l 321 -160 q 276 -186 313 -186 m 0 -712 l 832 -712 l 832 -726 l 0 -726 l 0 -712 m 0 28 l 832 28 l 832 0 l 0 0 l 0 28 m 0 701 l 832 701 l 832 694 l 0 694 l 0 701 m 0 1435 l 832 1435 l 832 1421 l 0 1421 l 0 1435 z "},"£":{"ha":1060,"x_min":-35,"x_max":1250,"o":"m -18 0 q -32 9 -29 0 q -29 38 -35 18 q -15 63 -24 57 q 4 69 -6 69 l 217 69 l 383 578 l 206 578 q 191 585 194 578 q 193 613 188 593 q 210 639 201 632 q 228 646 218 646 l 406 646 l 563 1131 q 646 1303 597 1235 q 762 1407 694 1372 q 918 1442 829 1442 q 1096 1403 1011 1442 q 1240 1301 1181 1365 q 1250 1278 1250 1290 q 1235 1253 1250 1267 q 1207 1240 1218 1239 q 1183 1250 1196 1240 q 1054 1339 1124 1308 q 911 1369 985 1369 q 744 1309 811 1369 q 636 1125 676 1249 l 481 646 l 833 646 q 848 639 844 646 q 846 614 851 632 q 831 586 840 594 q 810 578 822 578 l 458 578 l 292 69 l 899 69 q 914 63 910 69 q 913 38 918 56 q 897 9 906 18 q 876 0 889 0 l -18 0 m 0 -712 l 1060 -712 l 1060 -726 l 0 -726 l 0 -712 m 0 28 l 1060 28 l 1060 0 l 0 0 l 0 28 m 0 701 l 1060 701 l 1060 694 l 0 694 l 0 701 m 0 1435 l 1060 1435 l 1060 1421 l 0 1421 l 0 1435 z "},"¥":{"ha":1053,"x_min":0,"x_max":1349,"o":"m 415 -19 q 386 7 379 -19 l 513 392 l 183 392 q 169 399 172 392 q 171 426 165 407 q 185 453 176 446 q 206 460 194 460 l 533 460 l 579 596 l 246 596 q 232 604 235 596 q 235 631 229 613 q 249 658 240 650 q 269 665 258 665 l 576 665 l 396 1399 q 400 1431 390 1421 q 428 1442 410 1442 q 456 1434 449 1442 q 467 1411 463 1426 l 643 697 l 1263 1415 q 1291 1440 1279 1435 q 1321 1438 1303 1446 q 1344 1422 1339 1433 q 1333 1393 1349 1410 l 703 665 l 1008 665 q 1024 658 1021 665 q 1021 632 1026 651 q 1006 604 1015 613 q 986 596 997 596 l 656 596 l 611 460 l 946 460 q 960 453 957 460 q 957 426 964 447 q 943 400 951 408 q 924 392 935 392 l 589 392 l 464 7 q 415 -19 456 -19 m 0 -712 l 1053 -712 l 1053 -726 l 0 -726 l 0 -712 m 0 28 l 1053 28 l 1053 0 l 0 0 l 0 28 m 0 701 l 1053 701 l 1053 694 l 0 694 l 0 701 m 0 1435 l 1053 1435 l 1053 1421 l 0 1421 l 0 1435 z "},"%":{"ha":1294,"x_min":0,"x_max":1415,"o":"m 488 829 q 379 856 424 829 q 311 931 335 883 q 288 1042 288 979 q 302 1151 288 1096 q 345 1259 317 1207 q 415 1352 374 1311 q 508 1417 456 1393 q 622 1442 560 1442 q 729 1415 686 1442 q 795 1343 772 1389 q 818 1236 818 1297 q 804 1130 818 1186 q 763 1019 790 1074 q 695 922 735 965 q 603 854 656 879 q 488 829 551 829 m 494 894 q 580 915 542 894 q 649 972 618 936 q 700 1051 679 1007 q 732 1141 721 1094 q 743 1231 743 1188 q 709 1337 743 1299 q 613 1375 675 1375 q 528 1355 567 1375 q 458 1300 489 1335 q 406 1222 428 1265 q 374 1133 385 1179 q 363 1044 363 1088 q 397 935 363 975 q 494 894 431 894 m 151 -15 q 130 -27 140 -26 q 107 -18 119 -28 q 92 3 93 -7 q 101 24 92 13 l 1357 1431 q 1377 1442 1367 1442 q 1401 1432 1388 1443 q 1414 1413 1413 1424 q 1406 1390 1415 1401 l 151 -15 m 901 -26 q 793 1 838 -26 q 725 77 749 29 q 701 188 701 125 q 716 297 701 240 q 759 405 731 353 q 828 498 788 457 q 922 563 869 539 q 1036 588 974 588 q 1143 561 1100 588 q 1209 489 1186 535 q 1232 382 1232 443 q 1218 275 1232 332 q 1176 165 1204 218 q 1109 69 1149 113 q 1017 -1 1069 25 q 901 -26 965 -26 m 908 40 q 994 61 956 40 q 1063 117 1032 82 q 1114 197 1093 153 q 1146 287 1135 240 q 1157 376 1157 333 q 1124 483 1157 444 q 1028 521 1090 521 q 942 501 981 521 q 872 446 903 481 q 820 368 842 411 q 788 279 799 325 q 776 190 776 233 q 810 81 776 121 q 908 40 844 40 m 0 -712 l 1294 -712 l 1294 -726 l 0 -726 l 0 -712 m 0 28 l 1294 28 l 1294 0 l 0 0 l 0 28 m 0 701 l 1294 701 l 1294 694 l 0 694 l 0 701 m 0 1435 l 1294 1435 l 1294 1421 l 0 1421 l 0 1435 z "},".":{"ha":435,"x_min":0,"x_max":435,"o":"m 110 -29 q 65 -15 81 -29 q 49 24 49 0 q 70 90 49 65 q 128 115 92 115 q 173 101 157 115 q 189 63 189 88 q 168 -3 189 22 q 110 -29 147 -29 m 0 -712 l 435 -712 l 435 -726 l 0 -726 l 0 -712 m 0 28 l 435 28 l 435 0 l 0 0 l 0 28 m 0 701 l 435 701 l 435 694 l 0 694 l 0 701 m 0 1435 l 435 1435 l 435 1421 l 0 1421 l 0 1435 z "},",":{"ha":435,"x_min":-61,"x_max":435,"o":"m -26 -268 q -49 -257 -36 -268 q -61 -236 -61 -246 q -59 -225 -61 -231 q -51 -214 -57 -219 q 8 -128 -17 -169 q 50 -39 33 -86 q 74 64 67 8 q 89 96 75 85 q 128 107 103 107 q 164 97 153 107 q 175 69 175 88 q 156 -27 175 29 q 101 -142 138 -83 q 11 -249 64 -200 q -9 -262 0 -257 q -26 -268 -18 -268 m 0 -712 l 435 -712 l 435 -726 l 0 -726 l 0 -712 m 0 28 l 435 28 l 435 0 l 0 0 l 0 28 m 0 701 l 435 701 l 435 694 l 0 694 l 0 701 m 0 1435 l 435 1435 l 435 1421 l 0 1421 l 0 1435 z "},":":{"ha":435,"x_min":0,"x_max":435,"o":"m 110 -29 q 65 -15 81 -29 q 49 24 49 0 q 70 90 49 65 q 128 115 92 115 q 173 101 157 115 q 189 63 189 88 q 168 -3 189 22 q 110 -29 147 -29 m 296 576 q 251 591 267 576 q 235 629 235 606 q 256 696 235 671 q 314 721 278 721 q 359 707 343 721 q 375 668 375 693 q 354 602 375 628 q 296 576 333 576 m 0 -712 l 435 -712 l 435 -726 l 0 -726 l 0 -712 m 0 28 l 435 28 l 435 0 l 0 0 l 0 28 m 0 701 l 435 701 l 435 694 l 0 694 l 0 701 m 0 1435 l 435 1435 l 435 1421 l 0 1421 l 0 1435 z "},";":{"ha":435,"x_min":-56,"x_max":435,"o":"m 296 576 q 251 591 267 576 q 235 629 235 606 q 256 696 235 671 q 314 721 278 721 q 359 707 343 721 q 375 668 375 693 q 354 602 375 628 q 296 576 333 576 m -19 -268 q -43 -257 -31 -268 q -56 -236 -56 -246 q -53 -225 -56 -231 q -46 -214 -51 -219 q 15 -128 -11 -169 q 56 -39 40 -86 q 79 64 72 8 q 96 96 82 85 q 135 107 110 107 q 170 97 158 107 q 182 69 182 88 q 163 -27 182 29 q 107 -142 143 -83 q 17 -249 71 -200 q -3 -262 7 -257 q -19 -268 -12 -268 m 0 -712 l 435 -712 l 435 -726 l 0 -726 l 0 -712 m 0 28 l 435 28 l 435 0 l 0 0 l 0 28 m 0 701 l 435 701 l 435 694 l 0 694 l 0 701 m 0 1435 l 435 1435 l 435 1421 l 0 1421 l 0 1435 z "},"…":{"ha":1178,"x_min":0,"x_max":1178,"o":"m 482 -29 q 437 -15 453 -29 q 421 24 421 0 q 442 90 421 65 q 500 115 464 115 q 545 101 529 115 q 561 63 561 88 q 540 -3 561 22 q 482 -29 519 -29 m 853 -29 q 808 -15 824 -29 q 792 24 792 0 q 813 90 792 65 q 871 115 835 115 q 916 101 900 115 q 932 63 932 88 q 911 -3 932 22 q 853 -29 890 -29 m 110 -29 q 65 -15 81 -29 q 49 24 49 0 q 70 90 49 65 q 128 115 92 115 q 173 101 157 115 q 189 63 189 88 q 168 -3 189 22 q 110 -29 147 -29 m 0 -712 l 1178 -712 l 1178 -726 l 0 -726 l 0 -712 m 0 28 l 1178 28 l 1178 0 l 0 0 l 0 28 m 0 701 l 1178 701 l 1178 694 l 0 694 l 0 701 m 0 1435 l 1178 1435 l 1178 1421 l 0 1421 l 0 1435 z "},"!":{"ha":550,"x_min":0,"x_max":665,"o":"m 261 300 q 231 326 222 300 l 581 1415 q 596 1436 585 1431 q 625 1442 607 1442 q 656 1415 665 1442 l 306 326 q 292 307 303 314 q 261 300 282 300 m 168 -19 q 128 -6 144 -19 q 113 33 113 8 q 134 95 113 68 q 193 122 156 122 q 234 109 218 122 q 250 71 250 96 q 228 8 250 35 q 168 -19 207 -19 m 0 -712 l 550 -712 l 550 -726 l 0 -726 l 0 -712 m 0 28 l 550 28 l 550 0 l 0 0 l 0 28 m 0 701 l 550 701 l 550 694 l 0 694 l 0 701 m 0 1435 l 550 1435 l 550 1421 l 0 1421 l 0 1435 z "},"¡":{"ha":551,"x_min":-110,"x_max":551,"o":"m -71 -746 q -101 -719 -110 -746 l 249 369 q 264 389 253 382 q 293 396 275 396 q 324 369 333 396 l -26 -719 q -41 -740 -31 -735 q -71 -746 -51 -746 m 361 574 q 320 588 336 574 q 304 625 304 601 q 327 688 306 661 q 386 715 349 715 q 426 702 411 715 q 442 664 442 689 q 421 600 442 626 q 361 574 400 574 m 0 -712 l 551 -712 l 551 -726 l 0 -726 l 0 -712 m 0 28 l 551 28 l 551 0 l 0 0 l 0 28 m 0 701 l 551 701 l 551 694 l 0 694 l 0 701 m 0 1435 l 551 1435 l 551 1421 l 0 1421 l 0 1435 z "},"?":{"ha":799,"x_min":0,"x_max":1017,"o":"m 281 300 q 255 306 263 300 q 251 326 247 313 l 357 657 q 372 678 363 672 q 396 686 382 685 q 617 742 518 701 q 788 846 717 783 q 899 988 860 908 q 938 1158 938 1067 q 906 1273 938 1226 q 822 1345 875 1319 q 697 1371 768 1371 q 576 1353 636 1371 q 460 1304 517 1336 q 350 1228 404 1272 q 325 1220 336 1217 q 306 1236 314 1224 q 296 1260 294 1250 q 311 1282 297 1269 q 436 1369 369 1333 q 572 1423 503 1404 q 707 1442 640 1442 q 869 1406 799 1442 q 978 1307 939 1371 q 1017 1158 1017 1243 q 972 962 1017 1051 q 848 803 928 872 q 659 687 768 733 q 421 619 550 640 l 328 326 q 313 306 324 313 q 281 300 301 300 m 201 -19 q 162 -6 178 -19 q 146 32 146 8 q 168 96 146 69 q 228 122 190 122 q 268 109 253 122 q 283 71 283 96 q 262 8 283 35 q 201 -19 240 -19 m 0 -712 l 799 -712 l 799 -726 l 0 -726 l 0 -712 m 0 28 l 799 28 l 799 0 l 0 0 l 0 28 m 0 701 l 799 701 l 799 694 l 0 694 l 0 701 m 0 1435 l 799 1435 l 799 1421 l 0 1421 l 0 1435 z "},"¿":{"ha":799,"x_min":-240,"x_max":799,"o":"m 496 396 q 523 390 515 396 q 526 369 531 383 l 419 39 q 406 17 415 24 q 382 10 396 11 q 160 -47 260 -6 q -11 -150 60 -87 q -121 -292 -82 -212 q -160 -462 -160 -371 q -129 -576 -160 -529 q -44 -649 -99 -624 q 79 -675 10 -675 q 201 -657 142 -675 q 317 -607 260 -639 q 426 -532 374 -575 q 453 -524 442 -521 q 472 -540 464 -528 q 481 -564 482 -554 q 465 -586 481 -574 q 342 -672 408 -636 q 206 -727 275 -708 q 71 -746 138 -746 q -91 -710 -21 -746 q -201 -610 -161 -675 q -240 -462 -240 -546 q -196 -266 -240 -356 q -71 -107 -151 -176 q 119 9 10 -37 q 356 76 228 56 l 449 369 q 465 390 454 383 q 496 396 476 396 m 575 715 q 615 702 600 715 q 631 664 631 689 q 610 600 631 626 q 550 574 589 574 q 509 587 525 574 q 493 625 493 600 q 515 688 493 661 q 575 715 538 715 m 0 -712 l 799 -712 l 799 -726 l 0 -726 l 0 -712 m 0 28 l 799 28 l 799 0 l 0 0 l 0 28 m 0 701 l 799 701 l 799 694 l 0 694 l 0 701 m 0 1435 l 799 1435 l 799 1421 l 0 1421 l 0 1435 z "},"'":{"ha":235,"x_min":0,"x_max":499,"o":"m 331 1004 q 308 1014 311 1004 q 307 1038 304 1024 l 393 1354 q 412 1384 399 1372 q 451 1396 425 1396 q 490 1383 482 1396 q 492 1351 499 1369 l 374 1036 q 359 1013 368 1021 q 331 1004 350 1004 m 0 -712 l 235 -712 l 235 -726 l 0 -726 l 0 -712 m 0 28 l 235 28 l 235 0 l 0 0 l 0 28 m 0 701 l 235 701 l 235 694 l 0 694 l 0 701 m 0 1435 l 235 1435 l 235 1421 l 0 1421 l 0 1435 z "},"\"":{"ha":450,"x_min":0,"x_max":714,"o":"m 331 1004 q 308 1014 311 1004 q 307 1038 304 1024 l 393 1354 q 412 1384 399 1372 q 451 1396 425 1396 q 490 1383 482 1396 q 492 1351 499 1369 l 374 1036 q 359 1013 368 1021 q 331 1004 350 1004 m 547 1004 q 523 1014 526 1004 q 524 1038 519 1024 l 608 1354 q 627 1384 614 1372 q 667 1396 640 1396 q 706 1383 697 1396 q 707 1351 714 1369 l 589 1036 q 574 1013 583 1021 q 547 1004 565 1004 m 0 -712 l 450 -712 l 450 -726 l 0 -726 l 0 -712 m 0 28 l 450 28 l 450 0 l 0 0 l 0 28 m 0 701 l 450 701 l 450 694 l 0 694 l 0 701 m 0 1435 l 450 1435 l 450 1421 l 0 1421 l 0 1435 z "},"‘":{"ha":275,"x_min":0,"x_max":543,"o":"m 360 1006 q 326 1016 336 1006 q 315 1043 315 1026 q 325 1112 315 1072 q 354 1198 335 1151 q 404 1290 374 1244 q 474 1375 435 1336 q 493 1390 483 1383 q 510 1396 503 1396 q 532 1385 521 1396 q 543 1363 543 1374 q 541 1353 543 1358 q 533 1340 539 1347 q 476 1249 500 1292 q 438 1158 453 1206 q 414 1049 422 1111 q 398 1017 411 1029 q 360 1006 385 1006 m 0 -712 l 275 -712 l 275 -726 l 0 -726 l 0 -712 m 0 28 l 275 28 l 275 0 l 0 0 l 0 28 m 0 701 l 275 701 l 275 694 l 0 694 l 0 701 m 0 1435 l 275 1435 l 275 1421 l 0 1421 l 0 1435 z "},"’":{"ha":279,"x_min":0,"x_max":517,"o":"m 472 1396 q 506 1385 496 1396 q 517 1358 517 1375 q 507 1290 517 1329 q 478 1204 497 1250 q 428 1113 458 1158 q 356 1025 397 1067 q 338 1011 347 1017 q 321 1006 329 1006 q 299 1017 310 1006 q 288 1039 288 1028 q 290 1049 288 1043 q 297 1061 292 1054 q 356 1153 333 1111 q 394 1243 379 1196 q 418 1353 408 1290 q 435 1384 421 1372 q 472 1396 449 1396 m 0 -712 l 279 -712 l 279 -726 l 0 -726 l 0 -712 m 0 28 l 279 28 l 279 0 l 0 0 l 0 28 m 0 701 l 279 701 l 279 694 l 0 694 l 0 701 m 0 1435 l 279 1435 l 279 1421 l 0 1421 l 0 1435 z "},"‚":{"ha":319,"x_min":-110,"x_max":319,"o":"m -74 -268 q -97 -257 -85 -268 q -110 -236 -110 -246 q -107 -225 -110 -231 q -99 -214 -104 -219 q -39 -128 -64 -169 q 3 -39 -14 -86 q 26 64 19 8 q 42 96 28 85 q 81 107 56 107 q 117 97 106 107 q 128 69 128 88 q 109 -27 128 29 q 53 -142 90 -83 q -37 -249 17 -200 q -56 -262 -47 -257 q -74 -268 -65 -268 m 0 -712 l 319 -712 l 319 -726 l 0 -726 l 0 -712 m 0 28 l 319 28 l 319 0 l 0 0 l 0 28 m 0 701 l 319 701 l 319 694 l 0 694 l 0 701 m 0 1435 l 319 1435 l 319 1421 l 0 1421 l 0 1435 z "},"“":{"ha":506,"x_min":0,"x_max":774,"o":"m 360 1006 q 326 1016 336 1006 q 315 1043 315 1026 q 325 1112 315 1072 q 354 1198 335 1151 q 404 1290 374 1244 q 474 1375 435 1336 q 493 1390 483 1383 q 510 1396 503 1396 q 532 1385 521 1396 q 543 1363 543 1374 q 541 1353 543 1358 q 533 1340 539 1347 q 476 1249 500 1292 q 438 1158 453 1206 q 414 1049 422 1111 q 398 1017 411 1029 q 360 1006 385 1006 m 590 1006 q 556 1016 567 1006 q 544 1043 544 1026 q 554 1112 544 1072 q 584 1198 564 1151 q 634 1290 604 1244 q 704 1375 664 1336 q 723 1390 714 1383 q 740 1396 732 1396 q 763 1385 751 1396 q 774 1363 774 1374 q 771 1353 774 1358 q 764 1340 768 1347 q 706 1249 729 1292 q 667 1158 682 1206 q 644 1049 653 1111 q 627 1017 640 1029 q 590 1006 614 1006 m 0 -712 l 506 -712 l 506 -726 l 0 -726 l 0 -712 m 0 28 l 506 28 l 506 0 l 0 0 l 0 28 m 0 701 l 506 701 l 506 694 l 0 694 l 0 701 m 0 1435 l 506 1435 l 506 1421 l 0 1421 l 0 1435 z "},"”":{"ha":510,"x_min":0,"x_max":747,"o":"m 701 1396 q 737 1385 726 1396 q 747 1358 747 1375 q 738 1290 747 1329 q 708 1204 728 1250 q 658 1113 688 1158 q 586 1025 628 1067 q 568 1011 578 1017 q 551 1006 558 1006 q 528 1017 540 1006 q 517 1039 517 1028 q 519 1049 517 1043 q 526 1061 522 1054 q 586 1153 563 1111 q 624 1243 610 1196 q 647 1353 639 1290 q 665 1384 651 1372 q 701 1396 678 1396 m 472 1396 q 506 1385 496 1396 q 517 1358 517 1375 q 507 1290 517 1329 q 478 1204 497 1250 q 428 1113 458 1158 q 356 1025 397 1067 q 338 1011 347 1017 q 321 1006 329 1006 q 299 1017 310 1006 q 288 1039 288 1028 q 290 1049 288 1043 q 297 1061 292 1054 q 356 1153 333 1111 q 394 1243 379 1196 q 418 1353 408 1290 q 435 1384 421 1372 q 472 1396 449 1396 m 0 -712 l 510 -712 l 510 -726 l 0 -726 l 0 -712 m 0 28 l 510 28 l 510 0 l 0 0 l 0 28 m 0 701 l 510 701 l 510 694 l 0 694 l 0 701 m 0 1435 l 510 1435 l 510 1421 l 0 1421 l 0 1435 z "},"„":{"ha":546,"x_min":-110,"x_max":546,"o":"m 153 -268 q 131 -257 143 -268 q 118 -236 118 -246 q 120 -225 118 -231 q 128 -214 122 -219 q 188 -128 163 -169 q 230 -39 214 -86 q 253 64 246 8 q 268 96 254 85 q 307 107 282 107 q 343 97 332 107 q 354 69 354 88 q 335 -27 354 29 q 281 -142 317 -83 q 190 -249 244 -200 q 170 -262 179 -257 q 153 -268 161 -268 m -74 -268 q -97 -257 -85 -268 q -110 -236 -110 -246 q -107 -225 -110 -231 q -99 -214 -104 -219 q -39 -128 -64 -169 q 3 -39 -14 -86 q 26 64 19 8 q 42 96 28 85 q 81 107 56 107 q 117 97 106 107 q 128 69 128 88 q 109 -27 128 29 q 53 -142 90 -83 q -37 -249 17 -200 q -56 -262 -47 -257 q -74 -268 -65 -268 m 0 -712 l 546 -712 l 546 -726 l 0 -726 l 0 -712 m 0 28 l 546 28 l 546 0 l 0 0 l 0 28 m 0 701 l 546 701 l 546 694 l 0 694 l 0 701 m 0 1435 l 546 1435 l 546 1421 l 0 1421 l 0 1435 z "},"«":{"ha":1007,"x_min":0,"x_max":1007,"o":"m 343 -19 q 322 -13 331 -19 q 308 4 314 -7 l 167 301 q 156 327 160 318 q 153 342 153 336 q 162 363 153 353 q 190 392 171 374 l 525 693 q 555 712 540 707 q 582 710 569 717 q 602 698 594 706 q 610 682 610 690 q 600 663 611 674 l 235 335 l 378 32 q 378 -5 389 10 q 343 -19 367 -19 m 690 -19 q 669 -13 678 -19 q 656 4 661 -7 l 514 301 q 503 327 507 318 q 500 342 500 336 q 509 363 500 353 q 538 392 518 374 l 872 693 q 902 712 888 707 q 929 710 917 717 q 949 698 942 706 q 958 682 957 690 q 947 663 958 674 l 582 335 l 725 32 q 725 -5 736 10 q 690 -19 714 -19 m 0 -712 l 1007 -712 l 1007 -726 l 0 -726 l 0 -712 m 0 28 l 1007 28 l 1007 0 l 0 0 l 0 28 m 0 701 l 1007 701 l 1007 694 l 0 694 l 0 701 m 0 1435 l 1007 1435 l 1007 1421 l 0 1421 l 0 1435 z "},"»":{"ha":1007,"x_min":0,"x_max":1007,"o":"m 78 -15 q 58 -3 65 -11 q 50 13 50 4 q 61 32 50 22 l 425 361 l 282 663 q 283 700 271 686 q 317 714 294 714 q 338 708 329 714 q 351 690 347 703 l 493 393 q 505 369 501 378 q 508 353 508 360 q 499 333 508 343 q 469 304 489 322 l 135 3 q 106 -17 121 -11 q 78 -15 92 -22 m 425 -15 q 405 -3 413 -11 q 397 13 397 4 q 408 32 397 22 l 772 361 l 629 663 q 630 700 618 686 q 664 714 642 714 q 685 708 676 714 q 699 690 694 703 l 840 393 q 852 369 849 378 q 856 353 856 360 q 846 333 856 343 q 817 304 836 322 l 482 3 q 453 -17 468 -11 q 425 -15 439 -22 m 0 -712 l 1007 -712 l 1007 -726 l 0 -726 l 0 -712 m 0 28 l 1007 28 l 1007 0 l 0 0 l 0 28 m 0 701 l 1007 701 l 1007 694 l 0 694 l 0 701 m 0 1435 l 1007 1435 l 1007 1421 l 0 1421 l 0 1435 z "},"‹":{"ha":660,"x_min":0,"x_max":660,"o":"m 343 -19 q 322 -13 331 -19 q 308 4 314 -7 l 167 301 q 156 327 160 318 q 153 342 153 336 q 162 363 153 353 q 190 392 171 374 l 525 693 q 555 712 540 707 q 582 710 569 717 q 602 698 594 706 q 610 682 610 690 q 600 663 611 674 l 235 335 l 378 32 q 378 -5 389 10 q 343 -19 367 -19 m 0 -712 l 660 -712 l 660 -726 l 0 -726 l 0 -712 m 0 28 l 660 28 l 660 0 l 0 0 l 0 28 m 0 701 l 660 701 l 660 694 l 0 694 l 0 701 m 0 1435 l 660 1435 l 660 1421 l 0 1421 l 0 1435 z "},"›":{"ha":660,"x_min":0,"x_max":660,"o":"m 78 -15 q 58 -3 65 -11 q 50 13 50 4 q 61 32 50 22 l 425 361 l 282 663 q 283 700 271 686 q 317 714 294 714 q 338 708 329 714 q 351 690 347 703 l 493 393 q 505 369 501 378 q 508 353 508 360 q 499 333 508 343 q 469 304 489 322 l 135 3 q 106 -17 121 -11 q 78 -15 92 -22 m 0 -712 l 660 -712 l 660 -726 l 0 -726 l 0 -712 m 0 28 l 660 28 l 660 0 l 0 0 l 0 28 m 0 701 l 660 701 l 660 694 l 0 694 l 0 701 m 0 1435 l 660 1435 l 660 1421 l 0 1421 l 0 1435 z "},"Á":{"ha":1178,"x_min":-67,"x_max":1178,"o":"m -29 -19 q -59 -7 -51 -19 q -54 28 -67 6 l 853 1413 q 875 1435 864 1429 q 906 1442 886 1442 q 932 1434 924 1442 q 942 1404 940 1426 l 1018 19 q 1011 -10 1019 0 q 981 -19 1003 -19 q 954 -12 961 -19 q 946 14 947 -4 l 922 431 l 297 431 l 24 13 q 0 -13 10 -7 q -29 -19 -10 -19 m 343 500 l 919 500 l 876 1324 l 343 500 m 846 1513 q 824 1525 836 1513 q 813 1546 813 1538 q 813 1554 813 1550 q 819 1564 814 1558 l 1054 1768 q 1065 1777 1061 1774 q 1076 1781 1069 1781 q 1097 1774 1086 1781 q 1114 1756 1107 1767 q 1121 1736 1121 1744 q 1119 1726 1121 1731 q 1110 1715 1118 1721 l 865 1524 q 855 1516 858 1519 q 846 1513 851 1513 m 0 -712 l 1178 -712 l 1178 -726 l 0 -726 l 0 -712 m 0 28 l 1178 28 l 1178 0 l 0 0 l 0 28 m 0 701 l 1178 701 l 1178 694 l 0 694 l 0 701 m 0 1435 l 1178 1435 l 1178 1421 l 0 1421 l 0 1435 z "},"Ă":{"ha":1178,"x_min":-67,"x_max":1215,"o":"m -29 -19 q -59 -7 -51 -19 q -54 28 -67 6 l 853 1413 q 875 1435 864 1429 q 906 1442 886 1442 q 932 1434 924 1442 q 942 1404 940 1426 l 1018 19 q 1011 -10 1019 0 q 981 -19 1003 -19 q 954 -12 961 -19 q 946 14 947 -4 l 922 431 l 297 431 l 24 13 q 0 -13 10 -7 q -29 -19 -10 -19 m 343 500 l 919 500 l 876 1324 l 343 500 m 922 1514 q 774 1574 822 1514 q 742 1753 726 1635 q 753 1774 744 1767 q 776 1781 761 1781 q 799 1774 792 1781 q 807 1753 807 1767 q 831 1631 799 1671 q 929 1590 863 1590 q 1064 1633 1007 1590 q 1144 1751 1121 1675 q 1160 1774 1151 1768 q 1183 1781 1168 1781 q 1208 1772 1200 1781 q 1211 1750 1215 1764 q 1147 1616 1188 1668 q 1049 1539 1106 1564 q 922 1514 993 1514 m 0 -712 l 1178 -712 l 1178 -726 l 0 -726 l 0 -712 m 0 28 l 1178 28 l 1178 0 l 0 0 l 0 28 m 0 701 l 1178 701 l 1178 694 l 0 694 l 0 701 m 0 1435 l 1178 1435 l 1178 1421 l 0 1421 l 0 1435 z "},"Ǎ":{"ha":1178,"x_min":-67,"x_max":1217,"o":"m -29 -19 q -59 -7 -51 -19 q -54 28 -67 6 l 853 1413 q 875 1435 864 1429 q 906 1442 886 1442 q 932 1434 924 1442 q 942 1404 940 1426 l 1018 19 q 1011 -10 1019 0 q 981 -19 1003 -19 q 954 -12 961 -19 q 946 14 947 -4 l 922 431 l 297 431 l 24 13 q 0 -13 10 -7 q -29 -19 -10 -19 m 343 500 l 919 500 l 876 1324 l 343 500 m 1186 1779 q 1208 1769 1199 1779 q 1217 1749 1217 1758 q 1214 1735 1217 1740 q 1204 1725 1211 1731 l 953 1532 q 929 1518 939 1522 q 908 1514 919 1514 q 891 1519 899 1514 q 875 1533 883 1524 l 718 1729 q 712 1740 714 1735 q 710 1751 710 1746 q 722 1772 710 1764 q 744 1779 735 1779 q 759 1775 754 1779 q 769 1765 764 1771 l 922 1604 l 1157 1764 q 1172 1775 1167 1771 q 1186 1779 1178 1779 m 0 -712 l 1178 -712 l 1178 -726 l 0 -726 l 0 -712 m 0 28 l 1178 28 l 1178 0 l 0 0 l 0 28 m 0 701 l 1178 701 l 1178 694 l 0 694 l 0 701 m 0 1435 l 1178 1435 l 1178 1421 l 0 1421 l 0 1435 z "},"Â":{"ha":1178,"x_min":-67,"x_max":1183,"o":"m -29 -19 q -59 -7 -51 -19 q -54 28 -67 6 l 853 1413 q 875 1435 864 1429 q 906 1442 886 1442 q 932 1434 924 1442 q 942 1404 940 1426 l 1018 19 q 1011 -10 1019 0 q 981 -19 1003 -19 q 954 -12 961 -19 q 946 14 947 -4 l 922 431 l 297 431 l 24 13 q 0 -13 10 -7 q -29 -19 -10 -19 m 343 500 l 919 500 l 876 1324 l 343 500 m 707 1513 q 686 1522 694 1513 q 678 1542 678 1532 q 681 1555 678 1550 q 689 1565 683 1560 l 942 1758 q 965 1774 956 1769 q 985 1778 974 1778 q 1003 1773 994 1778 q 1018 1757 1011 1768 l 1175 1563 q 1181 1551 1179 1557 q 1183 1540 1183 1546 q 1172 1520 1183 1528 q 1150 1513 1160 1513 q 1135 1516 1142 1513 q 1124 1526 1129 1519 l 971 1686 l 738 1525 q 721 1515 728 1518 q 707 1513 714 1513 m 0 -712 l 1178 -712 l 1178 -726 l 0 -726 l 0 -712 m 0 28 l 1178 28 l 1178 0 l 0 0 l 0 28 m 0 701 l 1178 701 l 1178 694 l 0 694 l 0 701 m 0 1435 l 1178 1435 l 1178 1421 l 0 1421 l 0 1435 z "},"Ä":{"ha":1178,"x_min":-67,"x_max":1183,"o":"m -29 -19 q -59 -7 -51 -19 q -54 28 -67 6 l 853 1413 q 875 1435 864 1429 q 906 1442 886 1442 q 932 1434 924 1442 q 942 1404 940 1426 l 1018 19 q 1011 -10 1019 0 q 981 -19 1003 -19 q 954 -12 961 -19 q 946 14 947 -4 l 922 431 l 297 431 l 24 13 q 0 -13 10 -7 q -29 -19 -10 -19 m 343 500 l 919 500 l 876 1324 l 343 500 m 761 1565 q 721 1577 736 1565 q 706 1614 706 1589 q 726 1674 706 1647 q 785 1701 747 1701 q 825 1689 810 1701 q 840 1651 840 1676 q 821 1592 840 1618 q 761 1565 801 1565 m 1103 1565 q 1063 1577 1078 1565 q 1047 1614 1047 1589 q 1068 1674 1047 1647 q 1126 1701 1089 1701 q 1167 1689 1151 1701 q 1183 1651 1183 1676 q 1163 1592 1183 1618 q 1103 1565 1142 1565 m 0 -712 l 1178 -712 l 1178 -726 l 0 -726 l 0 -712 m 0 28 l 1178 28 l 1178 0 l 0 0 l 0 28 m 0 701 l 1178 701 l 1178 694 l 0 694 l 0 701 m 0 1435 l 1178 1435 l 1178 1421 l 0 1421 l 0 1435 z "},"Ǽ":{"ha":1514,"x_min":-75,"x_max":1779,"o":"m 1303 0 l 713 0 q 683 8 692 0 q 681 32 675 15 l 888 674 l 554 674 l 4 0 q -21 -19 -7 -15 q -51 -15 -35 -22 q -71 3 -67 -8 q -61 31 -75 14 l 1056 1394 q 1075 1413 1065 1407 q 1103 1417 1085 1418 l 1758 1417 q 1776 1408 1774 1417 q 1775 1382 1779 1400 q 1762 1356 1771 1364 q 1739 1347 1753 1347 l 1181 1347 l 986 743 l 1447 743 q 1460 735 1457 743 q 1458 708 1464 726 q 1444 682 1453 690 q 1425 674 1435 674 l 964 674 l 769 69 l 1322 69 q 1340 61 1338 69 q 1339 35 1343 53 q 1324 8 1333 17 q 1303 0 1315 0 m 610 743 l 910 743 l 1106 1349 l 610 743 m 1346 1513 q 1323 1525 1335 1513 q 1311 1546 1311 1538 q 1313 1554 1311 1550 q 1319 1564 1314 1558 l 1554 1768 q 1565 1777 1561 1774 q 1576 1781 1569 1781 q 1595 1774 1585 1781 q 1613 1756 1606 1767 q 1619 1736 1619 1744 q 1618 1726 1619 1731 q 1610 1715 1617 1721 l 1365 1524 q 1354 1516 1358 1519 q 1346 1513 1350 1513 m 0 -712 l 1514 -712 l 1514 -726 l 0 -726 l 0 -712 m 0 28 l 1514 28 l 1514 0 l 0 0 l 0 28 m 0 701 l 1514 701 l 1514 694 l 0 694 l 0 701 m 0 1435 l 1514 1435 l 1514 1421 l 0 1421 l 0 1435 z "},"À":{"ha":1178,"x_min":-67,"x_max":1178,"o":"m -29 -19 q -59 -7 -51 -19 q -54 28 -67 6 l 853 1413 q 875 1435 864 1429 q 906 1442 886 1442 q 932 1434 924 1442 q 942 1404 940 1426 l 1018 19 q 1011 -10 1019 0 q 981 -19 1003 -19 q 954 -12 961 -19 q 946 14 947 -4 l 922 431 l 297 431 l 24 13 q 0 -13 10 -7 q -29 -19 -10 -19 m 343 500 l 919 500 l 876 1324 l 343 500 m 997 1513 q 989 1516 993 1513 q 979 1524 985 1519 l 764 1714 q 756 1725 757 1721 q 754 1735 754 1729 q 762 1756 754 1744 q 780 1774 769 1767 q 800 1781 790 1781 q 810 1778 807 1781 q 821 1768 814 1775 l 1025 1564 q 1032 1555 1031 1560 q 1033 1547 1033 1550 q 1021 1525 1033 1538 q 997 1513 1008 1513 m 0 -712 l 1178 -712 l 1178 -726 l 0 -726 l 0 -712 m 0 28 l 1178 28 l 1178 0 l 0 0 l 0 28 m 0 701 l 1178 701 l 1178 694 l 0 694 l 0 701 m 0 1435 l 1178 1435 l 1178 1421 l 0 1421 l 0 1435 z "},"Ā":{"ha":1178,"x_min":-67,"x_max":1178,"o":"m -29 -19 q -59 -7 -51 -19 q -54 28 -67 6 l 853 1413 q 875 1435 864 1429 q 906 1442 886 1442 q 932 1434 924 1442 q 942 1404 940 1426 l 1018 19 q 1011 -10 1019 0 q 981 -19 1003 -19 q 954 -12 961 -19 q 946 14 947 -4 l 922 431 l 297 431 l 24 13 q 0 -13 10 -7 q -29 -19 -10 -19 m 343 500 l 919 500 l 876 1324 l 343 500 m 751 1611 q 731 1620 735 1611 q 732 1646 728 1629 q 747 1674 738 1664 q 771 1683 756 1683 l 1151 1683 q 1172 1673 1168 1683 q 1171 1646 1175 1663 q 1157 1619 1165 1628 q 1132 1611 1149 1611 l 751 1611 m 0 -712 l 1178 -712 l 1178 -726 l 0 -726 l 0 -712 m 0 28 l 1178 28 l 1178 0 l 0 0 l 0 28 m 0 701 l 1178 701 l 1178 694 l 0 694 l 0 701 m 0 1435 l 1178 1435 l 1178 1421 l 0 1421 l 0 1435 z "},"Ą":{"ha":1178,"x_min":-67,"x_max":1178,"o":"m -29 -19 q -59 -7 -51 -19 q -54 28 -67 6 l 853 1413 q 875 1435 864 1429 q 906 1442 886 1442 q 932 1434 924 1442 q 942 1404 940 1426 l 1018 19 q 1011 -10 1019 0 q 981 -19 1003 -19 q 954 -12 961 -19 q 946 14 947 -4 l 922 431 l 297 431 l 24 13 q 0 -13 10 -7 q -29 -19 -10 -19 m 343 500 l 919 500 l 876 1324 l 343 500 m 790 -365 q 724 -341 749 -365 q 699 -276 699 -317 q 717 -207 699 -242 q 768 -137 735 -172 q 849 -64 801 -101 q 957 17 897 -26 l 1015 11 l 1015 6 q 921 -67 964 -31 q 846 -136 878 -103 q 796 -199 814 -169 q 778 -256 778 -229 q 788 -287 778 -275 q 817 -300 797 -300 q 876 -280 846 -300 q 942 -224 907 -260 q 959 -214 949 -215 q 981 -224 969 -212 q 990 -241 989 -232 q 982 -260 990 -250 q 926 -315 958 -292 q 860 -352 894 -339 q 790 -365 826 -365 m 0 -712 l 1178 -712 l 1178 -726 l 0 -726 l 0 -712 m 0 28 l 1178 28 l 1178 0 l 0 0 l 0 28 m 0 701 l 1178 701 l 1178 694 l 0 694 l 0 701 m 0 1435 l 1178 1435 l 1178 1421 l 0 1421 l 0 1435 z "},"Å":{"ha":1178,"x_min":-67,"x_max":1178,"o":"m -29 -19 q -59 -7 -51 -19 q -54 28 -67 6 l 853 1413 q 875 1435 864 1429 q 906 1442 886 1442 q 932 1434 924 1442 q 942 1404 940 1426 l 1018 19 q 1011 -10 1019 0 q 981 -19 1003 -19 q 954 -12 961 -19 q 946 14 947 -4 l 922 431 l 297 431 l 24 13 q 0 -13 10 -7 q -29 -19 -10 -19 m 343 500 l 919 500 l 876 1324 l 343 500 m 931 1497 q 853 1514 889 1497 q 797 1563 818 1531 q 775 1639 775 1594 q 801 1731 775 1690 q 872 1796 826 1772 q 979 1819 918 1819 q 1058 1803 1022 1819 q 1116 1757 1094 1788 q 1138 1681 1138 1726 q 1112 1587 1138 1628 q 1040 1522 1086 1546 q 931 1497 993 1497 m 933 1558 q 1031 1593 996 1558 q 1067 1679 1067 1628 q 1040 1740 1067 1721 q 978 1760 1014 1760 q 880 1725 914 1760 q 846 1640 846 1690 q 873 1579 846 1600 q 933 1558 900 1558 m 0 -712 l 1178 -712 l 1178 -726 l 0 -726 l 0 -712 m 0 28 l 1178 28 l 1178 0 l 0 0 l 0 28 m 0 701 l 1178 701 l 1178 694 l 0 694 l 0 701 m 0 1435 l 1178 1435 l 1178 1421 l 0 1421 l 0 1435 z "},"Ã":{"ha":1178,"x_min":-67,"x_max":1215,"o":"m -29 -19 q -59 -7 -51 -19 q -54 28 -67 6 l 853 1413 q 875 1435 864 1429 q 906 1442 886 1442 q 932 1434 924 1442 q 942 1404 940 1426 l 1018 19 q 1011 -10 1019 0 q 981 -19 1003 -19 q 954 -12 961 -19 q 946 14 947 -4 l 922 431 l 297 431 l 24 13 q 0 -13 10 -7 q -29 -19 -10 -19 m 343 500 l 919 500 l 876 1324 l 343 500 m 718 1557 q 692 1588 688 1557 q 736 1708 704 1668 q 825 1747 768 1747 q 900 1730 865 1747 q 965 1690 935 1713 q 1024 1649 996 1667 q 1081 1632 1053 1632 q 1122 1653 1106 1632 q 1147 1721 1138 1675 q 1186 1750 1153 1750 q 1209 1743 1203 1750 q 1213 1719 1215 1736 q 1167 1601 1199 1640 q 1076 1561 1136 1561 q 1002 1578 1036 1561 q 938 1619 968 1596 q 878 1659 907 1642 q 822 1676 850 1676 q 781 1655 797 1676 q 754 1585 765 1633 q 744 1564 753 1571 q 718 1557 735 1557 m 0 -712 l 1178 -712 l 1178 -726 l 0 -726 l 0 -712 m 0 28 l 1178 28 l 1178 0 l 0 0 l 0 28 m 0 701 l 1178 701 l 1178 694 l 0 694 l 0 701 m 0 1435 l 1178 1435 l 1178 1421 l 0 1421 l 0 1435 z "},"Ắ":{"ha":1178,"x_min":-67,"x_max":1215,"o":"m -29 -19 q -59 -7 -51 -19 q -54 28 -67 6 l 853 1413 q 875 1435 864 1429 q 906 1442 886 1442 q 932 1434 924 1442 q 942 1404 940 1426 l 1018 19 q 1011 -10 1019 0 q 981 -19 1003 -19 q 954 -12 961 -19 q 946 14 947 -4 l 922 431 l 297 431 l 24 13 q 0 -13 10 -7 q -29 -19 -10 -19 m 343 500 l 919 500 l 876 1324 l 343 500 m 922 1514 q 774 1574 822 1514 q 742 1753 726 1635 q 753 1774 744 1767 q 776 1781 761 1781 q 799 1774 792 1781 q 807 1753 807 1767 q 831 1631 799 1671 q 929 1590 863 1590 q 1064 1633 1007 1590 q 1144 1751 1121 1675 q 1160 1774 1151 1768 q 1183 1781 1168 1781 q 1208 1772 1200 1781 q 1211 1750 1215 1764 q 1147 1616 1188 1668 q 1049 1539 1106 1564 q 922 1514 993 1514 m 906 1765 q 883 1778 896 1765 q 871 1799 871 1790 q 872 1807 871 1803 q 879 1817 874 1811 l 1114 2021 q 1125 2030 1121 2026 q 1136 2033 1129 2033 q 1155 2026 1144 2033 q 1172 2008 1165 2019 q 1179 1989 1179 1997 q 1178 1978 1179 1983 q 1169 1967 1176 1974 l 925 1776 q 914 1768 918 1771 q 906 1765 910 1765 m 0 -712 l 1178 -712 l 1178 -726 l 0 -726 l 0 -712 m 0 28 l 1178 28 l 1178 0 l 0 0 l 0 28 m 0 701 l 1178 701 l 1178 694 l 0 694 l 0 701 m 0 1435 l 1178 1435 l 1178 1421 l 0 1421 l 0 1435 z "},"Ặ":{"ha":1178,"x_min":-67,"x_max":1215,"o":"m -29 -19 q -59 -7 -51 -19 q -54 28 -67 6 l 853 1413 q 875 1435 864 1429 q 906 1442 886 1442 q 932 1434 924 1442 q 942 1404 940 1426 l 1018 19 q 1011 -10 1019 0 q 981 -19 1003 -19 q 954 -12 961 -19 q 946 14 947 -4 l 922 431 l 297 431 l 24 13 q 0 -13 10 -7 q -29 -19 -10 -19 m 343 500 l 919 500 l 876 1324 l 343 500 m 386 -304 q 347 -292 363 -304 q 331 -254 331 -279 q 351 -194 331 -221 q 410 -167 372 -167 q 451 -179 435 -167 q 467 -217 467 -192 q 447 -277 467 -250 q 386 -304 426 -304 m 922 1514 q 774 1574 822 1514 q 742 1753 726 1635 q 753 1774 744 1767 q 776 1781 761 1781 q 799 1774 792 1781 q 807 1753 807 1767 q 831 1631 799 1671 q 929 1590 863 1590 q 1064 1633 1007 1590 q 1144 1751 1121 1675 q 1160 1774 1151 1768 q 1183 1781 1168 1781 q 1208 1772 1200 1781 q 1211 1750 1215 1764 q 1147 1616 1188 1668 q 1049 1539 1106 1564 q 922 1514 993 1514 m 0 -712 l 1178 -712 l 1178 -726 l 0 -726 l 0 -712 m 0 28 l 1178 28 l 1178 0 l 0 0 l 0 28 m 0 701 l 1178 701 l 1178 694 l 0 694 l 0 701 m 0 1435 l 1178 1435 l 1178 1421 l 0 1421 l 0 1435 z "},"Ằ":{"ha":1178,"x_min":-67,"x_max":1215,"o":"m -29 -19 q -59 -7 -51 -19 q -54 28 -67 6 l 853 1413 q 875 1435 864 1429 q 906 1442 886 1442 q 932 1434 924 1442 q 942 1404 940 1426 l 1018 19 q 1011 -10 1019 0 q 981 -19 1003 -19 q 954 -12 961 -19 q 946 14 947 -4 l 922 431 l 297 431 l 24 13 q 0 -13 10 -7 q -29 -19 -10 -19 m 343 500 l 919 500 l 876 1324 l 343 500 m 922 1514 q 774 1574 822 1514 q 742 1753 726 1635 q 753 1774 744 1767 q 776 1781 761 1781 q 799 1774 792 1781 q 807 1753 807 1767 q 831 1631 799 1671 q 929 1590 863 1590 q 1064 1633 1007 1590 q 1144 1751 1121 1675 q 1160 1774 1151 1768 q 1183 1781 1168 1781 q 1208 1772 1200 1781 q 1211 1750 1215 1764 q 1147 1616 1188 1668 q 1049 1539 1106 1564 q 922 1514 993 1514 m 1065 1764 q 1056 1767 1060 1764 q 1046 1775 1051 1769 l 832 1965 q 822 1976 824 1972 q 821 1986 821 1981 q 828 2006 821 1996 q 847 2024 836 2017 q 867 2032 858 2032 q 878 2029 874 2032 q 888 2019 882 2026 l 1092 1815 q 1099 1806 1097 1810 q 1100 1799 1100 1801 q 1088 1776 1100 1789 q 1065 1764 1075 1764 m 0 -712 l 1178 -712 l 1178 -726 l 0 -726 l 0 -712 m 0 28 l 1178 28 l 1178 0 l 0 0 l 0 28 m 0 701 l 1178 701 l 1178 694 l 0 694 l 0 701 m 0 1435 l 1178 1435 l 1178 1421 l 0 1421 l 0 1435 z "},"Ẳ":{"ha":1178,"x_min":-67,"x_max":1215,"o":"m -29 -19 q -59 -7 -51 -19 q -54 28 -67 6 l 853 1413 q 875 1435 864 1429 q 906 1442 886 1442 q 932 1434 924 1442 q 942 1404 940 1426 l 1018 19 q 1011 -10 1019 0 q 981 -19 1003 -19 q 954 -12 961 -19 q 946 14 947 -4 l 922 431 l 297 431 l 24 13 q 0 -13 10 -7 q -29 -19 -10 -19 m 343 500 l 919 500 l 876 1324 l 343 500 m 922 1514 q 774 1574 822 1514 q 742 1753 726 1635 q 753 1774 744 1767 q 776 1781 761 1781 q 799 1774 792 1781 q 807 1753 807 1767 q 831 1631 799 1671 q 929 1590 863 1590 q 1064 1633 1007 1590 q 1144 1751 1121 1675 q 1160 1774 1151 1768 q 1183 1781 1168 1781 q 1208 1772 1200 1781 q 1211 1750 1215 1764 q 1147 1616 1188 1668 q 1049 1539 1106 1564 q 922 1514 993 1514 m 1019 2035 q 1109 2008 1078 2035 q 1140 1939 1140 1981 q 1119 1876 1140 1904 q 1056 1822 1099 1847 q 1019 1792 1029 1808 q 1008 1760 1008 1776 l 1007 1738 q 997 1718 1007 1724 q 975 1713 988 1713 q 953 1718 963 1713 q 942 1735 943 1724 l 940 1764 q 957 1825 940 1800 q 1004 1868 974 1850 q 1046 1899 1032 1883 q 1060 1931 1060 1914 q 1046 1958 1060 1949 q 1004 1968 1032 1968 q 958 1962 981 1968 q 913 1943 936 1956 q 872 1956 888 1928 q 888 1999 863 1982 q 949 2025 915 2015 q 1019 2035 983 2035 m 0 -712 l 1178 -712 l 1178 -726 l 0 -726 l 0 -712 m 0 28 l 1178 28 l 1178 0 l 0 0 l 0 28 m 0 701 l 1178 701 l 1178 694 l 0 694 l 0 701 m 0 1435 l 1178 1435 l 1178 1421 l 0 1421 l 0 1435 z "},"Ẵ":{"ha":1178,"x_min":-67,"x_max":1275,"o":"m -29 -19 q -59 -7 -51 -19 q -54 28 -67 6 l 853 1413 q 875 1435 864 1429 q 906 1442 886 1442 q 932 1434 924 1442 q 942 1404 940 1426 l 1018 19 q 1011 -10 1019 0 q 981 -19 1003 -19 q 954 -12 961 -19 q 946 14 947 -4 l 922 431 l 297 431 l 24 13 q 0 -13 10 -7 q -29 -19 -10 -19 m 343 500 l 919 500 l 876 1324 l 343 500 m 922 1514 q 774 1574 822 1514 q 742 1753 726 1635 q 753 1774 744 1767 q 776 1781 761 1781 q 799 1774 792 1781 q 807 1753 807 1767 q 831 1631 799 1671 q 929 1590 863 1590 q 1064 1633 1007 1590 q 1144 1751 1121 1675 q 1160 1774 1151 1768 q 1183 1781 1168 1781 q 1208 1772 1200 1781 q 1211 1750 1215 1764 q 1147 1616 1188 1668 q 1049 1539 1106 1564 q 922 1514 993 1514 m 778 1836 q 751 1867 747 1836 q 796 1985 764 1946 q 885 2025 828 2025 q 960 2008 925 2025 q 1025 1968 994 1990 q 1084 1928 1056 1946 q 1140 1911 1113 1911 q 1181 1933 1165 1911 q 1207 2000 1197 1954 q 1246 2029 1213 2029 q 1269 2022 1263 2029 q 1272 1999 1275 2015 q 1227 1880 1258 1919 q 1136 1840 1196 1840 q 1062 1858 1096 1840 q 997 1898 1028 1875 q 938 1938 967 1921 q 882 1956 910 1956 q 841 1934 857 1956 q 814 1864 825 1913 q 803 1843 813 1850 q 778 1836 794 1836 m 0 -712 l 1178 -712 l 1178 -726 l 0 -726 l 0 -712 m 0 28 l 1178 28 l 1178 0 l 0 0 l 0 28 m 0 701 l 1178 701 l 1178 694 l 0 694 l 0 701 m 0 1435 l 1178 1435 l 1178 1421 l 0 1421 l 0 1435 z "},"Ấ":{"ha":1178,"x_min":-67,"x_max":1419,"o":"m -29 -19 q -59 -7 -51 -19 q -54 28 -67 6 l 853 1413 q 875 1435 864 1429 q 906 1442 886 1442 q 932 1434 924 1442 q 942 1404 940 1426 l 1018 19 q 1011 -10 1019 0 q 981 -19 1003 -19 q 954 -12 961 -19 q 946 14 947 -4 l 922 431 l 297 431 l 24 13 q 0 -13 10 -7 q -29 -19 -10 -19 m 343 500 l 919 500 l 876 1324 l 343 500 m 707 1513 q 686 1522 694 1513 q 678 1542 678 1532 q 681 1555 678 1550 q 689 1565 683 1560 l 942 1758 q 965 1774 956 1769 q 985 1778 974 1778 q 1003 1773 994 1778 q 1018 1757 1011 1768 l 1175 1563 q 1181 1551 1179 1557 q 1183 1540 1183 1546 q 1172 1520 1183 1528 q 1150 1513 1160 1513 q 1135 1516 1142 1513 q 1124 1526 1129 1519 l 971 1686 l 738 1525 q 721 1515 728 1518 q 707 1513 714 1513 m 1172 1722 q 1149 1734 1161 1722 q 1138 1756 1138 1746 q 1139 1764 1138 1760 q 1146 1774 1140 1768 l 1354 1960 q 1364 1969 1360 1965 q 1375 1972 1368 1972 q 1395 1965 1385 1972 q 1413 1947 1406 1957 q 1419 1928 1419 1936 q 1418 1917 1419 1921 q 1408 1907 1417 1913 l 1192 1733 q 1181 1725 1185 1728 q 1172 1722 1176 1722 m 0 -712 l 1178 -712 l 1178 -726 l 0 -726 l 0 -712 m 0 28 l 1178 28 l 1178 0 l 0 0 l 0 28 m 0 701 l 1178 701 l 1178 694 l 0 694 l 0 701 m 0 1435 l 1178 1435 l 1178 1421 l 0 1421 l 0 1435 z "},"Ậ":{"ha":1178,"x_min":-67,"x_max":1183,"o":"m -29 -19 q -59 -7 -51 -19 q -54 28 -67 6 l 853 1413 q 875 1435 864 1429 q 906 1442 886 1442 q 932 1434 924 1442 q 942 1404 940 1426 l 1018 19 q 1011 -10 1019 0 q 981 -19 1003 -19 q 954 -12 961 -19 q 946 14 947 -4 l 922 431 l 297 431 l 24 13 q 0 -13 10 -7 q -29 -19 -10 -19 m 343 500 l 919 500 l 876 1324 l 343 500 m 386 -304 q 347 -292 363 -304 q 331 -254 331 -279 q 351 -194 331 -221 q 410 -167 372 -167 q 451 -179 435 -167 q 467 -217 467 -192 q 447 -277 467 -250 q 386 -304 426 -304 m 707 1513 q 686 1522 694 1513 q 678 1542 678 1532 q 681 1555 678 1550 q 689 1565 683 1560 l 942 1758 q 965 1774 956 1769 q 985 1778 974 1778 q 1003 1773 994 1778 q 1018 1757 1011 1768 l 1175 1563 q 1181 1551 1179 1557 q 1183 1540 1183 1546 q 1172 1520 1183 1528 q 1150 1513 1160 1513 q 1135 1516 1142 1513 q 1124 1526 1129 1519 l 971 1686 l 738 1525 q 721 1515 728 1518 q 707 1513 714 1513 m 0 -712 l 1178 -712 l 1178 -726 l 0 -726 l 0 -712 m 0 28 l 1178 28 l 1178 0 l 0 0 l 0 28 m 0 701 l 1178 701 l 1178 694 l 0 694 l 0 701 m 0 1435 l 1178 1435 l 1178 1421 l 0 1421 l 0 1435 z "},"Ầ":{"ha":1178,"x_min":-67,"x_max":1299,"o":"m -29 -19 q -59 -7 -51 -19 q -54 28 -67 6 l 853 1413 q 875 1435 864 1429 q 906 1442 886 1442 q 932 1434 924 1442 q 942 1404 940 1426 l 1018 19 q 1011 -10 1019 0 q 981 -19 1003 -19 q 954 -12 961 -19 q 946 14 947 -4 l 922 431 l 297 431 l 24 13 q 0 -13 10 -7 q -29 -19 -10 -19 m 343 500 l 919 500 l 876 1324 l 343 500 m 707 1513 q 686 1522 694 1513 q 678 1542 678 1532 q 681 1555 678 1550 q 689 1565 683 1560 l 942 1758 q 965 1774 956 1769 q 985 1778 974 1778 q 1003 1773 994 1778 q 1018 1757 1011 1768 l 1175 1563 q 1181 1551 1179 1557 q 1183 1540 1183 1546 q 1172 1520 1183 1528 q 1150 1513 1160 1513 q 1135 1516 1142 1513 q 1124 1526 1129 1519 l 971 1686 l 738 1525 q 721 1515 728 1518 q 707 1513 714 1513 m 1263 1696 q 1253 1698 1258 1696 q 1243 1706 1249 1700 l 1053 1914 q 1045 1925 1047 1921 q 1043 1935 1043 1929 q 1051 1955 1043 1944 q 1069 1973 1058 1965 q 1090 1981 1079 1981 q 1101 1977 1096 1981 q 1111 1968 1106 1974 l 1290 1749 q 1297 1739 1296 1743 q 1299 1731 1299 1735 q 1286 1708 1299 1719 q 1263 1696 1274 1696 m 0 -712 l 1178 -712 l 1178 -726 l 0 -726 l 0 -712 m 0 28 l 1178 28 l 1178 0 l 0 0 l 0 28 m 0 701 l 1178 701 l 1178 694 l 0 694 l 0 701 m 0 1435 l 1178 1435 l 1178 1421 l 0 1421 l 0 1435 z "},"Ẩ":{"ha":1178,"x_min":-67,"x_max":1363,"o":"m -29 -19 q -59 -7 -51 -19 q -54 28 -67 6 l 853 1413 q 875 1435 864 1429 q 906 1442 886 1442 q 932 1434 924 1442 q 942 1404 940 1426 l 1018 19 q 1011 -10 1019 0 q 981 -19 1003 -19 q 954 -12 961 -19 q 946 14 947 -4 l 922 431 l 297 431 l 24 13 q 0 -13 10 -7 q -29 -19 -10 -19 m 343 500 l 919 500 l 876 1324 l 343 500 m 707 1513 q 686 1522 694 1513 q 678 1542 678 1532 q 681 1555 678 1550 q 689 1565 683 1560 l 942 1758 q 965 1774 956 1769 q 985 1778 974 1778 q 1003 1773 994 1778 q 1018 1757 1011 1768 l 1175 1563 q 1181 1551 1179 1557 q 1183 1540 1183 1546 q 1172 1520 1183 1528 q 1150 1513 1160 1513 q 1135 1516 1142 1513 q 1124 1526 1129 1519 l 971 1686 l 738 1525 q 721 1515 728 1518 q 707 1513 714 1513 m 1242 1976 q 1331 1949 1299 1976 q 1363 1881 1363 1922 q 1341 1818 1363 1846 q 1276 1764 1319 1790 q 1241 1734 1251 1750 q 1231 1701 1231 1718 l 1229 1679 q 1219 1660 1229 1667 q 1197 1654 1210 1654 q 1174 1660 1183 1654 q 1164 1676 1164 1667 l 1163 1706 q 1178 1767 1161 1743 q 1225 1810 1196 1792 q 1268 1842 1254 1826 q 1282 1872 1282 1857 q 1267 1900 1282 1890 q 1226 1910 1253 1910 q 1181 1903 1203 1910 q 1135 1885 1158 1897 q 1094 1899 1108 1869 q 1110 1940 1083 1925 q 1170 1967 1136 1957 q 1242 1976 1204 1976 m 0 -712 l 1178 -712 l 1178 -726 l 0 -726 l 0 -712 m 0 28 l 1178 28 l 1178 0 l 0 0 l 0 28 m 0 701 l 1178 701 l 1178 694 l 0 694 l 0 701 m 0 1435 l 1178 1435 l 1178 1421 l 0 1421 l 0 1435 z "},"Ẫ":{"ha":1178,"x_min":-67,"x_max":1281,"o":"m -29 -19 q -59 -7 -51 -19 q -54 28 -67 6 l 853 1413 q 875 1435 864 1429 q 906 1442 886 1442 q 932 1434 924 1442 q 942 1404 940 1426 l 1018 19 q 1011 -10 1019 0 q 981 -19 1003 -19 q 954 -12 961 -19 q 946 14 947 -4 l 922 431 l 297 431 l 24 13 q 0 -13 10 -7 q -29 -19 -10 -19 m 343 500 l 919 500 l 876 1324 l 343 500 m 707 1513 q 686 1522 694 1513 q 678 1542 678 1532 q 681 1555 678 1550 q 689 1565 683 1560 l 942 1758 q 965 1774 956 1769 q 985 1778 974 1778 q 1003 1773 994 1778 q 1018 1757 1011 1768 l 1175 1563 q 1181 1551 1179 1557 q 1183 1540 1183 1546 q 1172 1520 1183 1528 q 1150 1513 1160 1513 q 1135 1516 1142 1513 q 1124 1526 1129 1519 l 971 1686 l 738 1525 q 721 1515 728 1518 q 707 1513 714 1513 m 783 1800 q 756 1831 753 1800 q 801 1951 769 1911 q 890 1990 833 1990 q 965 1973 931 1990 q 1031 1933 1000 1956 q 1090 1892 1061 1910 q 1146 1875 1118 1875 q 1186 1897 1171 1875 q 1213 1964 1201 1918 q 1250 1993 1217 1993 q 1274 1986 1268 1993 q 1278 1963 1281 1979 q 1233 1844 1264 1883 q 1142 1804 1201 1804 q 1067 1822 1101 1804 q 1003 1863 1033 1840 q 944 1902 972 1885 q 888 1919 915 1919 q 847 1898 863 1919 q 819 1828 831 1876 q 808 1807 817 1814 q 783 1800 800 1800 m 0 -712 l 1178 -712 l 1178 -726 l 0 -726 l 0 -712 m 0 28 l 1178 28 l 1178 0 l 0 0 l 0 28 m 0 701 l 1178 701 l 1178 694 l 0 694 l 0 701 m 0 1435 l 1178 1435 l 1178 1421 l 0 1421 l 0 1435 z "},"Ạ":{"ha":1178,"x_min":-67,"x_max":1178,"o":"m -29 -19 q -59 -7 -51 -19 q -54 28 -67 6 l 853 1413 q 875 1435 864 1429 q 906 1442 886 1442 q 932 1434 924 1442 q 942 1404 940 1426 l 1018 19 q 1011 -10 1019 0 q 981 -19 1003 -19 q 954 -12 961 -19 q 946 14 947 -4 l 922 431 l 297 431 l 24 13 q 0 -13 10 -7 q -29 -19 -10 -19 m 343 500 l 919 500 l 876 1324 l 343 500 m 386 -304 q 347 -292 363 -304 q 331 -254 331 -279 q 351 -194 331 -221 q 410 -167 372 -167 q 451 -179 435 -167 q 467 -217 467 -192 q 447 -277 467 -250 q 386 -304 426 -304 m 0 -712 l 1178 -712 l 1178 -726 l 0 -726 l 0 -712 m 0 28 l 1178 28 l 1178 0 l 0 0 l 0 28 m 0 701 l 1178 701 l 1178 694 l 0 694 l 0 701 m 0 1435 l 1178 1435 l 1178 1421 l 0 1421 l 0 1435 z "},"Ả":{"ha":1178,"x_min":-67,"x_max":1178,"o":"m -29 -19 q -59 -7 -51 -19 q -54 28 -67 6 l 853 1413 q 875 1435 864 1429 q 906 1442 886 1442 q 932 1434 924 1442 q 942 1404 940 1426 l 1018 19 q 1011 -10 1019 0 q 981 -19 1003 -19 q 954 -12 961 -19 q 946 14 947 -4 l 922 431 l 297 431 l 24 13 q 0 -13 10 -7 q -29 -19 -10 -19 m 343 500 l 919 500 l 876 1324 l 343 500 m 969 1819 q 1059 1792 1028 1819 q 1090 1724 1090 1765 q 1069 1660 1090 1689 q 1006 1607 1047 1632 q 969 1577 979 1593 q 958 1544 958 1561 l 957 1522 q 947 1503 957 1508 q 925 1497 938 1497 q 903 1503 913 1497 q 892 1519 893 1508 l 890 1549 q 906 1610 889 1585 q 953 1653 924 1635 q 996 1683 982 1668 q 1010 1715 1010 1699 q 996 1743 1010 1733 q 954 1753 982 1753 q 908 1747 931 1753 q 863 1728 886 1740 q 822 1742 838 1713 q 838 1783 811 1767 q 899 1810 865 1800 q 969 1819 932 1819 m 0 -712 l 1178 -712 l 1178 -726 l 0 -726 l 0 -712 m 0 28 l 1178 28 l 1178 0 l 0 0 l 0 28 m 0 701 l 1178 701 l 1178 694 l 0 694 l 0 701 m 0 1435 l 1178 1435 l 1178 1421 l 0 1421 l 0 1435 z "},"Ć":{"ha":1217,"x_min":0,"x_max":1401,"o":"m 635 -29 q 463 4 539 -29 q 333 101 388 38 q 251 255 279 164 q 222 463 222 346 q 247 683 222 569 q 319 907 271 797 q 436 1113 367 1017 q 595 1284 506 1210 q 794 1400 685 1358 q 1031 1442 903 1442 q 1180 1423 1111 1442 q 1303 1367 1249 1404 q 1393 1276 1357 1331 q 1397 1253 1401 1264 q 1375 1233 1392 1243 q 1353 1227 1361 1225 q 1328 1246 1344 1229 q 1245 1315 1290 1288 q 1144 1355 1200 1342 q 1021 1368 1089 1368 q 817 1330 913 1368 q 642 1224 722 1292 q 499 1068 563 1156 q 392 879 436 981 q 326 673 349 778 q 304 468 304 568 q 326 288 304 367 q 392 156 349 210 q 499 74 436 101 q 643 46 563 46 q 771 67 710 46 q 890 126 832 88 q 1002 215 947 164 q 1110 326 1057 265 q 1131 338 1121 339 q 1154 325 1142 336 q 1167 303 1167 314 q 1157 278 1168 292 q 988 109 1075 176 q 812 6 901 42 q 635 -29 722 -29 m 982 1513 q 960 1525 972 1513 q 949 1547 949 1538 q 949 1554 949 1550 q 956 1564 950 1558 l 1190 1768 q 1201 1777 1197 1774 q 1213 1781 1206 1781 q 1233 1774 1222 1781 q 1250 1756 1243 1767 q 1257 1736 1257 1744 q 1255 1726 1257 1731 q 1246 1715 1253 1721 l 1001 1524 q 991 1516 994 1519 q 982 1513 988 1513 m 0 -712 l 1217 -712 l 1217 -726 l 0 -726 l 0 -712 m 0 28 l 1217 28 l 1217 0 l 0 0 l 0 28 m 0 701 l 1217 701 l 1217 694 l 0 694 l 0 701 m 0 1435 l 1217 1435 l 1217 1421 l 0 1421 l 0 1435 z "},"Č":{"ha":1217,"x_min":0,"x_max":1401,"o":"m 635 -29 q 463 4 539 -29 q 333 101 388 38 q 251 255 279 164 q 222 463 222 346 q 247 683 222 569 q 319 907 271 797 q 436 1113 367 1017 q 595 1284 506 1210 q 794 1400 685 1358 q 1031 1442 903 1442 q 1180 1423 1111 1442 q 1303 1367 1249 1404 q 1393 1276 1357 1331 q 1397 1253 1401 1264 q 1375 1233 1392 1243 q 1353 1227 1361 1225 q 1328 1246 1344 1229 q 1245 1315 1290 1288 q 1144 1355 1200 1342 q 1021 1368 1089 1368 q 817 1330 913 1368 q 642 1224 722 1292 q 499 1068 563 1156 q 392 879 436 981 q 326 673 349 778 q 304 468 304 568 q 326 288 304 367 q 392 156 349 210 q 499 74 436 101 q 643 46 563 46 q 771 67 710 46 q 890 126 832 88 q 1002 215 947 164 q 1110 326 1057 265 q 1131 338 1121 339 q 1154 325 1142 336 q 1167 303 1167 314 q 1157 278 1168 292 q 988 109 1075 176 q 812 6 901 42 q 635 -29 722 -29 m 1322 1779 q 1344 1769 1335 1779 q 1353 1749 1353 1758 q 1350 1735 1353 1740 q 1340 1725 1347 1731 l 1088 1532 q 1065 1518 1075 1522 q 1044 1514 1056 1514 q 1027 1519 1035 1514 q 1011 1533 1019 1524 l 854 1729 q 848 1740 850 1735 q 846 1751 846 1746 q 858 1772 846 1764 q 881 1779 871 1779 q 895 1775 890 1779 q 906 1765 900 1771 l 1058 1604 l 1293 1764 q 1308 1775 1303 1771 q 1322 1779 1314 1779 m 0 -712 l 1217 -712 l 1217 -726 l 0 -726 l 0 -712 m 0 28 l 1217 28 l 1217 0 l 0 0 l 0 28 m 0 701 l 1217 701 l 1217 694 l 0 694 l 0 701 m 0 1435 l 1217 1435 l 1217 1421 l 0 1421 l 0 1435 z "},"Ç":{"ha":1217,"x_min":0,"x_max":1401,"o":"m 635 -29 q 463 4 539 -29 q 333 101 388 38 q 251 255 279 164 q 222 463 222 346 q 247 683 222 569 q 319 907 271 797 q 436 1113 367 1017 q 595 1284 506 1210 q 794 1400 685 1358 q 1031 1442 903 1442 q 1180 1423 1111 1442 q 1303 1367 1249 1404 q 1393 1276 1357 1331 q 1397 1253 1401 1264 q 1375 1233 1392 1243 q 1353 1227 1361 1225 q 1328 1246 1344 1229 q 1245 1315 1290 1288 q 1144 1355 1200 1342 q 1021 1368 1089 1368 q 817 1330 913 1368 q 642 1224 722 1292 q 499 1068 563 1156 q 392 879 436 981 q 326 673 349 778 q 304 468 304 568 q 326 288 304 367 q 392 156 349 210 q 499 74 436 101 q 643 46 563 46 q 771 67 710 46 q 890 126 832 88 q 1002 215 947 164 q 1110 326 1057 265 q 1131 338 1121 339 q 1154 325 1142 336 q 1167 303 1167 314 q 1157 278 1168 292 q 988 109 1075 176 q 812 6 901 42 q 635 -29 722 -29 m 496 -367 q 427 -359 464 -367 q 365 -333 390 -351 q 356 -313 356 -325 q 363 -292 357 -301 q 381 -276 372 -279 q 400 -278 389 -274 q 445 -294 419 -287 q 503 -301 471 -301 q 569 -285 546 -301 q 593 -233 593 -268 q 568 -186 593 -199 q 493 -181 543 -174 q 476 -178 482 -182 q 467 -168 471 -175 q 465 -151 464 -158 q 474 -131 465 -143 l 563 6 l 622 6 l 525 -150 l 504 -131 q 594 -126 557 -117 q 651 -162 632 -136 q 671 -228 671 -189 q 649 -302 671 -271 q 588 -350 626 -333 q 496 -367 549 -367 m 0 -712 l 1217 -712 l 1217 -726 l 0 -726 l 0 -712 m 0 28 l 1217 28 l 1217 0 l 0 0 l 0 28 m 0 701 l 1217 701 l 1217 694 l 0 694 l 0 701 m 0 1435 l 1217 1435 l 1217 1421 l 0 1421 l 0 1435 z "},"Ĉ":{"ha":1217,"x_min":0,"x_max":1401,"o":"m 635 -29 q 463 4 539 -29 q 333 101 388 38 q 251 255 279 164 q 222 463 222 346 q 247 683 222 569 q 319 907 271 797 q 436 1113 367 1017 q 595 1284 506 1210 q 794 1400 685 1358 q 1031 1442 903 1442 q 1180 1423 1111 1442 q 1303 1367 1249 1404 q 1393 1276 1357 1331 q 1397 1253 1401 1264 q 1375 1233 1392 1243 q 1353 1227 1361 1225 q 1328 1246 1344 1229 q 1245 1315 1290 1288 q 1144 1355 1200 1342 q 1021 1368 1089 1368 q 817 1330 913 1368 q 642 1224 722 1292 q 499 1068 563 1156 q 392 879 436 981 q 326 673 349 778 q 304 468 304 568 q 326 288 304 367 q 392 156 349 210 q 499 74 436 101 q 643 46 563 46 q 771 67 710 46 q 890 126 832 88 q 1002 215 947 164 q 1110 326 1057 265 q 1131 338 1121 339 q 1154 325 1142 336 q 1167 303 1167 314 q 1157 278 1168 292 q 988 109 1075 176 q 812 6 901 42 q 635 -29 722 -29 m 843 1513 q 822 1522 831 1513 q 814 1542 814 1532 q 817 1555 814 1550 q 825 1565 819 1560 l 1078 1758 q 1101 1774 1092 1769 q 1121 1778 1110 1778 q 1139 1773 1131 1778 q 1154 1757 1147 1768 l 1311 1563 q 1317 1551 1315 1557 q 1319 1540 1319 1546 q 1308 1520 1319 1528 q 1286 1513 1296 1513 q 1272 1516 1278 1513 q 1260 1526 1265 1519 l 1107 1686 l 874 1525 q 857 1515 864 1518 q 843 1513 850 1513 m 0 -712 l 1217 -712 l 1217 -726 l 0 -726 l 0 -712 m 0 28 l 1217 28 l 1217 0 l 0 0 l 0 28 m 0 701 l 1217 701 l 1217 694 l 0 694 l 0 701 m 0 1435 l 1217 1435 l 1217 1421 l 0 1421 l 0 1435 z "},"Ċ":{"ha":1217,"x_min":0,"x_max":1401,"o":"m 635 -29 q 463 4 539 -29 q 333 101 388 38 q 251 255 279 164 q 222 463 222 346 q 247 683 222 569 q 319 907 271 797 q 436 1113 367 1017 q 595 1284 506 1210 q 794 1400 685 1358 q 1031 1442 903 1442 q 1180 1423 1111 1442 q 1303 1367 1249 1404 q 1393 1276 1357 1331 q 1397 1253 1401 1264 q 1375 1233 1392 1243 q 1353 1227 1361 1225 q 1328 1246 1344 1229 q 1245 1315 1290 1288 q 1144 1355 1200 1342 q 1021 1368 1089 1368 q 817 1330 913 1368 q 642 1224 722 1292 q 499 1068 563 1156 q 392 879 436 981 q 326 673 349 778 q 304 468 304 568 q 326 288 304 367 q 392 156 349 210 q 499 74 436 101 q 643 46 563 46 q 771 67 710 46 q 890 126 832 88 q 1002 215 947 164 q 1110 326 1057 265 q 1131 338 1121 339 q 1154 325 1142 336 q 1167 303 1167 314 q 1157 278 1168 292 q 988 109 1075 176 q 812 6 901 42 q 635 -29 722 -29 m 1069 1565 q 1028 1577 1044 1565 q 1013 1614 1013 1589 q 1033 1674 1013 1647 q 1093 1701 1054 1701 q 1133 1689 1117 1701 q 1149 1651 1149 1676 q 1128 1592 1149 1618 q 1069 1565 1108 1565 m 0 -712 l 1217 -712 l 1217 -726 l 0 -726 l 0 -712 m 0 28 l 1217 28 l 1217 0 l 0 0 l 0 28 m 0 701 l 1217 701 l 1217 694 l 0 694 l 0 701 m 0 1435 l 1217 1435 l 1217 1421 l 0 1421 l 0 1435 z "},"Ď":{"ha":1364,"x_min":0,"x_max":1378,"o":"m 154 0 q 125 26 117 0 l 565 1390 q 581 1410 571 1404 q 613 1417 590 1417 l 888 1417 q 1096 1388 1004 1417 q 1250 1303 1188 1360 q 1345 1165 1313 1247 q 1378 975 1378 1082 q 1333 657 1378 806 q 1205 388 1288 508 q 1008 180 1122 267 q 753 47 893 93 q 456 0 613 0 l 154 0 m 215 72 l 456 72 q 724 115 597 72 q 955 237 850 157 q 1135 428 1060 317 q 1253 678 1211 540 q 1294 975 1294 817 q 1267 1138 1294 1068 q 1186 1254 1239 1208 q 1057 1323 1133 1300 q 885 1346 981 1346 l 626 1346 l 215 72 m 1267 1779 q 1288 1769 1279 1779 q 1297 1749 1297 1758 q 1294 1735 1297 1740 q 1285 1725 1292 1731 l 1033 1532 q 1010 1518 1019 1522 q 990 1514 1001 1514 q 973 1519 981 1514 q 957 1533 965 1524 l 799 1729 q 794 1740 796 1735 q 792 1751 792 1746 q 804 1772 792 1764 q 825 1779 817 1779 q 840 1775 835 1779 q 851 1765 846 1771 l 1003 1604 l 1238 1764 q 1254 1775 1249 1771 q 1267 1779 1260 1779 m 0 -712 l 1364 -712 l 1364 -726 l 0 -726 l 0 -712 m 0 28 l 1364 28 l 1364 0 l 0 0 l 0 28 m 0 701 l 1364 701 l 1364 694 l 0 694 l 0 701 m 0 1435 l 1364 1435 l 1364 1421 l 0 1421 l 0 1435 z "},"Đ":{"ha":1364,"x_min":0,"x_max":1378,"o":"m 154 0 q 125 26 117 0 l 565 1390 q 581 1410 571 1404 q 613 1417 590 1417 l 888 1417 q 1096 1388 1004 1417 q 1250 1303 1188 1360 q 1345 1165 1313 1247 q 1378 975 1378 1082 q 1333 657 1378 806 q 1205 388 1288 508 q 1008 180 1122 267 q 753 47 893 93 q 456 0 613 0 l 154 0 m 215 72 l 456 72 q 724 115 597 72 q 955 237 850 157 q 1135 428 1060 317 q 1253 678 1211 540 q 1294 975 1294 817 q 1267 1138 1294 1068 q 1186 1254 1239 1208 q 1057 1323 1133 1300 q 885 1346 981 1346 l 626 1346 l 215 72 m 176 678 q 156 687 158 678 q 157 711 153 696 q 168 735 161 726 q 193 743 175 743 l 746 743 q 766 733 764 743 q 765 710 768 724 q 753 686 761 694 q 729 678 746 678 l 176 678 m 0 -712 l 1364 -712 l 1364 -726 l 0 -726 l 0 -712 m 0 28 l 1364 28 l 1364 0 l 0 0 l 0 28 m 0 701 l 1364 701 l 1364 694 l 0 694 l 0 701 m 0 1435 l 1364 1435 l 1364 1421 l 0 1421 l 0 1435 z "},"É":{"ha":1039,"x_min":0,"x_max":1306,"o":"m 158 0 q 131 8 139 0 q 126 32 122 15 l 565 1390 q 578 1410 569 1404 q 608 1417 588 1417 l 1285 1417 q 1303 1408 1300 1417 q 1301 1382 1306 1400 q 1288 1356 1296 1364 q 1265 1347 1279 1347 l 626 1347 l 444 783 l 981 783 q 999 775 996 783 q 997 749 1001 767 q 983 722 992 731 q 961 714 974 714 l 422 714 l 215 69 l 849 69 q 866 61 863 69 q 865 35 869 53 q 851 8 860 17 q 829 0 843 0 l 158 0 m 888 1513 q 866 1525 878 1513 q 854 1546 854 1538 q 855 1554 854 1550 q 861 1564 856 1558 l 1096 1768 q 1107 1777 1103 1774 q 1118 1781 1111 1781 q 1138 1774 1128 1781 q 1156 1756 1149 1767 q 1163 1736 1163 1744 q 1160 1726 1163 1731 q 1151 1715 1158 1721 l 907 1524 q 896 1516 900 1519 q 888 1513 892 1513 m 0 -712 l 1039 -712 l 1039 -726 l 0 -726 l 0 -712 m 0 28 l 1039 28 l 1039 0 l 0 0 l 0 28 m 0 701 l 1039 701 l 1039 694 l 0 694 l 0 701 m 0 1435 l 1039 1435 l 1039 1421 l 0 1421 l 0 1435 z "},"Ĕ":{"ha":1039,"x_min":0,"x_max":1306,"o":"m 158 0 q 131 8 139 0 q 126 32 122 15 l 565 1390 q 578 1410 569 1404 q 608 1417 588 1417 l 1285 1417 q 1303 1408 1300 1417 q 1301 1382 1306 1400 q 1288 1356 1296 1364 q 1265 1347 1279 1347 l 626 1347 l 444 783 l 981 783 q 999 775 996 783 q 997 749 1001 767 q 983 722 992 731 q 961 714 974 714 l 422 714 l 215 69 l 849 69 q 866 61 863 69 q 865 35 869 53 q 851 8 860 17 q 829 0 843 0 l 158 0 m 964 1514 q 816 1574 864 1514 q 783 1753 768 1635 q 794 1774 786 1767 q 818 1781 803 1781 q 841 1774 833 1781 q 849 1753 849 1767 q 872 1631 840 1671 q 971 1590 904 1590 q 1106 1633 1049 1590 q 1186 1751 1163 1675 q 1201 1774 1193 1768 q 1225 1781 1210 1781 q 1249 1772 1242 1781 q 1253 1750 1257 1764 q 1188 1616 1229 1668 q 1091 1539 1147 1564 q 964 1514 1035 1514 m 0 -712 l 1039 -712 l 1039 -726 l 0 -726 l 0 -712 m 0 28 l 1039 28 l 1039 0 l 0 0 l 0 28 m 0 701 l 1039 701 l 1039 694 l 0 694 l 0 701 m 0 1435 l 1039 1435 l 1039 1421 l 0 1421 l 0 1435 z "},"Ě":{"ha":1039,"x_min":0,"x_max":1306,"o":"m 158 0 q 131 8 139 0 q 126 32 122 15 l 565 1390 q 578 1410 569 1404 q 608 1417 588 1417 l 1285 1417 q 1303 1408 1300 1417 q 1301 1382 1306 1400 q 1288 1356 1296 1364 q 1265 1347 1279 1347 l 626 1347 l 444 783 l 981 783 q 999 775 996 783 q 997 749 1001 767 q 983 722 992 731 q 961 714 974 714 l 422 714 l 215 69 l 849 69 q 866 61 863 69 q 865 35 869 53 q 851 8 860 17 q 829 0 843 0 l 158 0 m 1228 1779 q 1249 1769 1239 1779 q 1258 1749 1258 1758 q 1256 1735 1258 1740 q 1246 1725 1253 1731 l 993 1532 q 971 1518 981 1522 q 950 1514 961 1514 q 933 1519 940 1514 q 917 1533 925 1524 l 760 1729 q 753 1740 756 1735 q 751 1751 751 1746 q 764 1772 751 1764 q 786 1779 776 1779 q 801 1775 796 1779 q 811 1765 806 1771 l 964 1604 l 1199 1764 q 1214 1775 1208 1771 q 1228 1779 1219 1779 m 0 -712 l 1039 -712 l 1039 -726 l 0 -726 l 0 -712 m 0 28 l 1039 28 l 1039 0 l 0 0 l 0 28 m 0 701 l 1039 701 l 1039 694 l 0 694 l 0 701 m 0 1435 l 1039 1435 l 1039 1421 l 0 1421 l 0 1435 z "},"Ê":{"ha":1039,"x_min":0,"x_max":1306,"o":"m 158 0 q 131 8 139 0 q 126 32 122 15 l 565 1390 q 578 1410 569 1404 q 608 1417 588 1417 l 1285 1417 q 1303 1408 1300 1417 q 1301 1382 1306 1400 q 1288 1356 1296 1364 q 1265 1347 1279 1347 l 626 1347 l 444 783 l 981 783 q 999 775 996 783 q 997 749 1001 767 q 983 722 992 731 q 961 714 974 714 l 422 714 l 215 69 l 849 69 q 866 61 863 69 q 865 35 869 53 q 851 8 860 17 q 829 0 843 0 l 158 0 m 749 1513 q 728 1522 736 1513 q 719 1542 719 1532 q 722 1555 719 1550 q 731 1565 725 1560 l 983 1758 q 1006 1774 997 1769 q 1026 1778 1015 1778 q 1044 1773 1036 1778 q 1060 1757 1053 1768 l 1217 1563 q 1223 1551 1221 1557 q 1225 1540 1225 1546 q 1213 1520 1225 1528 q 1192 1513 1201 1513 q 1177 1516 1183 1513 q 1165 1526 1171 1519 l 1013 1686 l 779 1525 q 763 1515 769 1518 q 749 1513 756 1513 m 0 -712 l 1039 -712 l 1039 -726 l 0 -726 l 0 -712 m 0 28 l 1039 28 l 1039 0 l 0 0 l 0 28 m 0 701 l 1039 701 l 1039 694 l 0 694 l 0 701 m 0 1435 l 1039 1435 l 1039 1421 l 0 1421 l 0 1435 z "},"Ë":{"ha":1039,"x_min":0,"x_max":1306,"o":"m 158 0 q 131 8 139 0 q 126 32 122 15 l 565 1390 q 578 1410 569 1404 q 608 1417 588 1417 l 1285 1417 q 1303 1408 1300 1417 q 1301 1382 1306 1400 q 1288 1356 1296 1364 q 1265 1347 1279 1347 l 626 1347 l 444 783 l 981 783 q 999 775 996 783 q 997 749 1001 767 q 983 722 992 731 q 961 714 974 714 l 422 714 l 215 69 l 849 69 q 866 61 863 69 q 865 35 869 53 q 851 8 860 17 q 829 0 843 0 l 158 0 m 803 1565 q 762 1577 778 1565 q 746 1614 746 1589 q 767 1674 746 1647 q 826 1701 789 1701 q 867 1689 851 1701 q 882 1651 882 1676 q 862 1592 882 1618 q 803 1565 842 1565 m 1144 1565 q 1103 1577 1119 1565 q 1088 1614 1088 1589 q 1109 1674 1088 1647 q 1168 1701 1131 1701 q 1208 1689 1192 1701 q 1225 1651 1225 1676 q 1204 1592 1225 1618 q 1144 1565 1183 1565 m 0 -712 l 1039 -712 l 1039 -726 l 0 -726 l 0 -712 m 0 28 l 1039 28 l 1039 0 l 0 0 l 0 28 m 0 701 l 1039 701 l 1039 694 l 0 694 l 0 701 m 0 1435 l 1039 1435 l 1039 1421 l 0 1421 l 0 1435 z "},"Ė":{"ha":1039,"x_min":0,"x_max":1306,"o":"m 158 0 q 131 8 139 0 q 126 32 122 15 l 565 1390 q 578 1410 569 1404 q 608 1417 588 1417 l 1285 1417 q 1303 1408 1300 1417 q 1301 1382 1306 1400 q 1288 1356 1296 1364 q 1265 1347 1279 1347 l 626 1347 l 444 783 l 981 783 q 999 775 996 783 q 997 749 1001 767 q 983 722 992 731 q 961 714 974 714 l 422 714 l 215 69 l 849 69 q 866 61 863 69 q 865 35 869 53 q 851 8 860 17 q 829 0 843 0 l 158 0 m 975 1565 q 934 1577 950 1565 q 918 1614 918 1589 q 939 1674 918 1647 q 999 1701 960 1701 q 1038 1689 1022 1701 q 1054 1651 1054 1676 q 1034 1592 1054 1618 q 975 1565 1014 1565 m 0 -712 l 1039 -712 l 1039 -726 l 0 -726 l 0 -712 m 0 28 l 1039 28 l 1039 0 l 0 0 l 0 28 m 0 701 l 1039 701 l 1039 694 l 0 694 l 0 701 m 0 1435 l 1039 1435 l 1039 1421 l 0 1421 l 0 1435 z "},"È":{"ha":1039,"x_min":0,"x_max":1306,"o":"m 158 0 q 131 8 139 0 q 126 32 122 15 l 565 1390 q 578 1410 569 1404 q 608 1417 588 1417 l 1285 1417 q 1303 1408 1300 1417 q 1301 1382 1306 1400 q 1288 1356 1296 1364 q 1265 1347 1279 1347 l 626 1347 l 444 783 l 981 783 q 999 775 996 783 q 997 749 1001 767 q 983 722 992 731 q 961 714 974 714 l 422 714 l 215 69 l 849 69 q 866 61 863 69 q 865 35 869 53 q 851 8 860 17 q 829 0 843 0 l 158 0 m 1039 1513 q 1031 1516 1035 1513 q 1019 1524 1026 1519 l 806 1714 q 797 1725 799 1721 q 796 1735 796 1729 q 803 1756 796 1744 q 822 1774 811 1767 q 842 1781 832 1781 q 852 1778 849 1781 q 863 1768 856 1775 l 1067 1564 q 1073 1555 1072 1560 q 1074 1547 1074 1550 q 1062 1525 1074 1538 q 1039 1513 1050 1513 m 0 -712 l 1039 -712 l 1039 -726 l 0 -726 l 0 -712 m 0 28 l 1039 28 l 1039 0 l 0 0 l 0 28 m 0 701 l 1039 701 l 1039 694 l 0 694 l 0 701 m 0 1435 l 1039 1435 l 1039 1421 l 0 1421 l 0 1435 z "},"Ē":{"ha":1039,"x_min":0,"x_max":1306,"o":"m 158 0 q 131 8 139 0 q 126 32 122 15 l 565 1390 q 578 1410 569 1404 q 608 1417 588 1417 l 1285 1417 q 1303 1408 1300 1417 q 1301 1382 1306 1400 q 1288 1356 1296 1364 q 1265 1347 1279 1347 l 626 1347 l 444 783 l 981 783 q 999 775 996 783 q 997 749 1001 767 q 983 722 992 731 q 961 714 974 714 l 422 714 l 215 69 l 849 69 q 866 61 863 69 q 865 35 869 53 q 851 8 860 17 q 829 0 843 0 l 158 0 m 793 1611 q 773 1620 776 1611 q 774 1646 769 1629 q 788 1674 779 1664 q 813 1683 797 1683 l 1193 1683 q 1213 1673 1210 1683 q 1213 1646 1217 1663 q 1198 1619 1207 1628 q 1174 1611 1189 1611 l 793 1611 m 0 -712 l 1039 -712 l 1039 -726 l 0 -726 l 0 -712 m 0 28 l 1039 28 l 1039 0 l 0 0 l 0 28 m 0 701 l 1039 701 l 1039 694 l 0 694 l 0 701 m 0 1435 l 1039 1435 l 1039 1421 l 0 1421 l 0 1435 z "},"Ę":{"ha":1039,"x_min":0,"x_max":1306,"o":"m 158 0 q 131 8 139 0 q 126 32 122 15 l 565 1390 q 578 1410 569 1404 q 608 1417 588 1417 l 1285 1417 q 1303 1408 1300 1417 q 1301 1382 1306 1400 q 1288 1356 1296 1364 q 1265 1347 1279 1347 l 626 1347 l 444 783 l 981 783 q 999 775 996 783 q 997 749 1001 767 q 983 722 992 731 q 961 714 974 714 l 422 714 l 215 69 l 849 69 q 866 61 863 69 q 865 35 869 53 q 851 8 860 17 q 829 0 843 0 l 158 0 m 626 -354 q 559 -331 583 -354 q 535 -267 535 -307 q 553 -197 535 -232 q 604 -127 571 -162 q 685 -54 638 -92 q 793 26 733 -17 l 851 22 l 851 15 q 757 -57 800 -21 q 682 -126 714 -93 q 631 -190 650 -160 q 613 -246 613 -219 q 623 -278 613 -265 q 653 -290 633 -290 q 712 -270 682 -290 q 778 -212 742 -250 q 794 -204 783 -206 q 815 -214 806 -203 q 825 -231 824 -222 q 818 -250 826 -240 q 763 -306 794 -282 q 696 -342 731 -329 q 626 -354 661 -354 m 0 -712 l 1039 -712 l 1039 -726 l 0 -726 l 0 -712 m 0 28 l 1039 28 l 1039 0 l 0 0 l 0 28 m 0 701 l 1039 701 l 1039 694 l 0 694 l 0 701 m 0 1435 l 1039 1435 l 1039 1421 l 0 1421 l 0 1435 z "},"Ế":{"ha":1039,"x_min":0,"x_max":1461,"o":"m 158 0 q 131 8 139 0 q 126 32 122 15 l 565 1390 q 578 1410 569 1404 q 608 1417 588 1417 l 1285 1417 q 1303 1408 1300 1417 q 1301 1382 1306 1400 q 1288 1356 1296 1364 q 1265 1347 1279 1347 l 626 1347 l 444 783 l 981 783 q 999 775 996 783 q 997 749 1001 767 q 983 722 992 731 q 961 714 974 714 l 422 714 l 215 69 l 849 69 q 866 61 863 69 q 865 35 869 53 q 851 8 860 17 q 829 0 843 0 l 158 0 m 749 1513 q 728 1522 736 1513 q 719 1542 719 1532 q 722 1555 719 1550 q 731 1565 725 1560 l 983 1758 q 1006 1774 997 1769 q 1026 1778 1015 1778 q 1044 1773 1036 1778 q 1060 1757 1053 1768 l 1217 1563 q 1223 1551 1221 1557 q 1225 1540 1225 1546 q 1213 1520 1225 1528 q 1192 1513 1201 1513 q 1177 1516 1183 1513 q 1165 1526 1171 1519 l 1013 1686 l 779 1525 q 763 1515 769 1518 q 749 1513 756 1513 m 1214 1722 q 1191 1734 1203 1722 q 1179 1756 1179 1746 q 1180 1764 1179 1760 q 1188 1774 1181 1768 l 1394 1960 q 1406 1969 1401 1965 q 1417 1972 1410 1972 q 1437 1965 1426 1972 q 1454 1947 1447 1957 q 1461 1928 1461 1936 q 1460 1917 1461 1921 q 1450 1907 1458 1913 l 1233 1733 q 1222 1725 1226 1728 q 1214 1722 1218 1722 m 0 -712 l 1039 -712 l 1039 -726 l 0 -726 l 0 -712 m 0 28 l 1039 28 l 1039 0 l 0 0 l 0 28 m 0 701 l 1039 701 l 1039 694 l 0 694 l 0 701 m 0 1435 l 1039 1435 l 1039 1421 l 0 1421 l 0 1435 z "},"Ệ":{"ha":1039,"x_min":0,"x_max":1306,"o":"m 158 0 q 131 8 139 0 q 126 32 122 15 l 565 1390 q 578 1410 569 1404 q 608 1417 588 1417 l 1285 1417 q 1303 1408 1300 1417 q 1301 1382 1306 1400 q 1288 1356 1296 1364 q 1265 1347 1279 1347 l 626 1347 l 444 783 l 981 783 q 999 775 996 783 q 997 749 1001 767 q 983 722 992 731 q 961 714 974 714 l 422 714 l 215 69 l 849 69 q 866 61 863 69 q 865 35 869 53 q 851 8 860 17 q 829 0 843 0 l 158 0 m 421 -304 q 381 -292 396 -304 q 365 -254 365 -279 q 385 -194 365 -221 q 444 -167 406 -167 q 485 -179 469 -167 q 500 -217 500 -192 q 480 -277 500 -250 q 421 -304 460 -304 m 749 1513 q 728 1522 736 1513 q 719 1542 719 1532 q 722 1556 719 1551 q 731 1565 725 1560 l 983 1758 q 1006 1774 997 1769 q 1026 1778 1015 1778 q 1044 1773 1036 1778 q 1060 1757 1053 1768 l 1217 1563 q 1223 1551 1221 1557 q 1225 1540 1225 1546 q 1213 1520 1225 1528 q 1192 1513 1201 1513 q 1177 1516 1183 1513 q 1165 1526 1171 1519 l 1013 1686 l 779 1525 q 763 1515 769 1518 q 749 1513 756 1513 m 0 -712 l 1039 -712 l 1039 -726 l 0 -726 l 0 -712 m 0 28 l 1039 28 l 1039 0 l 0 0 l 0 28 m 0 701 l 1039 701 l 1039 694 l 0 694 l 0 701 m 0 1435 l 1039 1435 l 1039 1421 l 0 1421 l 0 1435 z "},"Ề":{"ha":1039,"x_min":0,"x_max":1340,"o":"m 158 0 q 131 8 139 0 q 126 32 122 15 l 565 1390 q 578 1410 569 1404 q 608 1417 588 1417 l 1285 1417 q 1303 1408 1300 1417 q 1301 1382 1306 1400 q 1288 1356 1296 1364 q 1265 1347 1279 1347 l 626 1347 l 444 783 l 981 783 q 999 775 996 783 q 997 749 1001 767 q 983 722 992 731 q 961 714 974 714 l 422 714 l 215 69 l 849 69 q 866 61 863 69 q 865 35 869 53 q 851 8 860 17 q 829 0 843 0 l 158 0 m 749 1513 q 728 1522 736 1513 q 719 1542 719 1532 q 722 1555 719 1550 q 731 1565 725 1560 l 983 1758 q 1006 1774 997 1769 q 1026 1778 1015 1778 q 1044 1773 1036 1778 q 1060 1757 1053 1768 l 1217 1563 q 1223 1551 1221 1557 q 1225 1540 1225 1546 q 1213 1520 1225 1528 q 1192 1513 1201 1513 q 1177 1516 1183 1513 q 1165 1526 1171 1519 l 1013 1686 l 779 1525 q 763 1515 769 1518 q 749 1513 756 1513 m 1304 1696 q 1295 1698 1300 1696 q 1285 1706 1290 1700 l 1094 1914 q 1087 1925 1089 1921 q 1085 1935 1085 1929 q 1092 1955 1085 1944 q 1110 1973 1100 1965 q 1132 1981 1121 1981 q 1142 1977 1138 1981 q 1153 1968 1147 1974 l 1332 1749 q 1339 1739 1338 1743 q 1340 1731 1340 1735 q 1328 1708 1340 1719 q 1304 1696 1315 1696 m 0 -712 l 1039 -712 l 1039 -726 l 0 -726 l 0 -712 m 0 28 l 1039 28 l 1039 0 l 0 0 l 0 28 m 0 701 l 1039 701 l 1039 694 l 0 694 l 0 701 m 0 1435 l 1039 1435 l 1039 1421 l 0 1421 l 0 1435 z "},"Ể":{"ha":1039,"x_min":0,"x_max":1404,"o":"m 158 0 q 131 8 139 0 q 126 32 122 15 l 565 1390 q 578 1410 569 1404 q 608 1417 588 1417 l 1285 1417 q 1303 1408 1300 1417 q 1301 1382 1306 1400 q 1288 1356 1296 1364 q 1265 1347 1279 1347 l 626 1347 l 444 783 l 981 783 q 999 775 996 783 q 997 749 1001 767 q 983 722 992 731 q 961 714 974 714 l 422 714 l 215 69 l 849 69 q 866 61 863 69 q 865 35 869 53 q 851 8 860 17 q 829 0 843 0 l 158 0 m 749 1513 q 728 1522 736 1513 q 719 1542 719 1532 q 722 1555 719 1550 q 731 1565 725 1560 l 983 1758 q 1006 1774 997 1769 q 1026 1778 1015 1778 q 1044 1773 1036 1778 q 1060 1757 1053 1768 l 1217 1563 q 1223 1551 1221 1557 q 1225 1540 1225 1546 q 1213 1520 1225 1528 q 1192 1513 1201 1513 q 1177 1516 1183 1513 q 1165 1526 1171 1519 l 1013 1686 l 779 1525 q 763 1515 769 1518 q 749 1513 756 1513 m 1283 1976 q 1372 1949 1340 1976 q 1404 1881 1404 1922 q 1383 1818 1404 1846 q 1318 1764 1361 1790 q 1283 1734 1293 1750 q 1271 1701 1272 1718 l 1271 1679 q 1261 1660 1271 1667 q 1238 1654 1251 1654 q 1215 1660 1225 1654 q 1206 1676 1206 1665 l 1204 1706 q 1220 1767 1203 1743 q 1267 1810 1238 1792 q 1310 1842 1296 1826 q 1324 1872 1324 1857 q 1309 1900 1324 1890 q 1268 1910 1294 1910 q 1222 1903 1244 1910 q 1176 1885 1200 1897 q 1136 1899 1150 1869 q 1151 1940 1125 1925 q 1212 1967 1178 1957 q 1283 1976 1246 1976 m 0 -712 l 1039 -712 l 1039 -726 l 0 -726 l 0 -712 m 0 28 l 1039 28 l 1039 0 l 0 0 l 0 28 m 0 701 l 1039 701 l 1039 694 l 0 694 l 0 701 m 0 1435 l 1039 1435 l 1039 1421 l 0 1421 l 0 1435 z "},"Ễ":{"ha":1039,"x_min":0,"x_max":1322,"o":"m 158 0 q 131 8 139 0 q 126 32 122 15 l 565 1390 q 578 1410 569 1404 q 608 1417 588 1417 l 1285 1417 q 1303 1408 1300 1417 q 1301 1382 1306 1400 q 1288 1356 1296 1364 q 1265 1347 1279 1347 l 626 1347 l 444 783 l 981 783 q 999 775 996 783 q 997 749 1001 767 q 983 722 992 731 q 961 714 974 714 l 422 714 l 215 69 l 849 69 q 866 61 863 69 q 865 35 869 53 q 851 8 860 17 q 829 0 843 0 l 158 0 m 749 1513 q 728 1522 736 1513 q 719 1542 719 1532 q 722 1555 719 1550 q 731 1565 725 1560 l 983 1758 q 1006 1774 997 1769 q 1026 1778 1015 1778 q 1044 1773 1036 1778 q 1060 1757 1053 1768 l 1217 1563 q 1223 1551 1221 1557 q 1225 1540 1225 1546 q 1213 1520 1225 1528 q 1192 1513 1201 1513 q 1177 1516 1183 1513 q 1165 1526 1171 1519 l 1013 1686 l 779 1525 q 763 1515 769 1518 q 749 1513 756 1513 m 825 1800 q 797 1831 794 1800 q 843 1951 811 1911 q 932 1990 875 1990 q 1007 1973 972 1990 q 1072 1933 1042 1956 q 1131 1892 1103 1910 q 1188 1875 1160 1875 q 1228 1897 1213 1875 q 1253 1964 1243 1918 q 1293 1993 1258 1993 q 1316 1986 1310 1993 q 1319 1963 1322 1979 q 1274 1844 1306 1883 q 1183 1804 1243 1804 q 1109 1822 1143 1804 q 1044 1863 1075 1840 q 985 1902 1014 1885 q 928 1919 957 1919 q 888 1898 904 1919 q 861 1828 872 1876 q 850 1807 858 1814 q 825 1800 842 1800 m 0 -712 l 1039 -712 l 1039 -726 l 0 -726 l 0 -712 m 0 28 l 1039 28 l 1039 0 l 0 0 l 0 28 m 0 701 l 1039 701 l 1039 694 l 0 694 l 0 701 m 0 1435 l 1039 1435 l 1039 1421 l 0 1421 l 0 1435 z "},"Ẹ":{"ha":1039,"x_min":0,"x_max":1306,"o":"m 158 0 q 131 8 139 0 q 126 32 122 15 l 565 1390 q 578 1410 569 1404 q 608 1417 588 1417 l 1285 1417 q 1303 1408 1300 1417 q 1301 1382 1306 1400 q 1288 1356 1296 1364 q 1265 1347 1279 1347 l 626 1347 l 444 783 l 981 783 q 999 775 996 783 q 997 749 1001 767 q 983 722 992 731 q 961 714 974 714 l 422 714 l 215 69 l 849 69 q 866 61 863 69 q 865 35 869 53 q 851 8 860 17 q 829 0 843 0 l 158 0 m 421 -304 q 381 -292 396 -304 q 365 -254 365 -279 q 385 -194 365 -221 q 444 -167 406 -167 q 485 -179 469 -167 q 500 -217 500 -192 q 480 -277 500 -250 q 421 -304 460 -304 m 0 -712 l 1039 -712 l 1039 -726 l 0 -726 l 0 -712 m 0 28 l 1039 28 l 1039 0 l 0 0 l 0 28 m 0 701 l 1039 701 l 1039 694 l 0 694 l 0 701 m 0 1435 l 1039 1435 l 1039 1421 l 0 1421 l 0 1435 z "},"Ẻ":{"ha":1039,"x_min":0,"x_max":1306,"o":"m 158 0 q 131 8 139 0 q 126 32 122 15 l 565 1390 q 578 1410 569 1404 q 608 1417 588 1417 l 1285 1417 q 1303 1408 1300 1417 q 1301 1382 1306 1400 q 1288 1356 1296 1364 q 1265 1347 1279 1347 l 626 1347 l 444 783 l 981 783 q 999 775 996 783 q 997 749 1001 767 q 983 722 992 731 q 961 714 974 714 l 422 714 l 215 69 l 849 69 q 866 61 863 69 q 865 35 869 53 q 851 8 860 17 q 829 0 843 0 l 158 0 m 1011 1819 q 1100 1792 1068 1819 q 1132 1724 1132 1765 q 1110 1660 1132 1689 q 1047 1607 1089 1632 q 1010 1577 1021 1593 q 1000 1544 1000 1561 l 999 1522 q 989 1503 999 1508 q 967 1497 979 1497 q 944 1503 954 1497 q 933 1519 935 1508 l 932 1549 q 948 1610 931 1585 q 994 1653 965 1635 q 1038 1683 1024 1668 q 1051 1715 1051 1699 q 1037 1743 1051 1733 q 996 1753 1022 1753 q 950 1747 972 1753 q 904 1728 928 1740 q 864 1742 879 1713 q 879 1783 853 1767 q 940 1810 907 1800 q 1011 1819 974 1819 m 0 -712 l 1039 -712 l 1039 -726 l 0 -726 l 0 -712 m 0 28 l 1039 28 l 1039 0 l 0 0 l 0 28 m 0 701 l 1039 701 l 1039 694 l 0 694 l 0 701 m 0 1435 l 1039 1435 l 1039 1421 l 0 1421 l 0 1435 z "},"Ẽ":{"ha":1039,"x_min":0,"x_max":1306,"o":"m 158 0 q 131 8 139 0 q 126 32 122 15 l 565 1390 q 578 1410 569 1404 q 608 1417 588 1417 l 1285 1417 q 1303 1408 1300 1417 q 1301 1382 1306 1400 q 1288 1356 1296 1364 q 1265 1347 1279 1347 l 626 1347 l 444 783 l 981 783 q 999 775 996 783 q 997 749 1001 767 q 983 722 992 731 q 961 714 974 714 l 422 714 l 215 69 l 849 69 q 866 61 863 69 q 865 35 869 53 q 851 8 860 17 q 829 0 843 0 l 158 0 m 760 1557 q 733 1588 729 1557 q 778 1708 746 1668 q 867 1747 810 1747 q 942 1730 907 1747 q 1007 1690 976 1713 q 1066 1649 1038 1667 q 1122 1632 1094 1632 q 1163 1653 1147 1632 q 1189 1721 1179 1675 q 1228 1750 1194 1750 q 1251 1743 1244 1750 q 1254 1719 1257 1736 q 1209 1601 1240 1640 q 1118 1561 1178 1561 q 1044 1578 1078 1561 q 979 1619 1010 1596 q 920 1659 949 1642 q 864 1676 892 1676 q 823 1655 839 1676 q 796 1585 807 1633 q 785 1564 794 1571 q 760 1557 776 1557 m 0 -712 l 1039 -712 l 1039 -726 l 0 -726 l 0 -712 m 0 28 l 1039 28 l 1039 0 l 0 0 l 0 28 m 0 701 l 1039 701 l 1039 694 l 0 694 l 0 701 m 0 1435 l 1039 1435 l 1039 1421 l 0 1421 l 0 1435 z "},"Ğ":{"ha":1374,"x_min":0,"x_max":1393,"o":"m 636 -26 q 462 7 539 -26 q 331 102 385 40 q 248 252 276 164 q 219 451 219 340 q 244 678 219 563 q 318 904 269 793 q 437 1112 367 1015 q 597 1283 507 1208 q 798 1399 688 1357 q 1036 1442 908 1442 q 1178 1423 1113 1442 q 1295 1368 1243 1404 q 1383 1276 1347 1332 q 1388 1253 1393 1264 q 1367 1233 1382 1243 q 1343 1228 1353 1225 q 1318 1246 1333 1231 q 1240 1314 1283 1288 q 1144 1354 1197 1340 q 1028 1368 1092 1368 q 822 1330 918 1368 q 644 1224 725 1292 q 499 1067 563 1156 q 392 876 436 978 q 324 667 347 774 q 301 458 301 561 q 324 285 301 361 q 391 157 347 210 q 498 76 435 104 q 643 49 561 49 q 783 72 715 49 q 915 145 851 96 q 1036 269 978 194 q 1147 443 1094 343 q 1244 671 1199 543 l 861 671 q 843 681 844 671 q 846 706 842 692 q 860 733 853 725 q 883 740 868 740 l 1317 740 q 1338 733 1333 740 q 1336 708 1342 726 q 1198 378 1275 517 q 1032 149 1121 239 q 843 17 943 60 q 636 -26 743 -26 m 1065 1514 q 917 1574 965 1514 q 885 1753 869 1635 q 896 1774 888 1767 q 919 1781 904 1781 q 942 1774 935 1781 q 950 1753 950 1767 q 974 1631 942 1671 q 1072 1590 1006 1590 q 1208 1633 1151 1590 q 1288 1751 1264 1675 q 1303 1774 1294 1768 q 1326 1781 1311 1781 q 1351 1772 1343 1781 q 1354 1750 1358 1764 q 1290 1616 1332 1668 q 1192 1539 1249 1564 q 1065 1514 1136 1514 m 0 -712 l 1374 -712 l 1374 -726 l 0 -726 l 0 -712 m 0 28 l 1374 28 l 1374 0 l 0 0 l 0 28 m 0 701 l 1374 701 l 1374 694 l 0 694 l 0 701 m 0 1435 l 1374 1435 l 1374 1421 l 0 1421 l 0 1435 z "},"Ĝ":{"ha":1374,"x_min":0,"x_max":1393,"o":"m 636 -26 q 462 7 539 -26 q 331 102 385 40 q 248 252 276 164 q 219 451 219 340 q 244 678 219 563 q 318 904 269 793 q 437 1112 367 1015 q 597 1283 507 1208 q 798 1399 688 1357 q 1036 1442 908 1442 q 1178 1423 1113 1442 q 1295 1368 1243 1404 q 1383 1276 1347 1332 q 1388 1253 1393 1264 q 1367 1233 1382 1243 q 1343 1228 1353 1225 q 1318 1246 1333 1231 q 1240 1314 1283 1288 q 1144 1354 1197 1340 q 1028 1368 1092 1368 q 822 1330 918 1368 q 644 1224 725 1292 q 499 1067 563 1156 q 392 876 436 978 q 324 667 347 774 q 301 458 301 561 q 324 285 301 361 q 391 156 347 210 q 498 76 435 103 q 643 49 561 49 q 783 72 715 49 q 915 145 851 96 q 1036 269 978 194 q 1147 443 1094 343 q 1244 671 1199 543 l 861 671 q 843 681 844 671 q 846 706 842 692 q 860 733 853 725 q 883 740 868 740 l 1317 740 q 1338 733 1333 740 q 1336 708 1342 726 q 1198 378 1275 517 q 1032 149 1121 239 q 843 17 943 60 q 636 -26 743 -26 m 850 1513 q 829 1522 838 1513 q 821 1542 821 1532 q 824 1555 821 1550 q 832 1565 826 1560 l 1086 1758 q 1108 1774 1099 1769 q 1128 1778 1117 1778 q 1146 1773 1138 1778 q 1161 1757 1154 1768 l 1319 1563 q 1325 1551 1324 1557 q 1326 1540 1326 1546 q 1315 1520 1326 1528 q 1293 1513 1303 1513 q 1278 1516 1285 1513 q 1267 1526 1272 1519 l 1115 1686 l 881 1525 q 864 1515 871 1518 q 850 1513 857 1513 m 0 -712 l 1374 -712 l 1374 -726 l 0 -726 l 0 -712 m 0 28 l 1374 28 l 1374 0 l 0 0 l 0 28 m 0 701 l 1374 701 l 1374 694 l 0 694 l 0 701 m 0 1435 l 1374 1435 l 1374 1421 l 0 1421 l 0 1435 z "},"Ģ":{"ha":1374,"x_min":0,"x_max":1393,"o":"m 636 -26 q 462 7 539 -26 q 331 102 385 40 q 248 252 276 164 q 219 451 219 340 q 244 678 219 563 q 318 904 269 793 q 437 1112 367 1015 q 597 1283 507 1208 q 798 1399 688 1357 q 1036 1442 908 1442 q 1178 1423 1113 1442 q 1295 1368 1243 1404 q 1383 1276 1347 1332 q 1388 1253 1393 1264 q 1367 1233 1382 1243 q 1343 1228 1353 1225 q 1318 1246 1333 1231 q 1240 1313 1283 1286 q 1145 1354 1197 1340 q 1028 1368 1093 1368 q 822 1330 918 1368 q 644 1224 725 1292 q 499 1067 563 1156 q 392 876 436 978 q 324 667 347 774 q 301 458 301 561 q 324 285 301 361 q 391 157 347 210 q 498 76 435 104 q 643 49 561 49 q 783 72 715 49 q 915 145 851 96 q 1036 269 978 194 q 1147 443 1094 343 q 1244 671 1199 543 l 861 671 q 843 681 844 671 q 846 706 842 692 q 860 733 853 725 q 883 740 868 740 l 1317 740 q 1338 733 1333 740 q 1336 708 1342 726 q 1198 378 1275 517 q 1032 149 1121 239 q 843 17 943 60 q 636 -26 743 -26 m 444 -383 q 432 -364 433 -374 q 440 -342 431 -354 q 485 -277 467 -308 q 516 -212 504 -246 q 531 -137 528 -179 q 542 -112 532 -119 q 571 -106 553 -106 q 599 -115 590 -106 q 608 -140 608 -124 q 594 -203 607 -165 q 557 -285 582 -242 q 490 -372 532 -329 q 467 -388 479 -383 q 444 -383 456 -393 m 0 -712 l 1374 -712 l 1374 -726 l 0 -726 l 0 -712 m 0 28 l 1374 28 l 1374 0 l 0 0 l 0 28 m 0 701 l 1374 701 l 1374 694 l 0 694 l 0 701 m 0 1435 l 1374 1435 l 1374 1421 l 0 1421 l 0 1435 z "},"Ġ":{"ha":1374,"x_min":0,"x_max":1393,"o":"m 636 -26 q 462 7 539 -26 q 331 102 385 40 q 248 252 276 164 q 219 451 219 340 q 244 678 219 563 q 318 904 269 793 q 437 1112 367 1015 q 597 1283 507 1208 q 798 1399 688 1357 q 1036 1442 908 1442 q 1178 1423 1113 1442 q 1295 1368 1243 1404 q 1383 1276 1347 1332 q 1388 1253 1393 1264 q 1367 1233 1382 1243 q 1343 1228 1353 1225 q 1318 1246 1333 1231 q 1240 1314 1283 1288 q 1144 1354 1197 1340 q 1028 1368 1092 1368 q 822 1330 918 1368 q 644 1224 725 1292 q 499 1067 563 1156 q 392 876 436 978 q 324 667 347 774 q 301 458 301 561 q 324 285 301 361 q 391 157 347 210 q 498 76 435 104 q 643 49 561 49 q 783 72 715 49 q 915 145 851 96 q 1036 269 978 194 q 1147 443 1094 343 q 1244 671 1199 543 l 861 671 q 843 681 844 671 q 846 706 842 692 q 860 733 853 725 q 883 740 868 740 l 1317 740 q 1338 733 1333 740 q 1336 708 1342 726 q 1198 378 1275 517 q 1032 149 1121 239 q 843 17 943 60 q 636 -26 743 -26 m 1076 1565 q 1035 1577 1051 1565 q 1019 1614 1019 1589 q 1040 1674 1019 1647 q 1100 1701 1061 1701 q 1140 1689 1124 1701 q 1156 1651 1156 1676 q 1135 1592 1156 1618 q 1076 1565 1115 1565 m 0 -712 l 1374 -712 l 1374 -726 l 0 -726 l 0 -712 m 0 28 l 1374 28 l 1374 0 l 0 0 l 0 28 m 0 701 l 1374 701 l 1374 694 l 0 694 l 0 701 m 0 1435 l 1374 1435 l 1374 1421 l 0 1421 l 0 1435 z "},"Ħ":{"ha":1393,"x_min":0,"x_max":1574,"o":"m 149 -19 q 118 7 110 -19 l 574 1415 q 588 1435 578 1429 q 619 1442 599 1442 q 649 1415 658 1442 l 444 778 l 1226 778 l 1433 1415 q 1449 1435 1439 1429 q 1481 1442 1458 1442 q 1510 1415 1519 1442 l 1056 7 q 1041 -13 1051 -7 q 1010 -19 1031 -19 q 979 7 971 -19 l 1204 708 l 421 708 l 194 7 q 180 -13 190 -7 q 149 -19 169 -19 m 331 1061 q 310 1070 313 1061 q 311 1094 307 1079 q 322 1119 315 1110 q 347 1128 329 1128 l 1550 1128 q 1572 1118 1569 1128 q 1571 1094 1574 1108 q 1559 1070 1567 1079 q 1533 1061 1551 1061 l 331 1061 m 0 -712 l 1393 -712 l 1393 -726 l 0 -726 l 0 -712 m 0 28 l 1393 28 l 1393 0 l 0 0 l 0 28 m 0 701 l 1393 701 l 1393 694 l 0 694 l 0 701 m 0 1435 l 1393 1435 l 1393 1421 l 0 1421 l 0 1435 z "},"Ĥ":{"ha":1393,"x_min":0,"x_max":1519,"o":"m 149 -19 q 118 7 110 -19 l 574 1415 q 588 1435 578 1429 q 619 1442 599 1442 q 649 1415 658 1442 l 444 778 l 1226 778 l 1433 1415 q 1449 1435 1439 1429 q 1481 1442 1458 1442 q 1510 1415 1519 1442 l 1056 7 q 1041 -13 1051 -7 q 1010 -19 1031 -19 q 979 7 971 -19 l 1204 708 l 421 708 l 194 7 q 180 -13 190 -7 q 149 -19 169 -19 m 849 1513 q 828 1522 836 1513 q 819 1542 819 1532 q 822 1555 819 1550 q 831 1565 825 1560 l 1083 1758 q 1106 1774 1096 1769 q 1126 1778 1115 1778 q 1144 1773 1136 1778 q 1160 1757 1151 1768 l 1317 1563 q 1323 1551 1321 1557 q 1325 1540 1325 1546 q 1313 1520 1325 1528 q 1292 1513 1301 1513 q 1277 1516 1283 1513 q 1265 1526 1271 1519 l 1113 1686 l 879 1525 q 863 1515 869 1518 q 849 1513 856 1513 m 0 -712 l 1393 -712 l 1393 -726 l 0 -726 l 0 -712 m 0 28 l 1393 28 l 1393 0 l 0 0 l 0 28 m 0 701 l 1393 701 l 1393 694 l 0 694 l 0 701 m 0 1435 l 1393 1435 l 1393 1421 l 0 1421 l 0 1435 z "},"Í":{"ha":531,"x_min":0,"x_max":846,"o":"m 150 -19 q 122 -12 131 -19 q 117 8 113 -6 l 571 1415 q 586 1435 576 1429 q 618 1442 596 1442 q 646 1435 638 1442 q 649 1414 654 1429 l 194 7 q 181 -12 190 -6 q 150 -19 172 -19 m 572 1513 q 549 1525 561 1513 q 538 1547 538 1538 q 539 1554 538 1550 q 544 1564 540 1558 l 781 1768 q 791 1777 786 1774 q 801 1781 796 1781 q 822 1774 811 1781 q 839 1756 832 1767 q 846 1736 846 1744 q 844 1726 846 1731 q 835 1715 843 1721 l 592 1524 q 581 1516 585 1519 q 572 1513 576 1513 m 0 -712 l 531 -712 l 531 -726 l 0 -726 l 0 -712 m 0 28 l 531 28 l 531 0 l 0 0 l 0 28 m 0 701 l 531 701 l 531 694 l 0 694 l 0 701 m 0 1435 l 531 1435 l 531 1421 l 0 1421 l 0 1435 z "},"Ĭ":{"ha":531,"x_min":0,"x_max":942,"o":"m 150 -19 q 121 -13 129 -19 q 117 8 113 -7 l 571 1415 q 586 1435 576 1429 q 617 1442 596 1442 q 646 1435 638 1442 q 649 1414 654 1429 l 194 7 q 181 -13 190 -7 q 150 -19 171 -19 m 647 1514 q 500 1574 547 1514 q 468 1753 453 1635 q 478 1774 469 1767 q 503 1781 486 1781 q 526 1774 518 1781 q 532 1753 533 1767 q 557 1631 525 1671 q 654 1590 589 1590 q 790 1633 733 1590 q 871 1751 846 1675 q 885 1774 876 1768 q 908 1781 893 1781 q 933 1772 925 1781 q 938 1750 942 1764 q 873 1616 914 1668 q 775 1539 832 1564 q 647 1514 718 1514 m 0 -712 l 531 -712 l 531 -726 l 0 -726 l 0 -712 m 0 28 l 531 28 l 531 0 l 0 0 l 0 28 m 0 701 l 531 701 l 531 694 l 0 694 l 0 701 m 0 1435 l 531 1435 l 531 1421 l 0 1421 l 0 1435 z "},"Ǐ":{"ha":531,"x_min":0,"x_max":943,"o":"m 149 -19 q 121 -13 129 -19 q 117 8 113 -7 l 571 1415 q 586 1435 576 1429 q 617 1442 596 1442 q 646 1435 638 1442 q 649 1414 654 1429 l 194 7 q 181 -13 190 -7 q 149 -19 171 -19 m 911 1779 q 933 1769 924 1779 q 943 1749 943 1758 q 940 1735 943 1740 q 931 1725 938 1731 l 678 1532 q 655 1518 664 1522 q 635 1514 646 1514 q 617 1519 625 1514 q 601 1533 610 1524 l 443 1729 q 438 1740 440 1735 q 436 1751 436 1746 q 449 1772 436 1764 q 471 1779 461 1779 q 485 1775 479 1779 q 496 1765 490 1771 l 647 1604 l 882 1764 q 899 1775 893 1771 q 911 1779 904 1779 m 0 -712 l 531 -712 l 531 -726 l 0 -726 l 0 -712 m 0 28 l 531 28 l 531 0 l 0 0 l 0 28 m 0 701 l 531 701 l 531 694 l 0 694 l 0 701 m 0 1435 l 531 1435 l 531 1421 l 0 1421 l 0 1435 z "},"Î":{"ha":531,"x_min":0,"x_max":908,"o":"m 149 -19 q 121 -13 129 -19 q 117 8 113 -7 l 571 1415 q 586 1435 576 1429 q 617 1442 596 1442 q 646 1435 638 1442 q 649 1414 654 1429 l 194 7 q 181 -13 190 -7 q 149 -19 171 -19 m 432 1513 q 412 1522 421 1513 q 403 1542 403 1532 q 406 1555 403 1550 q 415 1565 410 1560 l 668 1758 q 690 1774 681 1769 q 711 1778 700 1778 q 728 1773 721 1778 q 744 1757 736 1768 l 901 1563 q 907 1551 906 1557 q 908 1540 908 1546 q 897 1520 908 1528 q 876 1513 886 1513 q 861 1516 868 1513 q 849 1526 854 1519 l 697 1686 l 463 1525 q 447 1515 453 1518 q 432 1513 440 1513 m 0 -712 l 531 -712 l 531 -726 l 0 -726 l 0 -712 m 0 28 l 531 28 l 531 0 l 0 0 l 0 28 m 0 701 l 531 701 l 531 694 l 0 694 l 0 701 m 0 1435 l 531 1435 l 531 1421 l 0 1421 l 0 1435 z "},"Ï":{"ha":531,"x_min":0,"x_max":908,"o":"m 150 -19 q 121 -12 129 -19 q 117 8 113 -6 l 571 1415 q 586 1435 576 1429 q 617 1442 596 1442 q 646 1435 638 1442 q 649 1414 654 1429 l 194 7 q 181 -12 190 -6 q 150 -19 171 -19 m 486 1565 q 447 1577 463 1565 q 431 1614 431 1589 q 451 1674 431 1647 q 511 1701 472 1701 q 551 1689 535 1701 q 567 1651 567 1676 q 547 1592 567 1618 q 486 1565 526 1565 m 829 1565 q 788 1577 804 1565 q 772 1614 772 1589 q 793 1674 772 1647 q 853 1701 814 1701 q 892 1689 876 1701 q 908 1651 908 1676 q 888 1592 908 1618 q 829 1565 868 1565 m 0 -712 l 531 -712 l 531 -726 l 0 -726 l 0 -712 m 0 28 l 531 28 l 531 0 l 0 0 l 0 28 m 0 701 l 531 701 l 531 694 l 0 694 l 0 701 m 0 1435 l 531 1435 l 531 1421 l 0 1421 l 0 1435 z "},"İ":{"ha":531,"x_min":0,"x_max":738,"o":"m 150 -19 q 121 -12 129 -19 q 117 8 113 -6 l 571 1415 q 586 1435 576 1429 q 617 1442 596 1442 q 646 1435 638 1442 q 649 1414 654 1429 l 194 7 q 181 -12 190 -6 q 150 -19 171 -19 m 658 1565 q 618 1577 633 1565 q 603 1614 603 1589 q 624 1674 603 1647 q 682 1701 644 1701 q 722 1689 706 1701 q 738 1651 738 1676 q 718 1592 738 1618 q 658 1565 699 1565 m 0 -712 l 531 -712 l 531 -726 l 0 -726 l 0 -712 m 0 28 l 531 28 l 531 0 l 0 0 l 0 28 m 0 701 l 531 701 l 531 694 l 0 694 l 0 701 m 0 1435 l 531 1435 l 531 1421 l 0 1421 l 0 1435 z "},"Ì":{"ha":531,"x_min":0,"x_max":758,"o":"m 150 -19 q 121 -12 129 -19 q 117 8 113 -6 l 571 1415 q 586 1435 576 1429 q 617 1442 596 1442 q 646 1435 638 1442 q 649 1414 654 1429 l 194 7 q 181 -12 190 -6 q 150 -19 171 -19 m 724 1513 q 714 1516 718 1513 q 704 1524 710 1519 l 490 1714 q 481 1725 483 1721 q 479 1735 479 1729 q 487 1755 479 1744 q 506 1773 494 1765 q 526 1781 517 1781 q 536 1778 532 1781 q 546 1768 540 1775 l 750 1564 q 758 1555 757 1560 q 758 1547 758 1550 q 746 1525 758 1538 q 724 1513 733 1513 m 0 -712 l 531 -712 l 531 -726 l 0 -726 l 0 -712 m 0 28 l 531 28 l 531 0 l 0 0 l 0 28 m 0 701 l 531 701 l 531 694 l 0 694 l 0 701 m 0 1435 l 531 1435 l 531 1421 l 0 1421 l 0 1435 z "},"Ī":{"ha":531,"x_min":0,"x_max":901,"o":"m 150 -19 q 121 -13 129 -19 q 117 8 113 -7 l 571 1415 q 586 1435 576 1429 q 617 1442 596 1442 q 646 1435 638 1442 q 649 1414 654 1429 l 194 7 q 181 -13 190 -7 q 150 -19 171 -19 m 478 1611 q 457 1620 461 1611 q 458 1646 453 1629 q 472 1674 464 1664 q 497 1683 481 1683 l 878 1683 q 898 1673 894 1683 q 896 1646 901 1663 q 883 1619 892 1628 q 857 1611 874 1611 l 478 1611 m 0 -712 l 531 -712 l 531 -726 l 0 -726 l 0 -712 m 0 28 l 531 28 l 531 0 l 0 0 l 0 28 m 0 701 l 531 701 l 531 694 l 0 694 l 0 701 m 0 1435 l 531 1435 l 531 1421 l 0 1421 l 0 1435 z "},"Į":{"ha":531,"x_min":-131,"x_max":654,"o":"m 150 -19 q 121 -13 129 -19 q 117 8 113 -7 l 571 1415 q 586 1435 576 1429 q 617 1442 596 1442 q 646 1435 638 1442 q 649 1414 654 1429 l 194 7 q 181 -13 190 -7 q 150 -19 171 -19 m -39 -372 q -106 -348 -81 -372 q -131 -283 -131 -324 q -112 -214 -131 -249 q -61 -144 -94 -179 q 20 -72 -28 -110 q 128 8 68 -33 l 186 4 l 186 -1 q 92 -74 135 -39 q 17 -144 49 -110 q -33 -208 -15 -178 q -51 -262 -51 -237 q -42 -294 -51 -282 q -12 -307 -32 -307 q 47 -287 17 -307 q 113 -231 78 -268 q 130 -221 119 -222 q 150 -232 140 -219 q 160 -249 160 -240 q 153 -268 161 -258 q 97 -322 129 -299 q 31 -359 65 -346 q -39 -372 -4 -372 m 0 -712 l 531 -712 l 531 -726 l 0 -726 l 0 -712 m 0 28 l 531 28 l 531 0 l 0 0 l 0 28 m 0 701 l 531 701 l 531 694 l 0 694 l 0 701 m 0 1435 l 531 1435 l 531 1421 l 0 1421 l 0 1435 z "},"Ĩ":{"ha":531,"x_min":0,"x_max":942,"o":"m 150 -19 q 121 -13 129 -19 q 117 8 113 -7 l 571 1415 q 586 1435 576 1429 q 617 1442 596 1442 q 646 1435 638 1442 q 649 1414 654 1429 l 194 7 q 181 -13 190 -7 q 150 -19 171 -19 m 443 1557 q 417 1588 414 1557 q 463 1708 431 1668 q 551 1747 494 1747 q 626 1730 592 1747 q 692 1690 661 1713 q 751 1649 722 1667 q 807 1632 779 1632 q 847 1653 832 1632 q 872 1721 863 1675 q 911 1750 878 1750 q 935 1743 929 1750 q 938 1719 942 1736 q 894 1601 925 1640 q 803 1561 863 1561 q 728 1578 763 1561 q 664 1619 694 1596 q 604 1659 633 1642 q 547 1676 575 1676 q 508 1655 524 1676 q 481 1585 492 1633 q 469 1564 478 1571 q 443 1557 460 1557 m 0 -712 l 531 -712 l 531 -726 l 0 -726 l 0 -712 m 0 28 l 531 28 l 531 0 l 0 0 l 0 28 m 0 701 l 531 701 l 531 694 l 0 694 l 0 701 m 0 1435 l 531 1435 l 531 1421 l 0 1421 l 0 1435 z "},"Ị":{"ha":531,"x_min":0,"x_max":654,"o":"m 150 -19 q 121 -12 129 -19 q 117 8 113 -6 l 571 1415 q 586 1435 576 1429 q 617 1442 596 1442 q 646 1435 638 1442 q 649 1414 654 1429 l 194 7 q 181 -12 190 -6 q 150 -19 171 -19 m 64 -304 q 23 -292 39 -304 q 7 -254 7 -279 q 28 -194 7 -221 q 88 -167 49 -167 q 127 -179 111 -167 q 143 -217 143 -192 q 123 -277 143 -250 q 64 -304 103 -304 m 0 -712 l 531 -712 l 531 -726 l 0 -726 l 0 -712 m 0 28 l 531 28 l 531 0 l 0 0 l 0 28 m 0 701 l 531 701 l 531 694 l 0 694 l 0 701 m 0 1435 l 531 1435 l 531 1421 l 0 1421 l 0 1435 z "},"Ỉ":{"ha":531,"x_min":0,"x_max":817,"o":"m 150 -19 q 121 -13 129 -19 q 117 8 113 -7 l 571 1415 q 586 1435 576 1429 q 617 1442 596 1442 q 646 1435 638 1442 q 649 1414 654 1429 l 194 7 q 181 -13 190 -7 q 150 -19 171 -19 m 696 1819 q 785 1792 753 1819 q 817 1724 817 1765 q 795 1660 817 1689 q 731 1607 774 1632 q 694 1577 706 1593 q 683 1544 683 1561 l 683 1522 q 672 1503 682 1508 q 650 1497 663 1497 q 628 1503 638 1497 q 618 1519 618 1508 l 617 1549 q 633 1610 615 1585 q 679 1653 650 1635 q 722 1683 708 1668 q 735 1715 735 1699 q 721 1743 735 1733 q 681 1753 707 1753 q 634 1747 656 1753 q 588 1728 613 1740 q 549 1742 563 1713 q 564 1783 538 1767 q 624 1810 590 1800 q 696 1819 658 1819 m 0 -712 l 531 -712 l 531 -726 l 0 -726 l 0 -712 m 0 28 l 531 28 l 531 0 l 0 0 l 0 28 m 0 701 l 531 701 l 531 694 l 0 694 l 0 701 m 0 1435 l 531 1435 l 531 1421 l 0 1421 l 0 1435 z "},"Ĵ":{"ha":1019,"x_min":0,"x_max":1426,"o":"m 400 -26 q 252 7 319 -26 q 139 102 185 40 q 75 251 93 164 q 78 281 71 272 q 103 294 86 290 q 133 292 124 299 q 147 267 143 285 q 199 147 165 196 q 283 74 232 99 q 404 49 335 49 q 499 62 456 49 q 581 103 543 75 q 653 178 619 132 q 716 289 686 224 q 774 442 746 354 l 1090 1415 q 1106 1435 1096 1429 q 1136 1442 1115 1442 q 1165 1435 1157 1442 q 1167 1415 1172 1429 l 851 440 q 783 263 818 339 q 707 131 747 186 q 621 41 667 76 q 520 -10 575 6 q 400 -26 465 -26 m 950 1513 q 929 1522 938 1513 q 921 1542 921 1532 q 924 1555 921 1550 q 932 1565 926 1560 l 1186 1758 q 1208 1774 1199 1769 q 1228 1778 1217 1778 q 1246 1773 1238 1778 q 1261 1757 1254 1768 l 1419 1563 q 1425 1551 1424 1557 q 1426 1540 1426 1546 q 1415 1520 1426 1528 q 1393 1513 1403 1513 q 1378 1516 1385 1513 q 1367 1526 1372 1519 l 1215 1686 l 981 1525 q 964 1515 971 1518 q 950 1513 957 1513 m 0 -712 l 1019 -712 l 1019 -726 l 0 -726 l 0 -712 m 0 28 l 1019 28 l 1019 0 l 0 0 l 0 28 m 0 701 l 1019 701 l 1019 694 l 0 694 l 0 701 m 0 1435 l 1019 1435 l 1019 1421 l 0 1421 l 0 1435 z "},"Ķ":{"ha":1081,"x_min":0,"x_max":1331,"o":"m 146 -21 q 119 -14 126 -21 q 115 7 111 -7 l 574 1414 q 619 1442 582 1442 q 651 1414 660 1442 l 443 778 l 1264 1421 q 1295 1438 1283 1438 q 1318 1422 1307 1438 q 1330 1395 1331 1406 q 1311 1372 1329 1385 l 500 739 q 634 479 564 600 q 783 250 704 358 q 950 35 861 142 q 961 10 964 21 q 942 -15 958 -1 q 913 -22 925 -26 q 888 -1 900 -17 q 756 165 818 81 q 637 338 694 249 q 528 525 579 428 q 428 729 476 622 l 194 7 q 177 -14 189 -7 q 146 -21 165 -21 m 335 -383 q 322 -363 324 -374 q 329 -342 321 -353 q 376 -277 357 -308 q 406 -212 394 -246 q 421 -137 418 -179 q 433 -112 422 -119 q 461 -106 443 -106 q 490 -115 481 -106 q 499 -140 499 -124 q 485 -203 497 -165 q 447 -285 472 -242 q 381 -372 421 -329 q 358 -388 369 -383 q 335 -383 346 -393 m 0 -712 l 1081 -712 l 1081 -726 l 0 -726 l 0 -712 m 0 28 l 1081 28 l 1081 0 l 0 0 l 0 28 m 0 701 l 1081 701 l 1081 694 l 0 694 l 0 701 m 0 1435 l 1081 1435 l 1081 1421 l 0 1421 l 0 1435 z "},"Ĺ":{"ha":981,"x_min":0,"x_max":981,"o":"m 154 0 q 126 32 115 0 l 574 1415 q 587 1435 578 1429 q 617 1442 596 1442 q 645 1435 636 1442 q 649 1414 654 1429 l 214 69 l 821 69 q 838 61 835 69 q 836 35 842 53 q 823 8 832 17 q 800 0 814 0 l 154 0 m 582 1513 q 559 1525 571 1513 q 547 1546 547 1538 q 548 1554 547 1550 q 554 1564 549 1558 l 790 1768 q 800 1777 796 1774 q 811 1781 804 1781 q 831 1774 821 1781 q 849 1756 842 1767 q 856 1736 856 1744 q 854 1726 856 1731 q 844 1715 853 1721 l 600 1524 q 590 1516 594 1519 q 582 1513 586 1513 m 0 -712 l 981 -712 l 981 -726 l 0 -726 l 0 -712 m 0 28 l 981 28 l 981 0 l 0 0 l 0 28 m 0 701 l 981 701 l 981 694 l 0 694 l 0 701 m 0 1435 l 981 1435 l 981 1421 l 0 1421 l 0 1435 z "},"Ľ":{"ha":981,"x_min":0,"x_max":981,"o":"m 154 0 q 126 32 115 0 l 574 1415 q 587 1435 578 1429 q 617 1442 596 1442 q 645 1435 636 1442 q 649 1414 654 1429 l 214 69 l 821 69 q 839 61 836 69 q 836 35 842 53 q 823 8 832 17 q 800 0 814 0 l 154 0 m 767 1119 q 750 1135 753 1125 q 756 1163 747 1146 q 791 1235 772 1193 q 826 1324 810 1278 q 851 1410 843 1369 q 862 1435 854 1425 q 892 1444 869 1444 q 925 1435 917 1444 q 931 1410 933 1425 q 901 1316 921 1367 q 856 1218 881 1265 q 810 1136 832 1171 q 794 1119 803 1125 q 767 1119 785 1114 m 0 -712 l 981 -712 l 981 -726 l 0 -726 l 0 -712 m 0 28 l 981 28 l 981 0 l 0 0 l 0 28 m 0 701 l 981 701 l 981 694 l 0 694 l 0 701 m 0 1435 l 981 1435 l 981 1421 l 0 1421 l 0 1435 z "},"Ļ":{"ha":981,"x_min":0,"x_max":981,"o":"m 154 0 q 126 32 115 0 l 574 1415 q 587 1435 578 1429 q 617 1442 596 1442 q 645 1435 636 1442 q 649 1414 654 1429 l 214 69 l 821 69 q 839 61 836 69 q 836 35 842 53 q 823 8 832 17 q 800 0 814 0 l 154 0 m 325 -383 q 313 -363 314 -374 q 319 -342 311 -353 q 366 -277 347 -308 q 396 -212 385 -246 q 411 -137 407 -179 q 423 -112 413 -119 q 450 -106 433 -106 q 480 -115 471 -106 q 488 -140 489 -124 q 475 -203 488 -165 q 437 -285 463 -242 q 371 -372 411 -329 q 348 -388 360 -383 q 325 -383 336 -393 m 0 -712 l 981 -712 l 981 -726 l 0 -726 l 0 -712 m 0 28 l 981 28 l 981 0 l 0 0 l 0 28 m 0 701 l 981 701 l 981 694 l 0 694 l 0 701 m 0 1435 l 981 1435 l 981 1421 l 0 1421 l 0 1435 z "},"Ŀ":{"ha":981,"x_min":0,"x_max":981,"o":"m 154 0 q 126 32 115 0 l 574 1415 q 587 1435 578 1429 q 617 1442 596 1442 q 645 1435 636 1442 q 649 1414 654 1429 l 214 69 l 821 69 q 839 61 836 69 q 836 35 842 53 q 823 8 832 17 q 800 0 814 0 l 154 0 m 844 668 q 804 681 821 668 q 788 719 788 694 q 809 779 788 753 q 868 806 831 806 q 908 794 892 806 q 924 756 924 782 q 903 696 924 724 q 844 668 883 668 m 0 -712 l 981 -712 l 981 -726 l 0 -726 l 0 -712 m 0 28 l 981 28 l 981 0 l 0 0 l 0 28 m 0 701 l 981 701 l 981 694 l 0 694 l 0 701 m 0 1435 l 981 1435 l 981 1421 l 0 1421 l 0 1435 z "},"Ł":{"ha":981,"x_min":0,"x_max":981,"o":"m 154 0 q 126 32 115 0 l 574 1415 q 587 1435 578 1429 q 617 1442 596 1442 q 645 1435 636 1442 q 649 1414 654 1429 l 214 69 l 821 69 q 839 61 836 69 q 836 35 842 53 q 823 8 832 17 q 800 0 814 0 l 154 0 m 208 622 q 184 622 192 617 q 172 644 176 628 q 173 672 169 661 q 192 688 176 682 l 678 875 q 701 876 694 881 q 713 856 707 871 q 697 813 722 822 l 208 622 m 0 -712 l 981 -712 l 981 -726 l 0 -726 l 0 -712 m 0 28 l 981 28 l 981 0 l 0 0 l 0 28 m 0 701 l 981 701 l 981 694 l 0 694 l 0 701 m 0 1435 l 981 1435 l 981 1421 l 0 1421 l 0 1435 z "},"Ń":{"ha":1393,"x_min":0,"x_max":1519,"o":"m 149 -19 q 118 7 110 -19 l 574 1415 q 588 1435 578 1429 q 615 1442 597 1442 q 642 1437 633 1442 q 654 1419 650 1432 l 1018 126 l 1435 1415 q 1450 1435 1440 1429 q 1481 1442 1460 1442 q 1510 1415 1519 1442 l 1056 7 q 1042 -13 1051 -7 q 1014 -19 1032 -19 q 990 -15 997 -19 q 978 3 982 -10 l 613 1300 l 194 7 q 180 -13 190 -7 q 149 -19 169 -19 m 1015 1513 q 994 1525 1006 1513 q 982 1546 982 1538 q 983 1554 982 1550 q 989 1564 983 1558 l 1224 1768 q 1235 1777 1231 1774 q 1246 1781 1239 1781 q 1266 1774 1256 1781 q 1283 1756 1276 1767 q 1290 1736 1290 1744 q 1289 1726 1290 1731 q 1279 1715 1288 1721 l 1035 1524 q 1024 1516 1028 1519 q 1015 1513 1021 1513 m 0 -712 l 1393 -712 l 1393 -726 l 0 -726 l 0 -712 m 0 28 l 1393 28 l 1393 0 l 0 0 l 0 28 m 0 701 l 1393 701 l 1393 694 l 0 694 l 0 701 m 0 1435 l 1393 1435 l 1393 1421 l 0 1421 l 0 1435 z "},"Ň":{"ha":1393,"x_min":0,"x_max":1519,"o":"m 149 -19 q 118 7 110 -19 l 574 1415 q 588 1435 578 1429 q 617 1442 597 1442 q 642 1437 633 1442 q 654 1419 650 1432 l 1018 126 l 1435 1415 q 1450 1435 1440 1429 q 1481 1442 1460 1442 q 1510 1415 1519 1442 l 1056 7 q 1042 -13 1051 -7 q 1014 -19 1032 -19 q 990 -15 997 -19 q 978 3 982 -10 l 613 1300 l 194 7 q 180 -13 190 -7 q 149 -19 169 -19 m 1356 1779 q 1377 1769 1368 1779 q 1386 1749 1386 1758 q 1383 1735 1386 1740 q 1374 1725 1381 1731 l 1122 1532 q 1099 1518 1108 1522 q 1078 1514 1089 1514 q 1060 1519 1068 1514 q 1044 1533 1053 1524 l 888 1729 q 883 1740 885 1735 q 881 1751 881 1746 q 892 1772 881 1764 q 914 1779 904 1779 q 928 1775 924 1779 q 940 1765 933 1771 l 1092 1604 l 1326 1764 q 1342 1775 1336 1771 q 1356 1779 1347 1779 m 0 -712 l 1393 -712 l 1393 -726 l 0 -726 l 0 -712 m 0 28 l 1393 28 l 1393 0 l 0 0 l 0 28 m 0 701 l 1393 701 l 1393 694 l 0 694 l 0 701 m 0 1435 l 1393 1435 l 1393 1421 l 0 1421 l 0 1435 z "},"Ņ":{"ha":1393,"x_min":0,"x_max":1519,"o":"m 149 -19 q 118 7 110 -19 l 574 1415 q 588 1435 578 1429 q 615 1442 597 1442 q 642 1437 633 1442 q 654 1419 650 1432 l 1018 126 l 1435 1415 q 1451 1435 1440 1429 q 1481 1442 1461 1442 q 1510 1415 1519 1442 l 1056 7 q 1042 -13 1051 -7 q 1014 -19 1032 -19 q 990 -15 997 -19 q 978 3 982 -10 l 613 1300 l 194 7 q 180 -13 190 -7 q 149 -19 169 -19 m 432 -383 q 420 -363 421 -374 q 428 -342 419 -353 q 474 -277 454 -308 q 504 -212 493 -246 q 519 -137 515 -179 q 531 -112 521 -119 q 558 -106 542 -106 q 588 -115 579 -106 q 596 -140 597 -124 q 583 -203 596 -165 q 544 -285 569 -242 q 478 -372 519 -329 q 456 -388 468 -383 q 432 -383 443 -393 m 0 -712 l 1393 -712 l 1393 -726 l 0 -726 l 0 -712 m 0 28 l 1393 28 l 1393 0 l 0 0 l 0 28 m 0 701 l 1393 701 l 1393 694 l 0 694 l 0 701 m 0 1435 l 1393 1435 l 1393 1421 l 0 1421 l 0 1435 z "},"Ñ":{"ha":1393,"x_min":0,"x_max":1519,"o":"m 149 -19 q 118 7 110 -19 l 574 1415 q 588 1435 578 1429 q 615 1442 597 1442 q 642 1437 633 1442 q 654 1419 650 1432 l 1018 126 l 1435 1415 q 1450 1435 1440 1429 q 1481 1442 1460 1442 q 1510 1415 1519 1442 l 1056 7 q 1042 -13 1051 -7 q 1014 -19 1032 -19 q 990 -15 997 -19 q 978 3 982 -10 l 613 1300 l 194 7 q 180 -13 190 -7 q 149 -19 169 -19 m 888 1557 q 861 1588 857 1557 q 906 1708 874 1668 q 994 1747 938 1747 q 1069 1730 1035 1747 q 1135 1690 1104 1713 q 1195 1649 1167 1667 q 1250 1632 1224 1632 q 1291 1653 1275 1632 q 1317 1721 1307 1675 q 1356 1750 1322 1750 q 1379 1743 1374 1750 q 1382 1719 1385 1736 q 1337 1601 1368 1640 q 1246 1561 1306 1561 q 1172 1578 1207 1561 q 1107 1619 1138 1596 q 1048 1659 1076 1642 q 992 1676 1019 1676 q 951 1655 967 1676 q 925 1585 936 1633 q 913 1564 922 1571 q 888 1557 904 1557 m 0 -712 l 1393 -712 l 1393 -726 l 0 -726 l 0 -712 m 0 28 l 1393 28 l 1393 0 l 0 0 l 0 28 m 0 701 l 1393 701 l 1393 694 l 0 694 l 0 701 m 0 1435 l 1393 1435 l 1393 1421 l 0 1421 l 0 1435 z "},"Ó":{"ha":1453,"x_min":0,"x_max":1467,"o":"m 672 -26 q 488 8 569 -26 q 347 106 406 42 q 258 263 289 171 q 226 474 226 356 q 251 699 226 585 q 324 921 276 813 q 442 1124 372 1029 q 599 1290 511 1218 q 794 1401 688 1361 q 1022 1442 901 1442 q 1208 1409 1126 1442 q 1348 1315 1290 1376 q 1436 1164 1406 1253 q 1467 964 1467 1075 q 1442 738 1467 854 q 1369 510 1417 622 q 1251 301 1321 399 q 1094 131 1182 204 q 899 15 1006 57 q 672 -26 793 -26 m 681 49 q 881 88 788 49 q 1052 195 974 126 q 1192 353 1131 264 q 1297 545 1254 443 q 1363 753 1340 647 q 1386 958 1386 858 q 1360 1135 1386 1058 q 1287 1263 1335 1211 q 1170 1341 1239 1314 q 1014 1368 1101 1368 q 815 1331 908 1368 q 643 1228 722 1294 q 501 1076 564 1163 q 396 890 439 990 q 330 686 353 790 q 307 479 307 582 q 333 296 307 376 q 406 160 358 215 q 523 77 454 106 q 681 49 592 49 m 1007 1513 q 984 1525 996 1513 q 972 1546 972 1538 q 974 1554 972 1550 q 981 1564 975 1558 l 1215 1768 q 1226 1777 1222 1774 q 1238 1781 1231 1781 q 1256 1774 1246 1781 q 1274 1756 1267 1767 q 1281 1736 1281 1744 q 1279 1726 1281 1731 q 1271 1715 1278 1721 l 1026 1524 q 1015 1516 1019 1519 q 1007 1513 1011 1513 m 0 -712 l 1453 -712 l 1453 -726 l 0 -726 l 0 -712 m 0 28 l 1453 28 l 1453 0 l 0 0 l 0 28 m 0 701 l 1453 701 l 1453 694 l 0 694 l 0 701 m 0 1435 l 1453 1435 l 1453 1421 l 0 1421 l 0 1435 z "},"Ŏ":{"ha":1453,"x_min":0,"x_max":1467,"o":"m 672 -26 q 488 8 569 -26 q 347 106 406 42 q 258 263 289 171 q 226 474 226 356 q 251 699 226 585 q 324 921 276 813 q 442 1124 372 1029 q 599 1290 511 1218 q 794 1401 688 1361 q 1022 1442 901 1442 q 1208 1409 1126 1442 q 1348 1315 1290 1376 q 1436 1164 1406 1253 q 1467 964 1467 1075 q 1442 738 1467 854 q 1369 510 1417 622 q 1251 301 1321 399 q 1094 131 1182 204 q 899 15 1006 57 q 672 -26 793 -26 m 681 49 q 881 88 788 49 q 1052 195 974 126 q 1192 353 1131 264 q 1297 545 1254 443 q 1363 753 1340 647 q 1386 958 1386 858 q 1360 1135 1386 1058 q 1287 1263 1335 1211 q 1170 1341 1239 1314 q 1014 1368 1101 1368 q 815 1331 908 1368 q 643 1228 722 1294 q 501 1076 564 1163 q 396 890 439 990 q 330 686 353 790 q 307 479 307 582 q 333 296 307 376 q 406 160 358 215 q 523 77 454 106 q 681 49 592 49 m 1082 1514 q 935 1574 982 1514 q 903 1753 888 1635 q 913 1774 904 1767 q 938 1781 921 1781 q 960 1774 953 1781 q 967 1753 968 1767 q 992 1631 960 1671 q 1090 1590 1024 1590 q 1224 1633 1168 1590 q 1306 1751 1281 1675 q 1319 1774 1311 1768 q 1344 1781 1328 1781 q 1368 1772 1360 1781 q 1372 1750 1376 1764 q 1308 1616 1349 1668 q 1210 1539 1267 1564 q 1082 1514 1153 1514 m 0 -712 l 1453 -712 l 1453 -726 l 0 -726 l 0 -712 m 0 28 l 1453 28 l 1453 0 l 0 0 l 0 28 m 0 701 l 1453 701 l 1453 694 l 0 694 l 0 701 m 0 1435 l 1453 1435 l 1453 1421 l 0 1421 l 0 1435 z "},"Ǒ":{"ha":1453,"x_min":0,"x_max":1467,"o":"m 672 -26 q 488 8 569 -26 q 347 106 406 42 q 258 263 289 171 q 226 474 226 356 q 251 699 226 585 q 324 921 276 813 q 442 1124 372 1029 q 599 1290 511 1218 q 794 1401 688 1361 q 1022 1442 901 1442 q 1208 1409 1126 1442 q 1348 1315 1290 1376 q 1436 1164 1406 1253 q 1467 964 1467 1075 q 1442 738 1467 854 q 1369 510 1417 622 q 1251 301 1321 399 q 1094 131 1182 204 q 899 15 1006 57 q 672 -26 793 -26 m 681 49 q 881 88 788 49 q 1052 195 974 126 q 1192 353 1131 264 q 1297 545 1254 443 q 1363 753 1340 647 q 1386 958 1386 858 q 1360 1135 1386 1058 q 1287 1263 1335 1211 q 1170 1341 1239 1314 q 1014 1368 1101 1368 q 815 1331 908 1368 q 643 1228 722 1294 q 501 1076 564 1163 q 396 890 439 990 q 330 686 353 790 q 307 479 307 582 q 333 296 307 376 q 406 160 358 215 q 523 77 454 106 q 681 49 592 49 m 1347 1779 q 1368 1769 1358 1779 q 1378 1749 1378 1758 q 1375 1735 1378 1740 q 1365 1725 1372 1731 l 1113 1532 q 1090 1518 1099 1522 q 1069 1514 1081 1514 q 1052 1519 1060 1514 q 1036 1533 1044 1524 l 879 1729 q 873 1740 875 1735 q 871 1751 871 1746 q 883 1772 871 1764 q 906 1779 896 1779 q 920 1775 915 1779 q 931 1765 925 1771 l 1083 1604 l 1317 1764 q 1333 1775 1328 1771 q 1347 1779 1339 1779 m 0 -712 l 1453 -712 l 1453 -726 l 0 -726 l 0 -712 m 0 28 l 1453 28 l 1453 0 l 0 0 l 0 28 m 0 701 l 1453 701 l 1453 694 l 0 694 l 0 701 m 0 1435 l 1453 1435 l 1453 1421 l 0 1421 l 0 1435 z "},"Ô":{"ha":1453,"x_min":0,"x_max":1467,"o":"m 672 -26 q 488 8 569 -26 q 347 106 406 42 q 258 263 289 171 q 226 474 226 356 q 251 699 226 585 q 324 921 276 813 q 442 1124 372 1029 q 599 1290 511 1218 q 794 1401 688 1361 q 1022 1442 901 1442 q 1208 1409 1126 1442 q 1348 1315 1290 1376 q 1436 1164 1406 1253 q 1467 964 1467 1075 q 1442 738 1467 854 q 1369 510 1417 622 q 1251 301 1321 399 q 1094 131 1182 204 q 899 15 1006 57 q 672 -26 793 -26 m 681 49 q 881 88 788 49 q 1052 195 974 126 q 1192 353 1131 264 q 1297 545 1254 443 q 1363 753 1340 647 q 1386 958 1386 858 q 1360 1135 1386 1058 q 1287 1263 1335 1211 q 1170 1341 1239 1314 q 1014 1368 1101 1368 q 815 1331 908 1368 q 643 1228 722 1294 q 501 1076 564 1163 q 396 890 439 990 q 330 686 353 790 q 307 479 307 582 q 333 296 307 376 q 406 160 358 215 q 523 77 454 106 q 681 49 592 49 m 868 1513 q 847 1522 856 1513 q 838 1542 838 1532 q 841 1555 838 1550 q 850 1565 844 1560 l 1103 1758 q 1125 1774 1115 1769 q 1146 1778 1135 1778 q 1163 1773 1156 1778 q 1179 1757 1171 1768 l 1336 1563 q 1342 1551 1340 1557 q 1344 1540 1344 1546 q 1333 1520 1344 1528 q 1311 1513 1321 1513 q 1297 1516 1303 1513 q 1285 1526 1290 1519 l 1132 1686 l 899 1525 q 882 1515 889 1518 q 868 1513 875 1513 m 0 -712 l 1453 -712 l 1453 -726 l 0 -726 l 0 -712 m 0 28 l 1453 28 l 1453 0 l 0 0 l 0 28 m 0 701 l 1453 701 l 1453 694 l 0 694 l 0 701 m 0 1435 l 1453 1435 l 1453 1421 l 0 1421 l 0 1435 z "},"Ö":{"ha":1453,"x_min":0,"x_max":1467,"o":"m 672 -26 q 488 8 569 -26 q 347 106 406 42 q 258 263 289 171 q 226 474 226 356 q 251 699 226 585 q 324 921 276 813 q 442 1124 372 1029 q 599 1290 511 1218 q 794 1401 688 1361 q 1022 1442 901 1442 q 1208 1409 1126 1442 q 1348 1315 1290 1376 q 1436 1164 1406 1253 q 1467 964 1467 1075 q 1442 738 1467 854 q 1369 510 1417 622 q 1251 301 1321 399 q 1094 131 1182 204 q 899 15 1006 57 q 672 -26 793 -26 m 681 49 q 881 88 788 49 q 1052 195 974 126 q 1192 353 1131 264 q 1297 545 1254 443 q 1363 753 1340 647 q 1386 958 1386 858 q 1360 1135 1386 1058 q 1287 1263 1335 1211 q 1170 1341 1239 1314 q 1014 1368 1101 1368 q 815 1331 908 1368 q 643 1228 722 1294 q 501 1076 564 1163 q 396 890 439 990 q 330 686 353 790 q 307 479 307 582 q 333 296 307 376 q 406 160 358 215 q 523 77 454 106 q 681 49 592 49 m 922 1565 q 881 1577 897 1565 q 865 1614 865 1589 q 886 1674 865 1647 q 946 1701 907 1701 q 985 1689 969 1701 q 1001 1651 1001 1676 q 981 1592 1001 1618 q 922 1565 961 1565 m 1264 1565 q 1223 1577 1239 1565 q 1207 1614 1207 1589 q 1228 1674 1207 1647 q 1288 1701 1249 1701 q 1327 1689 1311 1701 q 1343 1651 1343 1676 q 1323 1592 1343 1618 q 1264 1565 1303 1565 m 0 -712 l 1453 -712 l 1453 -726 l 0 -726 l 0 -712 m 0 28 l 1453 28 l 1453 0 l 0 0 l 0 28 m 0 701 l 1453 701 l 1453 694 l 0 694 l 0 701 m 0 1435 l 1453 1435 l 1453 1421 l 0 1421 l 0 1435 z "},"Ò":{"ha":1453,"x_min":0,"x_max":1467,"o":"m 672 -26 q 488 8 569 -26 q 347 106 406 42 q 258 263 289 171 q 226 474 226 356 q 251 699 226 585 q 324 921 276 813 q 442 1124 372 1029 q 599 1290 511 1218 q 794 1401 688 1361 q 1022 1442 901 1442 q 1208 1409 1126 1442 q 1348 1315 1290 1376 q 1436 1164 1406 1253 q 1467 964 1467 1075 q 1442 738 1467 854 q 1369 510 1417 622 q 1251 301 1321 399 q 1094 131 1182 204 q 899 15 1006 57 q 672 -26 793 -26 m 681 49 q 881 88 788 49 q 1052 195 974 126 q 1192 353 1131 264 q 1297 545 1254 443 q 1363 753 1340 647 q 1386 958 1386 858 q 1360 1135 1386 1058 q 1287 1263 1335 1211 q 1170 1341 1239 1314 q 1014 1368 1101 1368 q 815 1331 908 1368 q 643 1228 722 1294 q 501 1076 564 1163 q 396 890 439 990 q 330 686 353 790 q 307 479 307 582 q 333 296 307 376 q 406 160 358 215 q 523 77 454 106 q 681 49 592 49 m 1158 1513 q 1150 1516 1154 1513 q 1139 1524 1146 1519 l 925 1714 q 917 1725 918 1721 q 915 1735 915 1729 q 923 1756 915 1744 q 941 1774 931 1767 q 961 1781 951 1781 q 971 1778 967 1781 q 981 1768 975 1775 l 1186 1564 q 1192 1555 1192 1560 q 1193 1547 1193 1550 q 1181 1525 1193 1538 q 1158 1513 1169 1513 m 0 -712 l 1453 -712 l 1453 -726 l 0 -726 l 0 -712 m 0 28 l 1453 28 l 1453 0 l 0 0 l 0 28 m 0 701 l 1453 701 l 1453 694 l 0 694 l 0 701 m 0 1435 l 1453 1435 l 1453 1421 l 0 1421 l 0 1435 z "},"Ő":{"ha":1453,"x_min":0,"x_max":1467,"o":"m 672 -26 q 488 8 569 -26 q 347 106 406 42 q 258 263 289 171 q 226 474 226 356 q 251 699 226 585 q 324 921 276 813 q 442 1124 372 1029 q 599 1290 511 1218 q 794 1401 688 1361 q 1022 1442 901 1442 q 1208 1409 1126 1442 q 1348 1315 1290 1376 q 1436 1164 1406 1253 q 1467 965 1467 1075 q 1442 738 1467 854 q 1369 510 1417 622 q 1251 301 1321 399 q 1094 131 1182 204 q 899 15 1006 57 q 672 -26 793 -26 m 681 49 q 881 88 788 49 q 1052 195 974 126 q 1192 353 1131 264 q 1297 545 1254 443 q 1363 753 1340 647 q 1386 960 1386 858 q 1360 1135 1386 1058 q 1287 1263 1335 1211 q 1170 1341 1239 1314 q 1014 1368 1101 1368 q 815 1331 908 1368 q 643 1228 722 1294 q 501 1076 564 1163 q 396 890 439 990 q 330 686 353 790 q 307 479 307 582 q 333 296 307 376 q 406 160 358 215 q 524 77 454 106 q 681 49 593 49 m 929 1513 q 908 1525 919 1513 q 896 1547 896 1538 q 897 1554 896 1550 q 903 1564 897 1558 l 1131 1768 q 1140 1777 1136 1774 q 1151 1781 1144 1781 q 1170 1774 1160 1781 q 1188 1756 1181 1767 q 1196 1736 1196 1744 q 1194 1726 1196 1731 q 1185 1715 1192 1721 l 949 1524 q 938 1516 943 1519 q 929 1513 933 1513 m 1176 1513 q 1153 1525 1165 1513 q 1142 1547 1142 1538 q 1142 1554 1142 1550 q 1149 1564 1143 1558 l 1376 1768 q 1387 1777 1382 1774 q 1397 1781 1392 1781 q 1417 1774 1407 1781 q 1435 1756 1428 1767 q 1442 1736 1442 1744 q 1440 1726 1442 1731 q 1431 1715 1439 1721 l 1194 1524 q 1185 1516 1189 1519 q 1176 1513 1181 1513 m 0 -712 l 1453 -712 l 1453 -726 l 0 -726 l 0 -712 m 0 28 l 1453 28 l 1453 0 l 0 0 l 0 28 m 0 701 l 1453 701 l 1453 694 l 0 694 l 0 701 m 0 1435 l 1453 1435 l 1453 1421 l 0 1421 l 0 1435 z "},"Ō":{"ha":1453,"x_min":0,"x_max":1467,"o":"m 672 -26 q 488 8 569 -26 q 347 106 406 42 q 258 263 289 171 q 226 474 226 356 q 251 699 226 585 q 324 921 276 813 q 442 1124 372 1029 q 599 1290 511 1218 q 794 1401 688 1361 q 1022 1442 901 1442 q 1208 1409 1126 1442 q 1348 1315 1290 1376 q 1436 1164 1406 1253 q 1467 964 1467 1075 q 1442 738 1467 854 q 1369 510 1417 622 q 1251 301 1321 399 q 1094 131 1182 204 q 899 15 1006 57 q 672 -26 793 -26 m 681 49 q 881 88 788 49 q 1052 195 974 126 q 1192 353 1131 264 q 1297 545 1254 443 q 1363 753 1340 647 q 1386 958 1386 858 q 1360 1135 1386 1058 q 1287 1263 1335 1211 q 1170 1341 1239 1314 q 1014 1368 1101 1368 q 815 1331 908 1368 q 643 1228 722 1294 q 501 1076 564 1163 q 396 890 439 990 q 330 686 353 790 q 307 479 307 582 q 333 296 307 376 q 406 160 358 215 q 523 77 454 106 q 681 49 592 49 m 913 1611 q 892 1620 896 1611 q 893 1646 889 1629 q 908 1674 899 1664 q 932 1683 917 1683 l 1313 1683 q 1333 1673 1329 1683 q 1332 1646 1336 1663 q 1317 1619 1326 1628 q 1292 1611 1308 1611 l 913 1611 m 0 -712 l 1453 -712 l 1453 -726 l 0 -726 l 0 -712 m 0 28 l 1453 28 l 1453 0 l 0 0 l 0 28 m 0 701 l 1453 701 l 1453 694 l 0 694 l 0 701 m 0 1435 l 1453 1435 l 1453 1421 l 0 1421 l 0 1435 z "},"Ø":{"ha":1453,"x_min":0,"x_max":1507,"o":"m 672 -26 q 488 8 569 -26 q 347 106 406 42 q 258 263 289 171 q 226 474 226 356 q 251 699 226 585 q 324 921 276 813 q 442 1124 372 1029 q 599 1290 511 1218 q 794 1401 688 1361 q 1022 1442 901 1442 q 1208 1409 1126 1442 q 1348 1315 1290 1376 q 1436 1164 1406 1253 q 1467 964 1467 1075 q 1442 738 1467 854 q 1369 510 1417 622 q 1251 301 1321 399 q 1094 131 1182 204 q 899 15 1006 57 q 672 -26 793 -26 m 681 49 q 881 88 788 49 q 1052 195 974 126 q 1192 353 1131 264 q 1297 545 1254 443 q 1363 753 1340 647 q 1386 958 1386 858 q 1360 1135 1386 1058 q 1287 1263 1335 1211 q 1170 1341 1239 1314 q 1014 1368 1101 1368 q 815 1331 908 1368 q 643 1228 722 1294 q 501 1076 564 1163 q 396 890 439 990 q 330 686 353 790 q 307 479 307 582 q 333 296 307 376 q 406 160 358 215 q 523 77 454 106 q 681 49 592 49 m 247 -32 q 226 -44 239 -43 q 199 -33 214 -44 q 190 14 172 -8 l 1442 1440 q 1463 1453 1450 1453 q 1490 1440 1476 1453 q 1504 1419 1501 1431 q 1496 1394 1507 1407 l 247 -32 m 0 -712 l 1453 -712 l 1453 -726 l 0 -726 l 0 -712 m 0 28 l 1453 28 l 1453 0 l 0 0 l 0 28 m 0 701 l 1453 701 l 1453 694 l 0 694 l 0 701 m 0 1435 l 1453 1435 l 1453 1421 l 0 1421 l 0 1435 z "},"Õ":{"ha":1453,"x_min":0,"x_max":1467,"o":"m 672 -26 q 488 8 569 -26 q 347 106 406 42 q 258 263 289 171 q 226 474 226 356 q 251 699 226 585 q 324 921 276 813 q 442 1124 372 1029 q 599 1290 511 1218 q 794 1401 688 1361 q 1022 1442 901 1442 q 1208 1409 1126 1442 q 1348 1315 1290 1376 q 1436 1164 1406 1253 q 1467 964 1467 1075 q 1442 738 1467 854 q 1369 510 1417 622 q 1251 301 1321 399 q 1094 131 1182 204 q 899 15 1006 57 q 672 -26 793 -26 m 681 49 q 881 88 788 49 q 1052 195 974 126 q 1192 353 1131 264 q 1297 545 1254 443 q 1363 753 1340 647 q 1386 958 1386 858 q 1360 1135 1386 1058 q 1287 1263 1335 1211 q 1170 1341 1239 1314 q 1014 1368 1101 1368 q 815 1331 908 1368 q 643 1228 722 1294 q 501 1076 564 1163 q 396 890 439 990 q 330 686 353 790 q 307 479 307 582 q 333 296 307 376 q 406 160 358 215 q 523 77 454 106 q 681 49 592 49 m 879 1557 q 851 1588 849 1557 q 897 1708 865 1668 q 986 1747 929 1747 q 1061 1730 1026 1747 q 1126 1690 1096 1713 q 1185 1649 1157 1667 q 1242 1632 1214 1632 q 1282 1653 1267 1632 q 1308 1721 1297 1675 q 1346 1750 1313 1750 q 1370 1743 1364 1750 q 1374 1719 1376 1736 q 1328 1601 1360 1640 q 1238 1561 1297 1561 q 1163 1578 1197 1561 q 1099 1619 1129 1596 q 1040 1659 1068 1642 q 982 1676 1011 1676 q 942 1655 958 1676 q 915 1585 926 1633 q 904 1564 913 1571 q 879 1557 896 1557 m 0 -712 l 1453 -712 l 1453 -726 l 0 -726 l 0 -712 m 0 28 l 1453 28 l 1453 0 l 0 0 l 0 28 m 0 701 l 1453 701 l 1453 694 l 0 694 l 0 701 m 0 1435 l 1453 1435 l 1453 1421 l 0 1421 l 0 1435 z "},"Ố":{"ha":1453,"x_min":0,"x_max":1581,"o":"m 672 -26 q 488 8 569 -26 q 347 106 406 42 q 258 263 289 171 q 226 474 226 356 q 251 699 226 585 q 324 921 276 813 q 442 1124 372 1029 q 599 1290 511 1218 q 794 1401 688 1361 q 1022 1442 901 1442 q 1208 1409 1126 1442 q 1348 1315 1290 1376 q 1436 1164 1406 1253 q 1467 964 1467 1075 q 1442 738 1467 854 q 1369 510 1417 622 q 1251 301 1321 399 q 1094 131 1182 204 q 899 15 1006 57 q 672 -26 793 -26 m 681 49 q 881 88 788 49 q 1052 195 974 126 q 1192 353 1131 264 q 1297 545 1254 443 q 1363 753 1340 647 q 1386 958 1386 858 q 1360 1135 1386 1058 q 1287 1263 1335 1211 q 1170 1341 1239 1314 q 1014 1368 1101 1368 q 815 1331 908 1368 q 643 1228 722 1294 q 501 1076 564 1163 q 396 890 439 990 q 330 686 353 790 q 307 479 307 582 q 333 296 307 376 q 406 160 358 215 q 523 77 454 106 q 681 49 592 49 m 868 1513 q 847 1522 856 1513 q 838 1542 838 1532 q 841 1555 838 1550 q 850 1565 844 1560 l 1103 1758 q 1125 1774 1115 1769 q 1146 1778 1135 1778 q 1163 1773 1156 1778 q 1179 1757 1171 1768 l 1336 1563 q 1342 1551 1340 1557 q 1344 1540 1344 1546 q 1333 1520 1344 1528 q 1311 1513 1321 1513 q 1297 1516 1303 1513 q 1285 1526 1290 1519 l 1132 1686 l 899 1525 q 882 1515 889 1518 q 868 1513 875 1513 m 1333 1722 q 1310 1734 1322 1722 q 1299 1756 1299 1746 q 1299 1764 1299 1760 q 1307 1774 1300 1768 l 1514 1960 q 1525 1969 1521 1965 q 1536 1972 1529 1972 q 1555 1965 1544 1972 q 1573 1947 1565 1957 q 1581 1928 1581 1936 q 1578 1917 1581 1921 q 1569 1907 1576 1913 l 1351 1733 q 1341 1725 1346 1728 q 1333 1722 1336 1722 m 0 -712 l 1453 -712 l 1453 -726 l 0 -726 l 0 -712 m 0 28 l 1453 28 l 1453 0 l 0 0 l 0 28 m 0 701 l 1453 701 l 1453 694 l 0 694 l 0 701 m 0 1435 l 1453 1435 l 1453 1421 l 0 1421 l 0 1435 z "},"Ộ":{"ha":1453,"x_min":0,"x_max":1467,"o":"m 672 -26 q 488 8 569 -26 q 347 106 406 42 q 258 263 289 171 q 226 474 226 356 q 251 699 226 585 q 324 921 276 813 q 442 1124 372 1029 q 599 1290 511 1218 q 794 1401 688 1361 q 1022 1442 901 1442 q 1208 1409 1126 1442 q 1348 1315 1290 1376 q 1436 1164 1406 1253 q 1467 964 1467 1075 q 1442 738 1467 854 q 1369 510 1417 622 q 1251 301 1321 399 q 1094 131 1182 204 q 899 15 1006 57 q 672 -26 793 -26 m 681 49 q 881 88 788 49 q 1052 195 974 126 q 1192 353 1131 264 q 1297 545 1254 443 q 1363 753 1340 647 q 1386 958 1386 858 q 1360 1135 1386 1058 q 1287 1263 1335 1211 q 1170 1341 1239 1314 q 1014 1368 1101 1368 q 815 1331 908 1368 q 643 1228 722 1294 q 501 1076 564 1163 q 396 890 439 990 q 330 686 353 790 q 307 479 307 582 q 333 296 307 376 q 406 160 358 215 q 523 77 454 106 q 681 49 592 49 m 522 -304 q 483 -292 499 -304 q 467 -254 467 -279 q 488 -194 467 -221 q 547 -167 508 -167 q 587 -179 571 -167 q 603 -217 603 -192 q 583 -277 603 -250 q 522 -304 563 -304 m 868 1513 q 847 1522 856 1513 q 838 1542 838 1532 q 841 1555 838 1550 q 850 1565 844 1560 l 1103 1758 q 1125 1774 1115 1769 q 1146 1778 1135 1778 q 1163 1773 1156 1778 q 1179 1757 1171 1768 l 1336 1563 q 1342 1551 1340 1557 q 1344 1540 1344 1546 q 1333 1520 1344 1528 q 1311 1513 1321 1513 q 1297 1516 1303 1513 q 1285 1526 1290 1519 l 1132 1686 l 899 1525 q 882 1515 889 1518 q 868 1513 875 1513 m 0 -712 l 1453 -712 l 1453 -726 l 0 -726 l 0 -712 m 0 28 l 1453 28 l 1453 0 l 0 0 l 0 28 m 0 701 l 1453 701 l 1453 694 l 0 694 l 0 701 m 0 1435 l 1453 1435 l 1453 1421 l 0 1421 l 0 1435 z "},"Ồ":{"ha":1453,"x_min":0,"x_max":1467,"o":"m 672 -26 q 488 8 569 -26 q 347 106 406 42 q 258 263 289 171 q 226 474 226 356 q 251 699 226 585 q 324 921 276 813 q 442 1124 372 1029 q 599 1290 511 1218 q 794 1401 688 1361 q 1022 1442 901 1442 q 1208 1409 1126 1442 q 1348 1315 1290 1376 q 1436 1164 1406 1253 q 1467 964 1467 1075 q 1442 738 1467 854 q 1369 510 1417 622 q 1251 301 1321 399 q 1094 131 1182 204 q 899 15 1006 57 q 672 -26 793 -26 m 681 49 q 881 88 788 49 q 1052 195 974 126 q 1192 353 1131 264 q 1297 545 1254 443 q 1363 753 1340 647 q 1386 958 1386 858 q 1360 1135 1386 1058 q 1287 1263 1335 1211 q 1170 1341 1239 1314 q 1014 1368 1101 1368 q 815 1331 908 1368 q 643 1228 722 1294 q 501 1076 564 1163 q 396 890 439 990 q 330 686 353 790 q 307 479 307 582 q 333 296 307 376 q 406 160 358 215 q 523 77 454 106 q 681 49 592 49 m 868 1513 q 847 1522 856 1513 q 838 1542 838 1532 q 841 1555 838 1550 q 850 1565 844 1560 l 1103 1758 q 1125 1774 1115 1769 q 1146 1778 1135 1778 q 1163 1773 1156 1778 q 1179 1757 1171 1768 l 1336 1563 q 1342 1551 1340 1557 q 1344 1540 1344 1546 q 1333 1520 1344 1528 q 1311 1513 1321 1513 q 1297 1516 1303 1513 q 1285 1526 1290 1519 l 1132 1686 l 899 1525 q 882 1515 889 1518 q 868 1513 875 1513 m 1424 1696 q 1414 1698 1418 1696 q 1404 1706 1410 1700 l 1213 1914 q 1205 1925 1207 1921 q 1203 1935 1203 1929 q 1210 1955 1203 1944 q 1229 1973 1218 1965 q 1250 1981 1240 1981 q 1262 1977 1257 1981 q 1272 1968 1267 1974 l 1451 1749 q 1458 1739 1457 1743 q 1458 1731 1458 1735 q 1447 1708 1458 1719 q 1424 1696 1435 1696 m 0 -712 l 1453 -712 l 1453 -726 l 0 -726 l 0 -712 m 0 28 l 1453 28 l 1453 0 l 0 0 l 0 28 m 0 701 l 1453 701 l 1453 694 l 0 694 l 0 701 m 0 1435 l 1453 1435 l 1453 1421 l 0 1421 l 0 1435 z "},"Ổ":{"ha":1453,"x_min":0,"x_max":1524,"o":"m 672 -26 q 488 8 569 -26 q 347 106 406 42 q 258 263 289 171 q 226 474 226 356 q 251 699 226 585 q 324 921 276 813 q 442 1124 372 1029 q 599 1290 511 1218 q 794 1401 688 1361 q 1022 1442 901 1442 q 1208 1409 1126 1442 q 1348 1315 1290 1376 q 1436 1164 1406 1253 q 1467 964 1467 1075 q 1442 738 1467 854 q 1369 510 1417 622 q 1251 301 1321 399 q 1094 131 1182 204 q 899 15 1006 57 q 672 -26 793 -26 m 681 49 q 881 88 788 49 q 1052 195 974 126 q 1192 353 1131 264 q 1297 545 1254 443 q 1363 753 1340 647 q 1386 958 1386 858 q 1360 1135 1386 1058 q 1287 1263 1335 1211 q 1170 1341 1239 1314 q 1014 1368 1101 1368 q 815 1331 908 1368 q 643 1228 722 1294 q 501 1076 564 1163 q 396 890 439 990 q 330 686 353 790 q 307 479 307 582 q 333 296 307 376 q 406 160 358 215 q 523 77 454 106 q 681 49 592 49 m 868 1513 q 847 1522 856 1513 q 838 1542 838 1532 q 841 1555 838 1550 q 850 1565 844 1560 l 1103 1758 q 1125 1774 1115 1769 q 1146 1778 1135 1778 q 1163 1773 1156 1778 q 1179 1757 1171 1768 l 1336 1563 q 1342 1551 1340 1557 q 1344 1540 1344 1546 q 1333 1520 1344 1528 q 1311 1513 1321 1513 q 1297 1516 1303 1513 q 1285 1526 1290 1519 l 1132 1686 l 899 1525 q 882 1515 889 1518 q 868 1513 875 1513 m 1403 1976 q 1492 1949 1460 1976 q 1524 1881 1524 1922 q 1502 1818 1524 1846 q 1438 1764 1481 1790 q 1401 1734 1413 1750 q 1390 1701 1390 1718 l 1390 1679 q 1379 1660 1389 1667 q 1357 1654 1369 1654 q 1335 1660 1344 1654 q 1325 1676 1325 1667 l 1324 1706 q 1339 1767 1322 1743 q 1386 1810 1356 1792 q 1428 1842 1415 1826 q 1442 1872 1442 1857 q 1428 1900 1442 1890 q 1388 1910 1414 1910 q 1341 1903 1363 1910 q 1294 1885 1319 1897 q 1256 1899 1269 1869 q 1271 1940 1244 1925 q 1331 1967 1297 1957 q 1403 1976 1365 1976 m 0 -712 l 1453 -712 l 1453 -726 l 0 -726 l 0 -712 m 0 28 l 1453 28 l 1453 0 l 0 0 l 0 28 m 0 701 l 1453 701 l 1453 694 l 0 694 l 0 701 m 0 1435 l 1453 1435 l 1453 1421 l 0 1421 l 0 1435 z "},"Ỗ":{"ha":1453,"x_min":0,"x_max":1467,"o":"m 672 -26 q 488 8 569 -26 q 347 106 406 42 q 258 263 289 171 q 226 474 226 356 q 251 699 226 585 q 324 921 276 813 q 442 1124 372 1029 q 599 1290 511 1218 q 794 1401 688 1361 q 1022 1442 901 1442 q 1208 1409 1126 1442 q 1348 1315 1290 1376 q 1436 1164 1406 1253 q 1467 964 1467 1075 q 1442 738 1467 854 q 1369 510 1417 622 q 1251 301 1321 399 q 1094 131 1182 204 q 899 15 1006 57 q 672 -26 793 -26 m 681 49 q 881 88 788 49 q 1052 195 974 126 q 1192 353 1131 264 q 1297 545 1254 443 q 1363 753 1340 647 q 1386 958 1386 858 q 1360 1135 1386 1058 q 1287 1263 1335 1211 q 1170 1341 1239 1314 q 1014 1368 1101 1368 q 815 1331 908 1368 q 643 1228 722 1294 q 501 1076 564 1163 q 396 890 439 990 q 330 686 353 790 q 307 479 307 582 q 333 296 307 376 q 406 160 358 215 q 523 77 454 106 q 681 49 592 49 m 868 1513 q 847 1522 856 1513 q 838 1542 838 1532 q 841 1555 838 1550 q 850 1565 844 1560 l 1103 1758 q 1125 1774 1115 1769 q 1146 1778 1135 1778 q 1163 1773 1156 1778 q 1179 1757 1171 1768 l 1336 1563 q 1342 1551 1340 1557 q 1344 1540 1344 1546 q 1333 1520 1344 1528 q 1311 1513 1321 1513 q 1297 1516 1303 1513 q 1285 1526 1290 1519 l 1132 1686 l 899 1525 q 882 1515 889 1518 q 868 1513 875 1513 m 943 1800 q 917 1831 914 1800 q 963 1951 931 1911 q 1051 1990 994 1990 q 1126 1973 1092 1990 q 1192 1933 1161 1956 q 1251 1892 1222 1910 q 1307 1875 1279 1875 q 1347 1897 1331 1875 q 1372 1964 1363 1918 q 1411 1993 1378 1993 q 1435 1986 1429 1993 q 1438 1963 1442 1979 q 1394 1844 1425 1883 q 1303 1804 1363 1804 q 1228 1822 1263 1804 q 1164 1863 1194 1840 q 1104 1902 1133 1885 q 1047 1919 1075 1919 q 1008 1898 1024 1919 q 981 1828 992 1876 q 969 1807 978 1814 q 943 1800 960 1800 m 0 -712 l 1453 -712 l 1453 -726 l 0 -726 l 0 -712 m 0 28 l 1453 28 l 1453 0 l 0 0 l 0 28 m 0 701 l 1453 701 l 1453 694 l 0 694 l 0 701 m 0 1435 l 1453 1435 l 1453 1421 l 0 1421 l 0 1435 z "},"Ọ":{"ha":1453,"x_min":0,"x_max":1467,"o":"m 672 -26 q 488 8 569 -26 q 347 106 406 42 q 258 263 289 171 q 226 474 226 356 q 251 699 226 585 q 324 921 276 813 q 442 1124 372 1029 q 599 1290 511 1218 q 794 1401 688 1361 q 1022 1442 901 1442 q 1208 1409 1126 1442 q 1348 1315 1290 1376 q 1436 1164 1406 1253 q 1467 964 1467 1075 q 1442 738 1467 854 q 1369 510 1417 622 q 1251 301 1321 399 q 1094 131 1182 204 q 899 15 1006 57 q 672 -26 793 -26 m 681 49 q 881 88 788 49 q 1052 195 974 126 q 1192 353 1131 264 q 1297 545 1254 443 q 1363 753 1340 647 q 1386 958 1386 858 q 1360 1135 1386 1058 q 1287 1263 1335 1211 q 1170 1341 1239 1314 q 1014 1368 1101 1368 q 815 1331 908 1368 q 643 1228 722 1294 q 501 1076 564 1163 q 396 890 439 990 q 330 686 353 790 q 307 479 307 582 q 333 296 307 376 q 406 160 358 215 q 523 77 454 106 q 681 49 592 49 m 522 -304 q 483 -292 499 -304 q 467 -254 467 -279 q 488 -194 467 -221 q 547 -167 508 -167 q 587 -179 571 -167 q 603 -217 603 -192 q 583 -277 603 -250 q 522 -304 563 -304 m 0 -712 l 1453 -712 l 1453 -726 l 0 -726 l 0 -712 m 0 28 l 1453 28 l 1453 0 l 0 0 l 0 28 m 0 701 l 1453 701 l 1453 694 l 0 694 l 0 701 m 0 1435 l 1453 1435 l 1453 1421 l 0 1421 l 0 1435 z "},"Ỏ":{"ha":1453,"x_min":0,"x_max":1467,"o":"m 672 -26 q 488 8 569 -26 q 347 106 406 42 q 258 263 289 171 q 226 474 226 356 q 251 699 226 585 q 324 921 276 813 q 442 1124 372 1029 q 599 1290 511 1218 q 794 1401 688 1361 q 1022 1442 901 1442 q 1208 1409 1126 1442 q 1348 1315 1290 1376 q 1436 1164 1406 1253 q 1467 964 1467 1075 q 1442 738 1467 854 q 1369 510 1417 622 q 1251 301 1321 399 q 1094 131 1182 204 q 899 15 1006 57 q 672 -26 793 -26 m 681 49 q 881 88 788 49 q 1052 195 974 126 q 1192 353 1131 264 q 1297 545 1254 443 q 1363 753 1340 647 q 1386 958 1386 858 q 1360 1135 1386 1058 q 1287 1263 1335 1211 q 1170 1341 1239 1314 q 1014 1368 1101 1368 q 815 1331 908 1368 q 643 1228 722 1294 q 501 1076 564 1163 q 396 890 439 990 q 330 686 353 790 q 307 479 307 582 q 333 296 307 376 q 406 160 358 215 q 523 77 454 106 q 681 49 592 49 m 1131 1819 q 1219 1792 1188 1819 q 1251 1724 1251 1765 q 1230 1660 1251 1689 q 1165 1607 1208 1632 q 1130 1577 1140 1593 q 1119 1544 1119 1561 l 1118 1522 q 1108 1503 1118 1508 q 1085 1497 1099 1497 q 1063 1503 1072 1497 q 1053 1519 1053 1508 l 1051 1547 q 1067 1610 1050 1585 q 1114 1653 1085 1635 q 1157 1683 1143 1668 q 1171 1715 1171 1699 q 1156 1743 1171 1733 q 1115 1753 1142 1753 q 1069 1747 1092 1753 q 1024 1728 1047 1740 q 983 1742 997 1713 q 999 1783 972 1767 q 1059 1810 1025 1800 q 1131 1819 1093 1819 m 0 -712 l 1453 -712 l 1453 -726 l 0 -726 l 0 -712 m 0 28 l 1453 28 l 1453 0 l 0 0 l 0 28 m 0 701 l 1453 701 l 1453 694 l 0 694 l 0 701 m 0 1435 l 1453 1435 l 1453 1421 l 0 1421 l 0 1435 z "},"Ơ":{"ha":1453,"x_min":0,"x_max":1532,"o":"m 672 -26 q 488 8 569 -26 q 347 106 406 42 q 258 263 289 171 q 226 474 226 356 q 251 699 226 585 q 324 921 276 813 q 442 1124 372 1029 q 599 1290 511 1218 q 794 1401 688 1361 q 1022 1442 901 1442 q 1131 1431 1081 1442 q 1222 1396 1181 1419 q 1344 1415 1296 1399 q 1417 1465 1392 1432 q 1450 1547 1443 1497 q 1449 1668 1457 1597 q 1457 1690 1447 1682 q 1481 1700 1467 1699 q 1507 1697 1496 1701 q 1521 1678 1518 1692 q 1526 1554 1532 1610 q 1494 1456 1519 1499 q 1421 1386 1468 1413 q 1303 1351 1374 1360 q 1424 1193 1381 1292 q 1467 964 1467 1094 q 1442 738 1467 854 q 1369 510 1417 622 q 1251 301 1321 399 q 1094 131 1182 204 q 899 15 1006 57 q 672 -26 793 -26 m 681 49 q 881 88 788 49 q 1052 195 974 126 q 1192 353 1131 264 q 1297 545 1254 443 q 1363 753 1340 647 q 1386 958 1386 858 q 1360 1135 1386 1058 q 1287 1263 1335 1211 q 1170 1341 1239 1314 q 1014 1368 1101 1368 q 815 1331 908 1368 q 643 1228 722 1294 q 501 1076 564 1163 q 396 890 439 990 q 330 686 353 790 q 307 479 307 582 q 333 296 307 376 q 406 160 358 215 q 523 77 454 106 q 681 49 592 49 m 0 -712 l 1453 -712 l 1453 -726 l 0 -726 l 0 -712 m 0 28 l 1453 28 l 1453 0 l 0 0 l 0 28 m 0 701 l 1453 701 l 1453 694 l 0 694 l 0 701 m 0 1435 l 1453 1435 l 1453 1421 l 0 1421 l 0 1435 z "},"Ớ":{"ha":1453,"x_min":0,"x_max":1532,"o":"m 672 -26 q 488 8 569 -26 q 347 106 406 42 q 258 263 289 171 q 226 474 226 356 q 251 699 226 585 q 324 921 276 813 q 442 1124 372 1029 q 599 1290 511 1218 q 794 1401 688 1361 q 1022 1442 901 1442 q 1131 1431 1081 1442 q 1222 1396 1181 1419 q 1344 1415 1296 1399 q 1417 1465 1392 1432 q 1450 1547 1443 1497 q 1449 1668 1457 1597 q 1457 1690 1447 1682 q 1481 1700 1467 1699 q 1507 1697 1496 1701 q 1521 1678 1518 1692 q 1526 1554 1532 1610 q 1494 1456 1519 1499 q 1421 1386 1468 1413 q 1303 1351 1374 1360 q 1424 1193 1381 1292 q 1467 964 1467 1094 q 1442 738 1467 854 q 1369 510 1417 622 q 1251 301 1321 399 q 1094 131 1182 204 q 899 15 1006 57 q 672 -26 793 -26 m 681 49 q 881 88 788 49 q 1052 195 974 126 q 1192 353 1131 264 q 1297 545 1254 443 q 1363 753 1340 647 q 1386 958 1386 858 q 1360 1135 1386 1058 q 1287 1263 1335 1211 q 1170 1341 1239 1314 q 1014 1368 1101 1368 q 815 1331 908 1368 q 643 1228 722 1294 q 501 1076 564 1163 q 396 890 439 990 q 330 686 353 790 q 307 479 307 582 q 333 296 307 376 q 406 160 358 215 q 523 77 454 106 q 681 49 592 49 m 1007 1513 q 984 1525 996 1513 q 972 1547 972 1538 q 974 1554 972 1550 q 981 1564 975 1558 l 1215 1768 q 1226 1777 1222 1774 q 1238 1781 1231 1781 q 1256 1774 1246 1781 q 1274 1756 1267 1767 q 1281 1736 1281 1744 q 1279 1726 1281 1731 q 1271 1715 1278 1721 l 1026 1524 q 1015 1516 1019 1519 q 1007 1513 1011 1513 m 0 -712 l 1453 -712 l 1453 -726 l 0 -726 l 0 -712 m 0 28 l 1453 28 l 1453 0 l 0 0 l 0 28 m 0 701 l 1453 701 l 1453 694 l 0 694 l 0 701 m 0 1435 l 1453 1435 l 1453 1421 l 0 1421 l 0 1435 z "},"Ợ":{"ha":1453,"x_min":0,"x_max":1532,"o":"m 672 -26 q 488 8 569 -26 q 347 106 406 42 q 258 263 289 171 q 226 474 226 356 q 251 699 226 585 q 324 921 276 813 q 442 1124 372 1029 q 599 1290 511 1218 q 794 1401 688 1361 q 1022 1442 901 1442 q 1131 1431 1081 1442 q 1222 1396 1181 1419 q 1344 1415 1296 1399 q 1417 1465 1392 1432 q 1450 1547 1443 1497 q 1449 1668 1457 1597 q 1457 1690 1447 1682 q 1481 1700 1467 1699 q 1507 1697 1496 1701 q 1521 1678 1518 1692 q 1526 1554 1532 1610 q 1494 1456 1519 1499 q 1421 1386 1468 1413 q 1303 1351 1374 1360 q 1424 1193 1381 1292 q 1467 964 1467 1094 q 1442 738 1467 854 q 1369 510 1417 622 q 1251 301 1321 399 q 1094 131 1182 204 q 899 15 1006 57 q 672 -26 793 -26 m 681 49 q 881 88 788 49 q 1052 195 974 126 q 1192 353 1131 264 q 1297 545 1254 443 q 1363 753 1340 647 q 1386 958 1386 858 q 1360 1135 1386 1058 q 1287 1263 1335 1211 q 1170 1341 1239 1314 q 1014 1368 1101 1368 q 815 1331 908 1368 q 643 1228 722 1294 q 501 1076 564 1163 q 396 890 439 990 q 330 686 353 790 q 307 479 307 582 q 333 296 307 376 q 406 160 358 215 q 523 77 454 106 q 681 49 592 49 m 522 -304 q 483 -292 499 -304 q 467 -254 467 -279 q 488 -194 467 -221 q 547 -167 508 -167 q 587 -179 571 -167 q 603 -217 603 -192 q 583 -277 603 -250 q 522 -304 563 -304 m 0 -712 l 1453 -712 l 1453 -726 l 0 -726 l 0 -712 m 0 28 l 1453 28 l 1453 0 l 0 0 l 0 28 m 0 701 l 1453 701 l 1453 694 l 0 694 l 0 701 m 0 1435 l 1453 1435 l 1453 1421 l 0 1421 l 0 1435 z "},"Ờ":{"ha":1453,"x_min":0,"x_max":1532,"o":"m 672 -26 q 488 8 569 -26 q 347 106 406 42 q 258 263 289 171 q 226 474 226 356 q 251 699 226 585 q 324 921 276 813 q 442 1124 372 1029 q 599 1290 511 1218 q 794 1401 688 1361 q 1022 1442 901 1442 q 1131 1431 1081 1442 q 1222 1396 1181 1419 q 1344 1415 1296 1399 q 1417 1465 1392 1432 q 1450 1547 1443 1497 q 1449 1668 1457 1597 q 1457 1690 1447 1682 q 1481 1700 1467 1699 q 1507 1697 1496 1701 q 1521 1678 1518 1692 q 1526 1554 1532 1610 q 1494 1456 1519 1499 q 1421 1386 1468 1413 q 1303 1351 1374 1360 q 1424 1193 1381 1292 q 1467 964 1467 1094 q 1442 738 1467 854 q 1369 510 1417 622 q 1251 301 1321 399 q 1094 131 1182 204 q 899 15 1006 57 q 672 -26 793 -26 m 681 49 q 881 88 788 49 q 1052 195 974 126 q 1192 353 1131 264 q 1297 545 1254 443 q 1363 753 1340 647 q 1386 958 1386 858 q 1360 1135 1386 1058 q 1287 1263 1335 1211 q 1170 1341 1239 1314 q 1014 1368 1101 1368 q 815 1331 908 1368 q 643 1228 722 1294 q 501 1076 564 1163 q 396 890 439 990 q 330 686 353 790 q 307 479 307 582 q 333 296 307 376 q 406 160 358 215 q 523 77 454 106 q 681 49 592 49 m 1158 1513 q 1150 1516 1154 1513 q 1139 1524 1146 1519 l 925 1714 q 917 1725 918 1721 q 915 1735 915 1729 q 923 1756 915 1744 q 941 1774 931 1767 q 961 1781 951 1781 q 971 1778 967 1781 q 981 1768 975 1775 l 1186 1564 q 1192 1555 1192 1560 q 1193 1547 1193 1550 q 1181 1525 1193 1538 q 1158 1513 1169 1513 m 0 -712 l 1453 -712 l 1453 -726 l 0 -726 l 0 -712 m 0 28 l 1453 28 l 1453 0 l 0 0 l 0 28 m 0 701 l 1453 701 l 1453 694 l 0 694 l 0 701 m 0 1435 l 1453 1435 l 1453 1421 l 0 1421 l 0 1435 z "},"Ở":{"ha":1453,"x_min":0,"x_max":1532,"o":"m 672 -26 q 488 8 569 -26 q 347 106 406 42 q 258 263 289 171 q 226 474 226 356 q 251 699 226 585 q 324 921 276 813 q 442 1124 372 1029 q 599 1290 511 1218 q 794 1401 688 1361 q 1022 1442 901 1442 q 1131 1431 1081 1442 q 1222 1396 1181 1419 q 1344 1415 1296 1399 q 1417 1465 1392 1432 q 1450 1547 1443 1497 q 1449 1668 1457 1597 q 1457 1690 1447 1682 q 1481 1700 1467 1699 q 1507 1697 1496 1701 q 1521 1678 1518 1692 q 1526 1554 1532 1610 q 1494 1456 1519 1499 q 1421 1386 1468 1413 q 1303 1351 1374 1360 q 1424 1193 1381 1292 q 1467 964 1467 1094 q 1442 738 1467 854 q 1369 510 1417 622 q 1251 301 1321 399 q 1094 131 1182 204 q 899 15 1006 57 q 672 -26 793 -26 m 681 49 q 881 88 788 49 q 1052 195 974 126 q 1192 353 1131 264 q 1297 545 1254 443 q 1363 753 1340 647 q 1386 958 1386 858 q 1360 1135 1386 1058 q 1287 1263 1335 1211 q 1170 1341 1239 1314 q 1014 1368 1101 1368 q 815 1331 908 1368 q 643 1228 722 1294 q 501 1076 564 1163 q 396 890 439 990 q 330 686 353 790 q 307 479 307 582 q 333 296 307 376 q 406 160 358 215 q 523 77 454 106 q 681 49 592 49 m 1131 1819 q 1219 1792 1188 1819 q 1251 1724 1251 1765 q 1230 1660 1251 1689 q 1165 1607 1208 1632 q 1130 1577 1140 1593 q 1119 1544 1119 1561 l 1118 1522 q 1108 1503 1118 1508 q 1085 1497 1099 1497 q 1063 1503 1072 1497 q 1053 1519 1053 1508 l 1051 1547 q 1067 1610 1050 1585 q 1114 1653 1085 1635 q 1157 1683 1143 1668 q 1171 1715 1171 1699 q 1156 1743 1171 1733 q 1115 1753 1142 1753 q 1069 1747 1092 1753 q 1024 1728 1047 1740 q 983 1742 997 1713 q 999 1783 972 1767 q 1059 1810 1025 1800 q 1131 1819 1093 1819 m 0 -712 l 1453 -712 l 1453 -726 l 0 -726 l 0 -712 m 0 28 l 1453 28 l 1453 0 l 0 0 l 0 28 m 0 701 l 1453 701 l 1453 694 l 0 694 l 0 701 m 0 1435 l 1453 1435 l 1453 1421 l 0 1421 l 0 1435 z "},"Ỡ":{"ha":1453,"x_min":0,"x_max":1532,"o":"m 672 -26 q 488 8 569 -26 q 347 106 406 42 q 258 263 289 171 q 226 474 226 356 q 251 699 226 585 q 324 921 276 813 q 442 1124 372 1029 q 599 1290 511 1218 q 794 1401 688 1361 q 1022 1442 901 1442 q 1131 1431 1081 1442 q 1222 1396 1181 1419 q 1344 1415 1296 1399 q 1417 1465 1392 1432 q 1450 1547 1443 1497 q 1449 1668 1457 1597 q 1457 1690 1447 1682 q 1481 1700 1467 1699 q 1507 1697 1496 1701 q 1521 1678 1518 1692 q 1526 1554 1532 1610 q 1494 1456 1519 1499 q 1421 1386 1468 1413 q 1303 1351 1374 1360 q 1424 1193 1381 1292 q 1467 964 1467 1094 q 1442 738 1467 854 q 1369 510 1417 622 q 1251 301 1321 399 q 1094 131 1182 204 q 899 15 1006 57 q 672 -26 793 -26 m 681 49 q 881 88 788 49 q 1052 195 974 126 q 1192 353 1131 264 q 1297 545 1254 443 q 1363 753 1340 647 q 1386 958 1386 858 q 1360 1135 1386 1058 q 1287 1263 1335 1211 q 1170 1341 1239 1314 q 1014 1368 1101 1368 q 815 1331 908 1368 q 643 1228 722 1294 q 501 1076 564 1163 q 396 890 439 990 q 330 686 353 790 q 307 479 307 582 q 333 296 307 376 q 406 160 358 215 q 523 77 454 106 q 681 49 592 49 m 850 1557 q 824 1588 819 1557 q 869 1708 838 1668 q 957 1747 901 1747 q 1033 1730 999 1747 q 1099 1690 1068 1713 q 1158 1649 1129 1667 q 1213 1632 1186 1632 q 1253 1653 1238 1632 q 1279 1721 1269 1675 q 1318 1750 1285 1750 q 1342 1743 1336 1750 q 1344 1719 1349 1736 q 1301 1601 1332 1640 q 1210 1561 1269 1561 q 1135 1578 1169 1561 q 1069 1619 1100 1596 q 1010 1659 1039 1642 q 954 1676 982 1676 q 915 1655 931 1676 q 888 1585 899 1633 q 876 1564 885 1571 q 850 1557 867 1557 m 0 -712 l 1453 -712 l 1453 -726 l 0 -726 l 0 -712 m 0 28 l 1453 28 l 1453 0 l 0 0 l 0 28 m 0 701 l 1453 701 l 1453 694 l 0 694 l 0 701 m 0 1435 l 1453 1435 l 1453 1421 l 0 1421 l 0 1435 z "},"Ŕ":{"ha":1089,"x_min":0,"x_max":1225,"o":"m 149 -19 q 122 -13 131 -19 q 117 8 113 -7 l 565 1389 q 580 1410 571 1404 q 611 1417 589 1417 l 846 1417 q 1056 1392 972 1417 q 1183 1307 1140 1367 q 1225 1146 1225 1247 q 1197 996 1225 1063 q 1119 876 1169 929 q 1001 784 1069 824 q 850 717 932 744 q 676 675 768 690 q 486 656 583 660 q 605 442 542 547 q 742 235 668 336 q 903 38 815 135 q 914 16 913 28 q 897 -12 915 4 q 868 -20 881 -25 q 840 0 856 -15 q 672 210 750 101 q 528 431 594 318 q 403 654 461 543 l 194 7 q 180 -13 189 -7 q 149 -19 171 -19 m 425 719 q 558 726 489 719 q 697 745 626 732 q 833 781 767 758 q 955 835 899 803 q 1054 911 1011 867 q 1122 1013 1097 956 q 1146 1143 1146 1071 q 1113 1267 1146 1222 q 1013 1329 1081 1311 q 840 1347 946 1347 l 628 1347 l 425 719 m 861 1513 q 840 1525 851 1513 q 828 1547 828 1538 q 828 1554 828 1550 q 835 1564 829 1558 l 1069 1768 q 1081 1777 1076 1774 q 1092 1781 1085 1781 q 1112 1774 1101 1781 q 1129 1756 1122 1767 q 1136 1736 1136 1744 q 1134 1726 1136 1731 q 1125 1715 1132 1721 l 881 1524 q 870 1516 874 1519 q 861 1513 867 1513 m 0 -712 l 1089 -712 l 1089 -726 l 0 -726 l 0 -712 m 0 28 l 1089 28 l 1089 0 l 0 0 l 0 28 m 0 701 l 1089 701 l 1089 694 l 0 694 l 0 701 m 0 1435 l 1089 1435 l 1089 1421 l 0 1421 l 0 1435 z "},"Ř":{"ha":1089,"x_min":0,"x_max":1232,"o":"m 149 -19 q 122 -13 131 -19 q 117 8 113 -7 l 565 1389 q 580 1410 571 1404 q 611 1417 589 1417 l 846 1417 q 1056 1392 972 1417 q 1183 1307 1140 1367 q 1225 1146 1225 1247 q 1197 996 1225 1063 q 1119 876 1169 929 q 1001 784 1069 824 q 850 717 932 744 q 676 675 768 690 q 486 656 583 660 q 605 442 542 547 q 742 235 668 336 q 903 38 815 135 q 914 16 913 28 q 897 -12 915 4 q 868 -20 881 -25 q 840 0 856 -15 q 672 210 750 101 q 528 431 594 318 q 403 654 461 543 l 194 7 q 180 -13 189 -7 q 149 -19 171 -19 m 425 719 q 558 726 489 719 q 697 745 626 732 q 833 781 767 758 q 955 835 899 803 q 1054 911 1011 867 q 1122 1013 1097 956 q 1146 1143 1146 1071 q 1113 1267 1146 1222 q 1013 1329 1081 1311 q 840 1347 946 1347 l 628 1347 l 425 719 m 1201 1779 q 1223 1769 1214 1779 q 1232 1749 1232 1758 q 1229 1735 1232 1740 q 1219 1725 1226 1731 l 967 1532 q 944 1518 954 1522 q 924 1514 935 1514 q 906 1519 914 1514 q 890 1533 899 1524 l 733 1729 q 727 1740 729 1735 q 725 1751 725 1746 q 738 1772 725 1764 q 760 1779 750 1779 q 774 1775 769 1779 q 785 1765 779 1771 l 938 1604 l 1172 1764 q 1188 1775 1182 1771 q 1201 1779 1193 1779 m 0 -712 l 1089 -712 l 1089 -726 l 0 -726 l 0 -712 m 0 28 l 1089 28 l 1089 0 l 0 0 l 0 28 m 0 701 l 1089 701 l 1089 694 l 0 694 l 0 701 m 0 1435 l 1089 1435 l 1089 1421 l 0 1421 l 0 1435 z "},"Ŗ":{"ha":1089,"x_min":0,"x_max":1225,"o":"m 149 -19 q 122 -13 131 -19 q 117 8 113 -7 l 565 1389 q 580 1410 571 1404 q 611 1417 589 1417 l 846 1417 q 1056 1392 972 1417 q 1183 1307 1140 1367 q 1225 1146 1225 1247 q 1197 996 1225 1063 q 1119 876 1169 929 q 1001 784 1069 824 q 850 717 932 744 q 676 675 768 690 q 486 656 583 660 q 605 442 542 547 q 742 235 668 336 q 903 38 815 135 q 914 16 913 28 q 897 -12 915 4 q 868 -20 881 -25 q 840 0 856 -15 q 672 210 750 101 q 528 431 594 318 q 403 654 461 543 l 194 7 q 180 -13 189 -7 q 149 -19 171 -19 m 425 719 q 558 726 489 719 q 697 745 626 732 q 833 781 767 758 q 955 835 899 803 q 1054 911 1011 867 q 1122 1013 1097 956 q 1146 1143 1146 1071 q 1113 1267 1146 1222 q 1013 1329 1081 1311 q 840 1347 946 1347 l 628 1347 l 425 719 m 339 -383 q 327 -363 328 -374 q 335 -342 326 -353 q 381 -277 361 -308 q 411 -212 400 -246 q 426 -137 422 -179 q 438 -112 428 -119 q 465 -106 449 -106 q 495 -115 486 -106 q 503 -140 504 -124 q 490 -203 503 -165 q 451 -285 476 -242 q 385 -372 426 -329 q 363 -388 375 -383 q 339 -383 350 -393 m 0 -712 l 1089 -712 l 1089 -726 l 0 -726 l 0 -712 m 0 28 l 1089 28 l 1089 0 l 0 0 l 0 28 m 0 701 l 1089 701 l 1089 694 l 0 694 l 0 701 m 0 1435 l 1089 1435 l 1089 1421 l 0 1421 l 0 1435 z "},"Ś":{"ha":1081,"x_min":0,"x_max":1168,"o":"m 497 -26 q 349 -7 415 -26 q 231 44 282 13 q 143 110 179 75 q 86 175 107 146 q 81 197 78 188 q 96 218 83 207 q 122 229 113 231 q 140 218 132 228 q 226 135 174 174 q 346 72 278 97 q 499 47 414 47 q 660 73 586 47 q 789 144 735 99 q 873 255 843 190 q 903 396 903 319 q 885 496 903 453 q 833 574 867 539 q 751 641 799 610 q 643 706 703 672 q 558 756 600 729 q 482 813 517 782 q 421 880 447 843 q 379 963 394 917 q 364 1067 364 1008 q 394 1218 364 1149 q 482 1338 425 1288 q 616 1415 539 1388 q 785 1442 693 1442 q 933 1419 865 1442 q 1056 1358 1000 1397 q 1157 1269 1113 1319 q 1166 1247 1168 1257 q 1151 1226 1164 1238 q 1128 1217 1140 1217 q 1106 1226 1117 1217 q 1017 1299 1064 1267 q 913 1349 969 1331 q 783 1368 856 1368 q 649 1347 711 1368 q 542 1285 588 1325 q 470 1191 496 1246 q 444 1068 444 1136 q 461 971 444 1013 q 509 895 478 929 q 586 831 540 861 q 689 768 632 800 q 800 699 747 735 q 894 622 853 664 q 960 525 936 579 q 983 399 983 471 q 947 229 983 307 q 844 94 910 151 q 690 5 778 36 q 497 -26 601 -26 m 778 1513 q 755 1525 767 1513 q 743 1547 743 1538 q 744 1554 743 1550 q 751 1564 744 1558 l 985 1768 q 996 1777 992 1774 q 1007 1781 1000 1781 q 1027 1774 1017 1781 q 1044 1756 1038 1767 q 1051 1736 1051 1744 q 1050 1726 1051 1731 q 1040 1715 1049 1721 l 796 1524 q 786 1516 790 1519 q 778 1513 782 1513 m 0 -712 l 1081 -712 l 1081 -726 l 0 -726 l 0 -712 m 0 28 l 1081 28 l 1081 0 l 0 0 l 0 28 m 0 701 l 1081 701 l 1081 694 l 0 694 l 0 701 m 0 1435 l 1081 1435 l 1081 1421 l 0 1421 l 0 1435 z "},"Š":{"ha":1081,"x_min":0,"x_max":1168,"o":"m 497 -26 q 349 -7 415 -26 q 231 44 282 13 q 143 110 179 75 q 86 175 107 146 q 81 197 78 188 q 96 218 83 207 q 122 229 113 231 q 140 218 132 228 q 226 135 174 174 q 346 72 278 97 q 499 47 414 47 q 660 73 586 47 q 789 144 735 99 q 873 255 843 190 q 903 396 903 319 q 885 496 903 453 q 833 574 867 539 q 751 641 799 610 q 643 706 703 672 q 558 756 600 729 q 482 813 517 782 q 421 880 447 843 q 379 963 394 917 q 364 1067 364 1008 q 394 1218 364 1149 q 482 1338 425 1288 q 616 1415 539 1388 q 785 1442 693 1442 q 933 1419 865 1442 q 1056 1358 1000 1397 q 1157 1269 1113 1319 q 1166 1247 1168 1257 q 1151 1226 1164 1238 q 1128 1217 1140 1217 q 1106 1226 1117 1217 q 1017 1299 1064 1267 q 913 1349 969 1331 q 783 1368 856 1368 q 649 1347 711 1368 q 542 1285 588 1325 q 470 1191 496 1246 q 444 1068 444 1136 q 461 971 444 1013 q 509 895 478 929 q 586 831 540 861 q 689 768 632 800 q 800 699 747 735 q 894 622 853 664 q 960 525 936 579 q 983 399 983 471 q 947 229 983 307 q 844 94 910 151 q 690 5 778 36 q 497 -26 601 -26 m 1117 1779 q 1138 1769 1129 1779 q 1147 1749 1147 1758 q 1144 1735 1147 1740 q 1135 1725 1142 1731 l 883 1532 q 860 1518 869 1522 q 840 1514 851 1514 q 823 1519 831 1514 q 806 1533 815 1524 l 649 1729 q 644 1740 646 1735 q 642 1751 642 1746 q 653 1772 642 1764 q 675 1779 665 1779 q 690 1775 685 1779 q 701 1765 694 1771 l 853 1604 l 1088 1764 q 1104 1775 1099 1771 q 1117 1779 1110 1779 m 0 -712 l 1081 -712 l 1081 -726 l 0 -726 l 0 -712 m 0 28 l 1081 28 l 1081 0 l 0 0 l 0 28 m 0 701 l 1081 701 l 1081 694 l 0 694 l 0 701 m 0 1435 l 1081 1435 l 1081 1421 l 0 1421 l 0 1435 z "},"Ş":{"ha":1081,"x_min":0,"x_max":1168,"o":"m 497 -26 q 349 -7 415 -26 q 231 44 282 13 q 143 110 179 75 q 86 175 107 146 q 81 197 78 188 q 96 218 83 207 q 122 229 113 231 q 140 218 132 228 q 226 135 174 174 q 346 72 278 97 q 499 47 414 47 q 660 73 586 47 q 789 144 735 99 q 873 255 843 190 q 903 396 903 319 q 885 496 903 453 q 833 574 867 539 q 751 641 799 610 q 643 706 703 672 q 558 756 600 729 q 482 813 517 782 q 421 880 447 843 q 379 963 394 917 q 364 1067 364 1008 q 394 1218 364 1149 q 482 1338 425 1288 q 616 1415 539 1388 q 785 1442 693 1442 q 933 1419 865 1442 q 1056 1358 1000 1397 q 1157 1269 1113 1319 q 1166 1247 1168 1257 q 1151 1226 1164 1238 q 1128 1217 1140 1217 q 1106 1226 1117 1217 q 1017 1299 1064 1267 q 913 1349 969 1331 q 783 1368 856 1368 q 649 1347 711 1368 q 542 1285 588 1325 q 470 1191 496 1246 q 444 1068 444 1136 q 461 971 444 1013 q 509 895 478 929 q 586 831 540 861 q 689 768 632 800 q 800 699 747 735 q 894 622 853 664 q 960 525 936 579 q 983 399 983 471 q 947 229 983 307 q 844 94 910 151 q 690 5 778 36 q 497 -26 601 -26 m 385 -367 q 315 -359 351 -367 q 253 -333 279 -351 q 244 -313 243 -325 q 251 -292 244 -301 q 268 -276 260 -279 q 288 -278 276 -274 q 333 -294 308 -287 q 390 -301 358 -301 q 457 -285 433 -301 q 481 -233 481 -268 q 456 -186 481 -199 q 381 -181 431 -174 q 364 -178 369 -182 q 356 -168 358 -175 q 353 -151 351 -158 q 361 -131 354 -143 l 450 6 l 510 6 l 413 -150 l 392 -131 q 483 -126 446 -117 q 540 -162 519 -136 q 560 -228 560 -189 q 538 -302 560 -271 q 476 -350 515 -333 q 385 -367 438 -367 m 0 -712 l 1081 -712 l 1081 -726 l 0 -726 l 0 -712 m 0 28 l 1081 28 l 1081 0 l 0 0 l 0 28 m 0 701 l 1081 701 l 1081 694 l 0 694 l 0 701 m 0 1435 l 1081 1435 l 1081 1421 l 0 1421 l 0 1435 z "},"Ŝ":{"ha":1081,"x_min":0,"x_max":1168,"o":"m 497 -26 q 349 -7 415 -26 q 231 44 282 13 q 143 110 179 75 q 86 175 107 146 q 81 197 78 188 q 96 218 83 207 q 122 229 113 231 q 140 218 132 228 q 226 135 174 174 q 346 72 278 97 q 499 47 414 47 q 660 73 586 47 q 789 144 735 99 q 873 255 843 190 q 903 396 903 319 q 885 496 903 453 q 833 574 867 539 q 751 641 799 610 q 643 706 703 672 q 558 756 600 729 q 482 813 517 782 q 421 880 447 843 q 379 963 394 917 q 364 1067 364 1008 q 394 1218 364 1149 q 482 1338 425 1288 q 616 1415 539 1388 q 785 1442 693 1442 q 933 1419 865 1442 q 1056 1358 1000 1397 q 1157 1269 1113 1319 q 1166 1247 1168 1257 q 1151 1226 1164 1238 q 1128 1217 1140 1217 q 1106 1226 1117 1217 q 1017 1299 1064 1267 q 913 1349 969 1331 q 783 1368 856 1368 q 649 1347 711 1368 q 542 1285 588 1325 q 470 1191 496 1246 q 444 1068 444 1136 q 461 971 444 1013 q 509 895 478 929 q 586 831 540 861 q 689 768 632 800 q 800 699 747 735 q 894 622 853 664 q 960 525 936 579 q 983 399 983 471 q 947 229 983 307 q 844 94 910 151 q 690 5 778 36 q 497 -26 601 -26 m 638 1513 q 617 1522 625 1513 q 608 1542 608 1532 q 612 1555 608 1550 q 621 1565 615 1560 l 874 1758 q 895 1774 886 1769 q 915 1778 904 1778 q 933 1773 925 1778 q 949 1757 942 1768 l 1107 1563 q 1113 1551 1111 1557 q 1114 1540 1114 1546 q 1103 1520 1114 1528 q 1081 1513 1092 1513 q 1067 1516 1074 1513 q 1054 1526 1060 1519 l 903 1686 l 668 1525 q 652 1515 658 1518 q 638 1513 646 1513 m 0 -712 l 1081 -712 l 1081 -726 l 0 -726 l 0 -712 m 0 28 l 1081 28 l 1081 0 l 0 0 l 0 28 m 0 701 l 1081 701 l 1081 694 l 0 694 l 0 701 m 0 1435 l 1081 1435 l 1081 1421 l 0 1421 l 0 1435 z "},"Ș":{"ha":1081,"x_min":0,"x_max":1168,"o":"m 497 -26 q 349 -7 415 -26 q 231 44 282 13 q 143 110 179 75 q 86 175 107 146 q 81 197 78 188 q 96 218 83 207 q 122 229 113 231 q 140 218 132 228 q 226 135 174 174 q 346 72 278 97 q 499 47 414 47 q 660 73 586 47 q 789 144 735 99 q 873 255 843 190 q 903 396 903 319 q 885 496 903 453 q 833 574 867 539 q 751 641 799 610 q 643 706 703 672 q 558 756 600 729 q 482 813 517 782 q 421 880 447 843 q 379 963 394 917 q 364 1067 364 1008 q 394 1218 364 1149 q 482 1338 425 1288 q 616 1415 539 1388 q 785 1442 693 1442 q 933 1419 865 1442 q 1056 1358 1000 1397 q 1157 1269 1113 1319 q 1166 1247 1168 1257 q 1151 1226 1164 1238 q 1128 1217 1140 1217 q 1106 1226 1117 1217 q 1017 1299 1064 1267 q 913 1349 969 1331 q 783 1368 856 1368 q 649 1347 711 1368 q 542 1285 588 1325 q 470 1191 496 1246 q 444 1068 444 1136 q 461 971 444 1013 q 509 895 478 929 q 586 831 540 861 q 689 768 632 800 q 800 699 747 735 q 894 622 853 664 q 960 525 936 579 q 983 399 983 471 q 947 229 983 307 q 844 94 910 151 q 690 5 778 36 q 497 -26 601 -26 m 313 -383 q 300 -364 301 -374 q 308 -342 299 -354 q 353 -277 335 -308 q 384 -212 372 -246 q 399 -137 396 -179 q 410 -112 400 -119 q 439 -106 421 -106 q 467 -115 458 -106 q 476 -140 476 -124 q 463 -203 475 -165 q 425 -285 450 -242 q 358 -372 400 -329 q 335 -388 347 -383 q 313 -383 324 -393 m 0 -712 l 1081 -712 l 1081 -726 l 0 -726 l 0 -712 m 0 28 l 1081 28 l 1081 0 l 0 0 l 0 28 m 0 701 l 1081 701 l 1081 694 l 0 694 l 0 701 m 0 1435 l 1081 1435 l 1081 1421 l 0 1421 l 0 1435 z "},"Ŧ":{"ha":1083,"x_min":0,"x_max":1388,"o":"m 432 -19 q 403 7 394 -19 l 838 1347 l 392 1347 q 372 1356 375 1347 q 374 1383 368 1364 q 389 1410 381 1403 q 413 1417 397 1417 l 1365 1417 q 1385 1408 1382 1417 q 1382 1382 1388 1400 q 1368 1355 1376 1363 q 1344 1347 1360 1347 l 914 1347 l 478 7 q 464 -13 474 -7 q 432 -19 454 -19 m 385 675 q 364 684 367 675 q 365 708 361 693 q 376 733 369 724 q 401 742 383 742 l 954 742 q 974 732 972 742 q 974 708 976 722 q 962 684 969 693 q 938 675 954 675 l 385 675 m 0 -712 l 1083 -712 l 1083 -726 l 0 -726 l 0 -712 m 0 28 l 1083 28 l 1083 0 l 0 0 l 0 28 m 0 701 l 1083 701 l 1083 694 l 0 694 l 0 701 m 0 1435 l 1083 1435 l 1083 1421 l 0 1421 l 0 1435 z "},"Ť":{"ha":1083,"x_min":0,"x_max":1388,"o":"m 432 -19 q 403 7 394 -19 l 838 1347 l 392 1347 q 372 1356 375 1347 q 374 1383 368 1364 q 389 1410 381 1403 q 413 1417 397 1417 l 1365 1417 q 1385 1408 1382 1417 q 1382 1382 1388 1400 q 1368 1355 1376 1363 q 1344 1347 1360 1347 l 914 1347 l 478 7 q 464 -13 474 -7 q 432 -19 454 -19 m 1194 1779 q 1215 1769 1206 1779 q 1225 1749 1225 1758 q 1222 1735 1225 1740 q 1213 1725 1219 1731 l 960 1532 q 937 1518 946 1522 q 917 1514 928 1514 q 899 1519 907 1514 q 883 1533 892 1524 l 726 1729 q 720 1740 722 1735 q 718 1751 718 1746 q 731 1772 718 1764 q 753 1779 743 1779 q 767 1775 763 1779 q 778 1765 772 1771 l 931 1604 l 1164 1764 q 1181 1775 1175 1771 q 1194 1779 1186 1779 m 0 -712 l 1083 -712 l 1083 -726 l 0 -726 l 0 -712 m 0 28 l 1083 28 l 1083 0 l 0 0 l 0 28 m 0 701 l 1083 701 l 1083 694 l 0 694 l 0 701 m 0 1435 l 1083 1435 l 1083 1421 l 0 1421 l 0 1435 z "},"Ţ":{"ha":1083,"x_min":0,"x_max":1388,"o":"m 432 -19 q 403 7 394 -19 l 838 1347 l 392 1347 q 372 1356 375 1347 q 374 1383 368 1364 q 389 1410 381 1403 q 413 1417 397 1417 l 1365 1417 q 1385 1408 1382 1417 q 1382 1382 1388 1400 q 1368 1355 1376 1363 q 1344 1347 1360 1347 l 914 1347 l 478 7 q 464 -13 474 -7 q 432 -19 454 -19 m 347 -367 q 278 -359 315 -367 q 217 -333 242 -351 q 208 -313 207 -325 q 214 -292 208 -301 q 232 -276 224 -279 q 251 -278 240 -274 q 297 -294 271 -287 q 354 -301 322 -301 q 421 -285 397 -301 q 444 -233 444 -268 q 419 -186 444 -199 q 344 -181 394 -174 q 328 -178 333 -182 q 318 -168 322 -175 q 316 -151 315 -158 q 325 -131 317 -143 l 414 6 l 474 6 l 376 -150 l 356 -131 q 446 -126 408 -117 q 503 -162 483 -136 q 522 -228 522 -189 q 500 -302 522 -271 q 439 -350 478 -333 q 347 -367 400 -367 m 0 -712 l 1083 -712 l 1083 -726 l 0 -726 l 0 -712 m 0 28 l 1083 28 l 1083 0 l 0 0 l 0 28 m 0 701 l 1083 701 l 1083 694 l 0 694 l 0 701 m 0 1435 l 1083 1435 l 1083 1421 l 0 1421 l 0 1435 z "},"Ț":{"ha":1083,"x_min":0,"x_max":1388,"o":"m 432 -19 q 403 7 394 -19 l 838 1347 l 392 1347 q 372 1356 375 1347 q 374 1383 368 1364 q 389 1410 381 1403 q 413 1417 397 1417 l 1365 1417 q 1385 1408 1382 1417 q 1382 1382 1388 1400 q 1368 1355 1376 1363 q 1344 1347 1360 1347 l 914 1347 l 478 7 q 464 -13 474 -7 q 432 -19 454 -19 m 275 -383 q 263 -363 264 -374 q 271 -342 263 -353 q 317 -277 297 -308 q 347 -212 336 -246 q 363 -137 358 -179 q 374 -112 364 -119 q 401 -106 385 -106 q 431 -115 422 -106 q 439 -140 440 -124 q 426 -203 439 -165 q 388 -285 413 -242 q 321 -372 363 -329 q 299 -388 311 -383 q 275 -383 286 -393 m 0 -712 l 1083 -712 l 1083 -726 l 0 -726 l 0 -712 m 0 28 l 1083 28 l 1083 0 l 0 0 l 0 28 m 0 701 l 1083 701 l 1083 694 l 0 694 l 0 701 m 0 1435 l 1083 1435 l 1083 1421 l 0 1421 l 0 1435 z "},"Ú":{"ha":1354,"x_min":0,"x_max":1496,"o":"m 594 -26 q 388 8 471 -26 q 263 107 306 43 q 215 260 219 171 q 246 457 211 349 l 556 1415 q 570 1435 561 1429 q 601 1442 579 1442 q 630 1435 621 1442 q 635 1414 639 1429 l 321 449 q 295 235 281 325 q 385 97 310 144 q 600 49 461 49 q 821 92 725 49 q 985 222 917 135 q 1094 439 1053 308 l 1411 1415 q 1424 1435 1415 1429 q 1456 1442 1433 1442 q 1488 1414 1496 1442 l 1169 433 q 1041 178 1121 281 q 850 24 961 75 q 594 -26 739 -26 m 961 1513 q 938 1525 950 1513 q 926 1546 926 1538 q 928 1554 926 1550 q 935 1564 929 1558 l 1169 1768 q 1181 1777 1176 1774 q 1192 1781 1185 1781 q 1210 1774 1200 1781 q 1228 1756 1221 1767 q 1235 1736 1235 1744 q 1233 1726 1235 1731 q 1225 1715 1232 1721 l 981 1524 q 969 1516 974 1519 q 961 1513 965 1513 m 0 -712 l 1354 -712 l 1354 -726 l 0 -726 l 0 -712 m 0 28 l 1354 28 l 1354 0 l 0 0 l 0 28 m 0 701 l 1354 701 l 1354 694 l 0 694 l 0 701 m 0 1435 l 1354 1435 l 1354 1421 l 0 1421 l 0 1435 z "},"Ŭ":{"ha":1354,"x_min":0,"x_max":1496,"o":"m 594 -26 q 388 8 471 -26 q 263 107 306 43 q 215 260 219 171 q 246 457 211 349 l 556 1415 q 570 1435 561 1429 q 601 1442 579 1442 q 630 1435 621 1442 q 635 1414 639 1429 l 321 449 q 295 235 281 325 q 385 97 310 144 q 600 49 461 49 q 821 92 725 49 q 985 222 917 135 q 1094 439 1053 308 l 1411 1415 q 1424 1435 1415 1429 q 1456 1442 1433 1442 q 1488 1414 1496 1442 l 1169 433 q 1041 178 1121 281 q 850 24 961 75 q 594 -26 739 -26 m 1038 1514 q 889 1574 936 1514 q 857 1753 842 1635 q 867 1774 858 1767 q 892 1781 875 1781 q 915 1774 907 1781 q 921 1753 922 1767 q 946 1631 914 1671 q 1044 1590 978 1590 q 1178 1633 1122 1590 q 1260 1751 1235 1675 q 1274 1774 1265 1768 q 1299 1781 1282 1781 q 1322 1772 1314 1781 q 1326 1750 1331 1764 q 1262 1616 1303 1668 q 1164 1539 1221 1564 q 1038 1514 1107 1514 m 0 -712 l 1354 -712 l 1354 -726 l 0 -726 l 0 -712 m 0 28 l 1354 28 l 1354 0 l 0 0 l 0 28 m 0 701 l 1354 701 l 1354 694 l 0 694 l 0 701 m 0 1435 l 1354 1435 l 1354 1421 l 0 1421 l 0 1435 z "},"Ǔ":{"ha":1354,"x_min":0,"x_max":1496,"o":"m 594 -26 q 388 8 471 -26 q 263 107 306 43 q 215 260 219 171 q 246 457 211 349 l 556 1415 q 570 1435 561 1429 q 601 1442 579 1442 q 630 1435 621 1442 q 635 1414 639 1429 l 321 449 q 295 235 281 325 q 385 97 310 144 q 600 49 461 49 q 821 92 725 49 q 985 222 917 135 q 1094 439 1053 308 l 1411 1415 q 1424 1435 1415 1429 q 1456 1442 1433 1442 q 1488 1414 1496 1442 l 1169 433 q 1041 178 1121 281 q 850 24 961 75 q 594 -26 739 -26 m 1301 1779 q 1322 1769 1313 1779 q 1332 1749 1332 1758 q 1329 1735 1332 1740 q 1319 1725 1326 1731 l 1067 1532 q 1044 1518 1053 1522 q 1024 1514 1035 1514 q 1006 1519 1014 1514 q 990 1533 999 1524 l 833 1729 q 827 1740 829 1735 q 825 1751 825 1746 q 838 1772 825 1764 q 860 1779 850 1779 q 874 1775 869 1779 q 885 1765 879 1771 l 1038 1604 l 1271 1764 q 1288 1775 1282 1771 q 1301 1779 1293 1779 m 0 -712 l 1354 -712 l 1354 -726 l 0 -726 l 0 -712 m 0 28 l 1354 28 l 1354 0 l 0 0 l 0 28 m 0 701 l 1354 701 l 1354 694 l 0 694 l 0 701 m 0 1435 l 1354 1435 l 1354 1421 l 0 1421 l 0 1435 z "},"Û":{"ha":1354,"x_min":0,"x_max":1496,"o":"m 594 -26 q 388 8 471 -26 q 263 107 306 43 q 215 260 219 171 q 246 457 211 349 l 556 1415 q 570 1435 561 1429 q 601 1442 579 1442 q 630 1435 621 1442 q 635 1414 639 1429 l 321 449 q 295 235 281 325 q 385 97 310 144 q 600 49 461 49 q 821 92 725 49 q 985 222 917 135 q 1094 439 1053 308 l 1411 1415 q 1424 1435 1415 1429 q 1456 1442 1433 1442 q 1488 1414 1496 1442 l 1169 433 q 1041 178 1121 281 q 850 24 961 75 q 594 -26 739 -26 m 822 1513 q 801 1522 810 1513 q 792 1542 792 1532 q 795 1555 792 1550 q 804 1565 799 1560 l 1057 1758 q 1079 1774 1069 1769 q 1100 1778 1089 1778 q 1117 1773 1110 1778 q 1133 1757 1125 1768 l 1290 1563 q 1297 1551 1294 1557 q 1299 1540 1299 1546 q 1287 1520 1299 1528 q 1265 1513 1275 1513 q 1251 1516 1257 1513 q 1239 1526 1244 1519 l 1086 1686 l 853 1525 q 836 1515 843 1518 q 822 1513 829 1513 m 0 -712 l 1354 -712 l 1354 -726 l 0 -726 l 0 -712 m 0 28 l 1354 28 l 1354 0 l 0 0 l 0 28 m 0 701 l 1354 701 l 1354 694 l 0 694 l 0 701 m 0 1435 l 1354 1435 l 1354 1421 l 0 1421 l 0 1435 z "},"Ü":{"ha":1354,"x_min":0,"x_max":1496,"o":"m 594 -26 q 388 8 471 -26 q 263 107 306 43 q 215 260 219 171 q 246 457 211 349 l 556 1415 q 570 1435 561 1429 q 603 1442 579 1442 q 630 1435 621 1442 q 635 1414 639 1428 l 321 449 q 295 235 281 325 q 385 97 310 144 q 600 49 461 49 q 821 92 725 49 q 985 222 917 135 q 1094 439 1053 308 l 1411 1415 q 1424 1435 1415 1429 q 1456 1442 1433 1442 q 1488 1414 1496 1442 l 1169 433 q 1041 178 1121 281 q 850 24 961 75 q 594 -26 739 -26 m 876 1565 q 835 1577 851 1565 q 819 1614 819 1589 q 841 1674 819 1647 q 900 1701 863 1701 q 940 1689 924 1701 q 956 1651 956 1676 q 935 1592 956 1618 q 876 1565 915 1565 m 1218 1565 q 1177 1577 1193 1565 q 1161 1614 1161 1589 q 1183 1674 1161 1647 q 1242 1701 1204 1701 q 1281 1689 1265 1701 q 1297 1651 1297 1676 q 1277 1592 1297 1618 q 1218 1565 1257 1565 m 0 -712 l 1354 -712 l 1354 -726 l 0 -726 l 0 -712 m 0 28 l 1354 28 l 1354 0 l 0 0 l 0 28 m 0 701 l 1354 701 l 1354 694 l 0 694 l 0 701 m 0 1435 l 1354 1435 l 1354 1421 l 0 1421 l 0 1435 z "},"Ù":{"ha":1354,"x_min":0,"x_max":1496,"o":"m 594 -26 q 388 8 471 -26 q 263 107 306 43 q 215 260 219 171 q 246 457 211 349 l 556 1415 q 570 1435 561 1429 q 601 1442 579 1442 q 630 1435 621 1442 q 635 1414 639 1429 l 321 449 q 295 235 281 325 q 385 97 310 144 q 600 49 461 49 q 821 92 725 49 q 985 222 917 135 q 1094 439 1053 308 l 1411 1415 q 1424 1435 1415 1429 q 1456 1442 1433 1442 q 1488 1414 1496 1442 l 1169 433 q 1041 178 1121 281 q 850 24 961 75 q 594 -26 739 -26 m 1113 1513 q 1104 1516 1108 1513 q 1093 1524 1100 1519 l 879 1714 q 871 1725 872 1721 q 869 1735 869 1729 q 877 1756 869 1744 q 895 1774 885 1767 q 915 1781 906 1781 q 925 1778 921 1781 q 935 1768 929 1775 l 1140 1564 q 1147 1555 1146 1560 q 1147 1547 1147 1550 q 1135 1525 1147 1538 q 1113 1513 1124 1513 m 0 -712 l 1354 -712 l 1354 -726 l 0 -726 l 0 -712 m 0 28 l 1354 28 l 1354 0 l 0 0 l 0 28 m 0 701 l 1354 701 l 1354 694 l 0 694 l 0 701 m 0 1435 l 1354 1435 l 1354 1421 l 0 1421 l 0 1435 z "},"Ű":{"ha":1354,"x_min":0,"x_max":1496,"o":"m 594 -26 q 388 8 471 -26 q 263 107 306 43 q 215 260 219 171 q 246 457 211 349 l 556 1415 q 570 1435 561 1429 q 603 1442 579 1442 q 630 1435 621 1442 q 635 1414 639 1428 l 321 449 q 295 235 281 325 q 385 97 310 144 q 600 49 461 49 q 821 92 725 49 q 985 222 917 135 q 1094 439 1053 308 l 1411 1415 q 1424 1435 1415 1429 q 1456 1442 1433 1442 q 1488 1414 1496 1442 l 1169 433 q 1041 178 1121 281 q 850 24 961 75 q 594 -26 739 -26 m 883 1513 q 862 1525 874 1513 q 850 1547 850 1538 q 851 1554 850 1550 q 857 1564 851 1558 l 1085 1768 q 1094 1777 1090 1774 q 1106 1781 1099 1781 q 1124 1774 1114 1781 q 1142 1756 1135 1767 q 1150 1736 1150 1744 q 1148 1726 1150 1731 q 1139 1715 1146 1721 l 903 1524 q 892 1516 897 1519 q 883 1513 888 1513 m 1131 1513 q 1108 1525 1119 1513 q 1096 1547 1096 1538 q 1097 1554 1096 1550 q 1103 1564 1097 1558 l 1331 1768 q 1341 1777 1336 1774 q 1351 1781 1346 1781 q 1372 1774 1361 1781 q 1389 1756 1382 1767 q 1396 1736 1396 1744 q 1394 1726 1396 1731 q 1385 1715 1393 1721 l 1149 1524 q 1139 1516 1143 1519 q 1131 1513 1135 1513 m 0 -712 l 1354 -712 l 1354 -726 l 0 -726 l 0 -712 m 0 28 l 1354 28 l 1354 0 l 0 0 l 0 28 m 0 701 l 1354 701 l 1354 694 l 0 694 l 0 701 m 0 1435 l 1354 1435 l 1354 1421 l 0 1421 l 0 1435 z "},"Ū":{"ha":1354,"x_min":0,"x_max":1496,"o":"m 594 -26 q 388 8 471 -26 q 263 107 306 43 q 215 260 219 171 q 246 457 211 349 l 556 1415 q 570 1435 561 1429 q 601 1442 579 1442 q 630 1435 621 1442 q 635 1414 639 1429 l 321 449 q 295 235 281 325 q 385 97 310 144 q 600 49 461 49 q 821 92 725 49 q 985 222 917 135 q 1094 439 1053 308 l 1411 1415 q 1424 1435 1415 1429 q 1456 1442 1433 1442 q 1488 1414 1496 1442 l 1169 433 q 1041 178 1121 281 q 850 24 961 75 q 594 -26 739 -26 m 867 1611 q 847 1620 850 1611 q 847 1646 843 1629 q 862 1674 853 1664 q 886 1683 871 1683 l 1267 1683 q 1287 1673 1283 1683 q 1286 1646 1290 1663 q 1272 1619 1281 1628 q 1246 1611 1263 1611 l 867 1611 m 0 -712 l 1354 -712 l 1354 -726 l 0 -726 l 0 -712 m 0 28 l 1354 28 l 1354 0 l 0 0 l 0 28 m 0 701 l 1354 701 l 1354 694 l 0 694 l 0 701 m 0 1435 l 1354 1435 l 1354 1421 l 0 1421 l 0 1435 z "},"Ų":{"ha":1354,"x_min":0,"x_max":1496,"o":"m 594 -26 q 388 8 471 -26 q 263 107 306 43 q 215 260 219 171 q 246 457 211 349 l 556 1415 q 570 1435 561 1429 q 601 1442 579 1442 q 630 1435 621 1442 q 635 1414 639 1429 l 321 449 q 295 235 281 325 q 385 97 310 144 q 600 49 461 49 q 821 92 725 49 q 985 222 917 135 q 1094 439 1053 308 l 1411 1415 q 1424 1435 1415 1429 q 1456 1442 1433 1442 q 1488 1414 1496 1442 l 1169 433 q 1041 178 1121 281 q 850 24 961 75 q 594 -26 739 -26 m 607 -344 q 540 -320 564 -344 q 515 -256 515 -296 q 533 -186 515 -221 q 584 -116 550 -151 q 665 -43 618 -81 q 774 38 713 -6 l 831 32 l 831 26 q 737 -47 781 -11 q 661 -115 693 -82 q 611 -178 629 -149 q 593 -235 593 -208 q 603 -267 593 -254 q 633 -279 614 -279 q 692 -260 663 -279 q 757 -203 722 -240 q 774 -193 764 -194 q 796 -203 785 -192 q 805 -220 804 -211 q 799 -239 806 -229 q 742 -294 774 -271 q 676 -331 711 -318 q 607 -344 642 -344 m 0 -712 l 1354 -712 l 1354 -726 l 0 -726 l 0 -712 m 0 28 l 1354 28 l 1354 0 l 0 0 l 0 28 m 0 701 l 1354 701 l 1354 694 l 0 694 l 0 701 m 0 1435 l 1354 1435 l 1354 1421 l 0 1421 l 0 1435 z "},"Ů":{"ha":1354,"x_min":0,"x_max":1496,"o":"m 594 -26 q 388 8 471 -26 q 263 107 306 43 q 215 260 219 171 q 246 457 211 349 l 556 1415 q 570 1435 561 1429 q 601 1442 579 1442 q 630 1435 621 1442 q 635 1414 639 1429 l 321 449 q 295 235 281 325 q 385 97 310 144 q 600 49 461 49 q 821 92 725 49 q 985 222 917 135 q 1094 439 1053 308 l 1411 1415 q 1424 1435 1415 1429 q 1456 1442 1433 1442 q 1488 1414 1496 1442 l 1169 433 q 1041 178 1121 281 q 850 24 961 75 q 594 -26 739 -26 m 1046 1497 q 969 1514 1004 1497 q 912 1563 933 1531 q 890 1639 890 1594 q 916 1731 890 1690 q 987 1796 942 1772 q 1094 1819 1032 1819 q 1174 1803 1138 1819 q 1231 1757 1210 1788 q 1253 1681 1253 1726 q 1226 1587 1253 1628 q 1154 1522 1200 1546 q 1046 1497 1108 1497 m 1049 1558 q 1147 1593 1111 1558 q 1182 1679 1182 1628 q 1155 1740 1182 1721 q 1092 1760 1128 1760 q 995 1725 1029 1760 q 961 1640 961 1690 q 988 1579 961 1600 q 1049 1558 1015 1558 m 0 -712 l 1354 -712 l 1354 -726 l 0 -726 l 0 -712 m 0 28 l 1354 28 l 1354 0 l 0 0 l 0 28 m 0 701 l 1354 701 l 1354 694 l 0 694 l 0 701 m 0 1435 l 1354 1435 l 1354 1421 l 0 1421 l 0 1435 z "},"Ũ":{"ha":1354,"x_min":0,"x_max":1496,"o":"m 594 -26 q 388 8 471 -26 q 263 107 306 43 q 215 260 219 171 q 246 457 211 349 l 556 1415 q 570 1435 561 1429 q 601 1442 579 1442 q 630 1435 621 1442 q 635 1414 639 1429 l 321 449 q 295 235 281 325 q 385 97 310 144 q 600 49 461 49 q 821 92 725 49 q 985 222 917 135 q 1094 439 1053 308 l 1411 1415 q 1424 1435 1415 1429 q 1456 1442 1433 1442 q 1488 1414 1496 1442 l 1169 433 q 1041 178 1121 281 q 850 24 961 75 q 594 -26 739 -26 m 833 1557 q 806 1588 803 1557 q 851 1708 819 1668 q 940 1747 883 1747 q 1015 1730 981 1747 q 1081 1690 1050 1713 q 1140 1649 1111 1667 q 1196 1632 1168 1632 q 1236 1653 1221 1632 q 1263 1721 1251 1675 q 1300 1750 1267 1750 q 1324 1743 1318 1750 q 1328 1719 1331 1736 q 1283 1601 1314 1640 q 1192 1561 1251 1561 q 1117 1578 1151 1561 q 1053 1619 1083 1596 q 994 1659 1022 1642 q 936 1676 965 1676 q 897 1655 913 1676 q 869 1585 881 1633 q 858 1564 867 1571 q 833 1557 850 1557 m 0 -712 l 1354 -712 l 1354 -726 l 0 -726 l 0 -712 m 0 28 l 1354 28 l 1354 0 l 0 0 l 0 28 m 0 701 l 1354 701 l 1354 694 l 0 694 l 0 701 m 0 1435 l 1354 1435 l 1354 1421 l 0 1421 l 0 1435 z "},"Ǘ":{"ha":1354,"x_min":0,"x_max":1496,"o":"m 594 -26 q 388 8 471 -26 q 263 107 306 43 q 215 260 219 171 q 246 457 211 349 l 556 1415 q 571 1435 561 1429 q 601 1442 581 1442 q 630 1435 621 1442 q 635 1414 639 1429 l 321 449 q 295 235 281 325 q 385 97 310 144 q 600 49 461 49 q 821 92 725 49 q 985 222 917 135 q 1094 439 1053 308 l 1411 1415 q 1424 1435 1415 1429 q 1456 1442 1433 1442 q 1488 1414 1496 1442 l 1169 433 q 1041 178 1121 281 q 850 24 961 75 q 594 -26 739 -26 m 876 1565 q 835 1577 851 1565 q 819 1615 819 1589 q 841 1674 819 1647 q 900 1701 863 1701 q 940 1689 924 1701 q 956 1651 956 1676 q 935 1592 956 1618 q 876 1565 915 1565 m 1218 1565 q 1177 1577 1193 1565 q 1161 1615 1161 1589 q 1183 1674 1161 1647 q 1242 1701 1204 1701 q 1281 1689 1265 1701 q 1297 1651 1297 1676 q 1277 1592 1297 1618 q 1218 1565 1257 1565 m 1025 1754 q 1002 1766 1014 1754 q 990 1788 990 1778 q 992 1796 990 1792 q 997 1806 993 1800 l 1233 2010 q 1244 2019 1239 2015 q 1254 2022 1249 2022 q 1274 2015 1264 2022 q 1292 1997 1285 2008 q 1299 1976 1299 1986 q 1297 1967 1299 1971 q 1288 1956 1296 1963 l 1044 1764 q 1033 1757 1038 1760 q 1025 1754 1029 1754 m 0 -712 l 1354 -712 l 1354 -726 l 0 -726 l 0 -712 m 0 28 l 1354 28 l 1354 0 l 0 0 l 0 28 m 0 701 l 1354 701 l 1354 694 l 0 694 l 0 701 m 0 1435 l 1354 1435 l 1354 1421 l 0 1421 l 0 1435 z "},"Ǚ":{"ha":1354,"x_min":0,"x_max":1496,"o":"m 594 -26 q 388 8 471 -26 q 263 107 306 43 q 215 260 219 171 q 246 457 211 349 l 556 1415 q 570 1435 561 1429 q 601 1442 579 1442 q 630 1435 621 1442 q 635 1414 639 1429 l 321 449 q 295 235 281 325 q 385 97 310 144 q 600 49 461 49 q 821 92 725 49 q 985 222 917 135 q 1094 439 1053 308 l 1411 1415 q 1424 1435 1415 1429 q 1456 1442 1433 1442 q 1488 1414 1496 1442 l 1169 433 q 1041 178 1121 281 q 850 24 961 75 q 594 -26 739 -26 m 876 1565 q 835 1577 851 1565 q 819 1614 819 1589 q 840 1674 819 1647 q 900 1701 861 1701 q 940 1689 924 1701 q 956 1651 956 1676 q 935 1592 956 1618 q 876 1565 915 1565 m 1218 1565 q 1177 1577 1193 1565 q 1161 1614 1161 1589 q 1182 1674 1161 1647 q 1242 1701 1203 1701 q 1281 1689 1265 1701 q 1297 1651 1297 1676 q 1277 1592 1297 1618 q 1218 1565 1257 1565 m 1364 2021 q 1386 2010 1376 2021 q 1396 1990 1396 2000 q 1393 1977 1396 1982 q 1383 1967 1390 1972 l 1131 1772 q 1108 1759 1117 1764 q 1088 1754 1099 1754 q 1070 1760 1078 1754 q 1054 1775 1063 1765 l 897 1969 q 891 1982 893 1976 q 889 1992 889 1988 q 901 2013 889 2006 q 924 2021 914 2021 q 938 2017 933 2021 q 949 2006 943 2013 l 1100 1846 l 1335 2006 q 1351 2017 1346 2013 q 1364 2021 1357 2021 m 0 -712 l 1354 -712 l 1354 -726 l 0 -726 l 0 -712 m 0 28 l 1354 28 l 1354 0 l 0 0 l 0 28 m 0 701 l 1354 701 l 1354 694 l 0 694 l 0 701 m 0 1435 l 1354 1435 l 1354 1421 l 0 1421 l 0 1435 z "},"Ǜ":{"ha":1354,"x_min":0,"x_max":1496,"o":"m 594 -26 q 388 8 471 -26 q 263 107 306 43 q 215 260 219 171 q 246 457 211 349 l 556 1415 q 570 1435 561 1429 q 603 1442 579 1442 q 630 1435 621 1442 q 635 1414 639 1428 l 321 449 q 295 235 281 325 q 385 97 310 144 q 600 49 461 49 q 821 92 725 49 q 985 222 917 135 q 1094 439 1053 308 l 1411 1415 q 1424 1435 1415 1429 q 1456 1442 1433 1442 q 1488 1414 1496 1442 l 1169 433 q 1041 178 1121 281 q 850 24 961 75 q 594 -26 739 -26 m 876 1565 q 835 1577 851 1565 q 819 1614 819 1589 q 841 1674 819 1647 q 900 1701 863 1701 q 940 1689 924 1701 q 956 1651 956 1676 q 935 1592 956 1618 q 876 1565 915 1565 m 1218 1565 q 1177 1577 1193 1565 q 1161 1614 1161 1589 q 1183 1674 1161 1647 q 1242 1701 1204 1701 q 1281 1689 1265 1701 q 1297 1651 1297 1676 q 1277 1592 1297 1618 q 1218 1565 1257 1565 m 1176 1754 q 1167 1757 1171 1754 q 1157 1764 1164 1760 l 943 1956 q 934 1967 936 1963 q 932 1976 932 1971 q 940 1997 932 1986 q 959 2015 949 2007 q 979 2022 969 2022 q 989 2019 985 2022 q 999 2010 993 2015 l 1204 1806 q 1210 1796 1210 1800 q 1211 1788 1211 1792 q 1199 1767 1211 1779 q 1176 1754 1186 1754 m 0 -712 l 1354 -712 l 1354 -726 l 0 -726 l 0 -712 m 0 28 l 1354 28 l 1354 0 l 0 0 l 0 28 m 0 701 l 1354 701 l 1354 694 l 0 694 l 0 701 m 0 1435 l 1354 1435 l 1354 1421 l 0 1421 l 0 1435 z "},"Ǖ":{"ha":1354,"x_min":0,"x_max":1496,"o":"m 594 -26 q 388 8 471 -26 q 263 107 306 43 q 215 260 219 171 q 246 457 211 349 l 556 1415 q 570 1435 561 1429 q 601 1442 579 1442 q 630 1435 621 1442 q 635 1414 639 1429 l 321 449 q 295 235 281 325 q 385 97 310 144 q 600 49 461 49 q 821 92 725 49 q 985 222 917 135 q 1094 439 1053 308 l 1411 1415 q 1424 1435 1415 1429 q 1456 1442 1433 1442 q 1488 1414 1496 1442 l 1169 433 q 1041 178 1121 281 q 850 24 961 75 q 594 -26 739 -26 m 876 1565 q 835 1577 851 1565 q 819 1614 819 1589 q 840 1674 819 1647 q 900 1701 861 1701 q 940 1689 924 1701 q 956 1651 956 1676 q 935 1592 956 1618 q 876 1565 915 1565 m 1218 1565 q 1177 1577 1193 1565 q 1161 1614 1161 1589 q 1182 1674 1161 1647 q 1242 1701 1203 1701 q 1281 1689 1265 1701 q 1297 1651 1297 1676 q 1277 1592 1297 1618 q 1218 1565 1257 1565 m 931 1853 q 910 1862 914 1853 q 911 1886 906 1871 q 925 1915 917 1906 q 950 1924 933 1924 l 1331 1924 q 1351 1914 1347 1924 q 1349 1886 1354 1904 q 1335 1861 1344 1869 q 1310 1853 1326 1853 l 931 1853 m 0 -712 l 1354 -712 l 1354 -726 l 0 -726 l 0 -712 m 0 28 l 1354 28 l 1354 0 l 0 0 l 0 28 m 0 701 l 1354 701 l 1354 694 l 0 694 l 0 701 m 0 1435 l 1354 1435 l 1354 1421 l 0 1421 l 0 1435 z "},"Ụ":{"ha":1354,"x_min":0,"x_max":1496,"o":"m 594 -26 q 388 8 471 -26 q 263 107 306 43 q 215 260 219 171 q 246 457 211 349 l 556 1415 q 570 1435 561 1429 q 601 1442 579 1442 q 630 1435 621 1442 q 635 1414 639 1429 l 321 449 q 295 235 281 325 q 385 97 310 144 q 600 49 461 49 q 821 92 725 49 q 985 222 917 135 q 1094 439 1053 308 l 1411 1415 q 1424 1435 1415 1429 q 1456 1442 1433 1442 q 1488 1414 1496 1442 l 1169 433 q 1041 178 1121 281 q 850 24 961 75 q 594 -26 739 -26 m 474 -304 q 434 -292 450 -304 q 418 -254 418 -279 q 439 -194 418 -221 q 499 -167 460 -167 q 538 -179 522 -167 q 554 -217 554 -192 q 534 -277 554 -250 q 474 -304 514 -304 m 0 -712 l 1354 -712 l 1354 -726 l 0 -726 l 0 -712 m 0 28 l 1354 28 l 1354 0 l 0 0 l 0 28 m 0 701 l 1354 701 l 1354 694 l 0 694 l 0 701 m 0 1435 l 1354 1435 l 1354 1421 l 0 1421 l 0 1435 z "},"Ủ":{"ha":1354,"x_min":0,"x_max":1496,"o":"m 594 -26 q 388 8 471 -26 q 263 107 306 43 q 215 260 219 171 q 246 457 211 349 l 556 1415 q 570 1435 561 1429 q 601 1442 579 1442 q 630 1435 621 1442 q 635 1414 639 1429 l 321 449 q 295 235 281 325 q 385 97 310 144 q 600 49 461 49 q 821 92 725 49 q 985 222 917 135 q 1094 439 1053 308 l 1411 1415 q 1424 1435 1415 1429 q 1456 1442 1433 1442 q 1488 1414 1496 1442 l 1169 433 q 1041 178 1121 281 q 850 24 961 75 q 594 -26 739 -26 m 1085 1819 q 1174 1792 1142 1819 q 1206 1724 1206 1765 q 1184 1660 1206 1689 q 1119 1607 1163 1632 q 1084 1577 1094 1593 q 1074 1544 1074 1561 l 1072 1522 q 1063 1503 1072 1508 q 1040 1497 1053 1497 q 1017 1503 1026 1497 q 1007 1519 1007 1508 l 1006 1549 q 1022 1610 1004 1585 q 1068 1653 1039 1635 q 1111 1683 1097 1668 q 1125 1715 1125 1699 q 1110 1743 1125 1733 q 1069 1753 1096 1753 q 1024 1747 1046 1753 q 978 1728 1001 1740 q 938 1742 951 1713 q 953 1783 926 1767 q 1013 1810 979 1800 q 1085 1819 1047 1819 m 0 -712 l 1354 -712 l 1354 -726 l 0 -726 l 0 -712 m 0 28 l 1354 28 l 1354 0 l 0 0 l 0 28 m 0 701 l 1354 701 l 1354 694 l 0 694 l 0 701 m 0 1435 l 1354 1435 l 1354 1421 l 0 1421 l 0 1435 z "},"Ư":{"ha":1354,"x_min":0,"x_max":1724,"o":"m 594 -26 q 388 8 471 -26 q 263 107 306 43 q 215 260 219 171 q 246 457 211 349 l 556 1415 q 570 1435 561 1429 q 601 1442 579 1442 q 630 1435 621 1442 q 635 1414 639 1429 l 321 449 q 295 235 281 325 q 385 97 310 144 q 600 49 461 49 q 821 92 725 49 q 985 222 917 135 q 1094 439 1053 308 l 1411 1415 q 1424 1435 1415 1429 q 1456 1442 1433 1442 q 1488 1414 1496 1442 l 1169 433 q 1041 178 1121 281 q 850 24 961 75 q 594 -26 739 -26 m 1713 1675 q 1715 1553 1724 1607 q 1674 1461 1706 1499 q 1585 1404 1642 1424 q 1446 1386 1529 1385 l 1463 1438 q 1582 1467 1540 1442 q 1637 1541 1624 1492 q 1640 1665 1650 1590 q 1649 1688 1639 1679 q 1673 1697 1658 1696 q 1699 1694 1688 1699 q 1713 1675 1711 1689 m 0 -712 l 1354 -712 l 1354 -726 l 0 -726 l 0 -712 m 0 28 l 1354 28 l 1354 0 l 0 0 l 0 28 m 0 701 l 1354 701 l 1354 694 l 0 694 l 0 701 m 0 1435 l 1354 1435 l 1354 1421 l 0 1421 l 0 1435 z "},"Ứ":{"ha":1354,"x_min":0,"x_max":1724,"o":"m 594 -26 q 388 8 471 -26 q 263 107 306 43 q 215 260 219 171 q 246 457 211 349 l 556 1415 q 570 1435 561 1429 q 601 1442 579 1442 q 630 1435 621 1442 q 635 1414 639 1429 l 321 449 q 295 235 281 325 q 385 97 310 144 q 600 49 461 49 q 821 92 725 49 q 985 222 917 135 q 1094 439 1053 308 l 1411 1415 q 1424 1435 1415 1429 q 1456 1442 1433 1442 q 1488 1414 1496 1442 l 1169 433 q 1041 178 1121 281 q 850 24 961 75 q 594 -26 739 -26 m 1713 1675 q 1715 1553 1724 1607 q 1674 1461 1706 1499 q 1585 1404 1642 1424 q 1446 1386 1529 1385 l 1463 1438 q 1582 1467 1540 1442 q 1637 1541 1624 1492 q 1640 1665 1650 1590 q 1649 1688 1639 1679 q 1673 1697 1658 1696 q 1699 1694 1688 1699 q 1713 1675 1711 1689 m 961 1513 q 938 1525 950 1513 q 926 1546 926 1538 q 928 1554 926 1550 q 935 1564 929 1558 l 1169 1768 q 1181 1777 1176 1774 q 1192 1781 1185 1781 q 1210 1774 1200 1781 q 1228 1756 1221 1767 q 1235 1736 1235 1744 q 1233 1726 1235 1731 q 1225 1715 1232 1721 l 981 1524 q 969 1516 974 1519 q 961 1513 965 1513 m 0 -712 l 1354 -712 l 1354 -726 l 0 -726 l 0 -712 m 0 28 l 1354 28 l 1354 0 l 0 0 l 0 28 m 0 701 l 1354 701 l 1354 694 l 0 694 l 0 701 m 0 1435 l 1354 1435 l 1354 1421 l 0 1421 l 0 1435 z "},"Ự":{"ha":1354,"x_min":0,"x_max":1724,"o":"m 594 -26 q 388 8 471 -26 q 263 107 306 43 q 215 260 219 171 q 246 457 211 349 l 556 1415 q 570 1435 561 1429 q 601 1442 579 1442 q 630 1435 621 1442 q 635 1414 639 1429 l 321 449 q 295 235 281 325 q 385 97 310 144 q 600 49 461 49 q 821 92 725 49 q 985 222 917 135 q 1094 439 1053 308 l 1411 1415 q 1424 1435 1415 1429 q 1456 1442 1433 1442 q 1488 1414 1496 1442 l 1169 433 q 1041 178 1121 281 q 850 24 961 75 q 594 -26 739 -26 m 1713 1675 q 1715 1553 1724 1607 q 1674 1461 1706 1499 q 1585 1404 1642 1424 q 1446 1386 1529 1385 l 1463 1438 q 1582 1467 1540 1442 q 1637 1541 1624 1492 q 1640 1665 1650 1590 q 1649 1688 1639 1679 q 1673 1697 1658 1696 q 1699 1694 1688 1699 q 1713 1675 1711 1689 m 474 -304 q 434 -292 450 -304 q 418 -254 418 -279 q 439 -194 418 -221 q 499 -167 460 -167 q 538 -179 522 -167 q 554 -217 554 -192 q 534 -277 554 -250 q 474 -304 514 -304 m 0 -712 l 1354 -712 l 1354 -726 l 0 -726 l 0 -712 m 0 28 l 1354 28 l 1354 0 l 0 0 l 0 28 m 0 701 l 1354 701 l 1354 694 l 0 694 l 0 701 m 0 1435 l 1354 1435 l 1354 1421 l 0 1421 l 0 1435 z "},"Ừ":{"ha":1354,"x_min":0,"x_max":1724,"o":"m 594 -26 q 388 8 471 -26 q 263 107 306 43 q 215 260 219 171 q 246 457 211 349 l 556 1415 q 570 1435 561 1429 q 601 1442 579 1442 q 630 1435 621 1442 q 635 1414 639 1429 l 321 449 q 295 235 281 325 q 385 97 310 144 q 600 49 461 49 q 821 92 725 49 q 985 222 917 135 q 1094 439 1053 308 l 1411 1415 q 1424 1435 1415 1429 q 1456 1442 1433 1442 q 1488 1414 1496 1442 l 1169 433 q 1041 178 1121 281 q 850 24 961 75 q 594 -26 739 -26 m 1713 1675 q 1715 1553 1724 1607 q 1674 1461 1706 1499 q 1585 1404 1642 1424 q 1446 1386 1529 1385 l 1463 1438 q 1582 1467 1540 1442 q 1637 1541 1624 1492 q 1640 1665 1650 1590 q 1649 1688 1639 1679 q 1673 1697 1658 1696 q 1699 1694 1688 1699 q 1713 1675 1711 1689 m 1113 1513 q 1104 1516 1108 1513 q 1093 1524 1100 1519 l 879 1714 q 871 1725 872 1721 q 869 1735 869 1729 q 877 1756 869 1744 q 895 1774 885 1767 q 915 1781 906 1781 q 925 1778 921 1781 q 935 1768 929 1775 l 1140 1564 q 1147 1555 1146 1560 q 1147 1547 1147 1550 q 1135 1525 1147 1538 q 1113 1513 1124 1513 m 0 -712 l 1354 -712 l 1354 -726 l 0 -726 l 0 -712 m 0 28 l 1354 28 l 1354 0 l 0 0 l 0 28 m 0 701 l 1354 701 l 1354 694 l 0 694 l 0 701 m 0 1435 l 1354 1435 l 1354 1421 l 0 1421 l 0 1435 z "},"Ử":{"ha":1354,"x_min":0,"x_max":1724,"o":"m 594 -26 q 388 8 471 -26 q 263 107 306 43 q 215 260 219 171 q 246 457 211 349 l 556 1415 q 570 1435 561 1429 q 601 1442 579 1442 q 630 1435 621 1442 q 635 1414 639 1429 l 321 449 q 295 235 281 325 q 385 97 310 144 q 600 49 461 49 q 821 92 725 49 q 985 222 917 135 q 1094 439 1053 308 l 1411 1415 q 1424 1435 1415 1429 q 1456 1442 1433 1442 q 1488 1414 1496 1442 l 1169 433 q 1041 178 1121 281 q 850 24 961 75 q 594 -26 739 -26 m 1713 1675 q 1715 1553 1724 1607 q 1674 1461 1706 1499 q 1585 1404 1642 1424 q 1446 1386 1529 1385 l 1463 1438 q 1582 1467 1540 1442 q 1637 1541 1624 1492 q 1640 1665 1650 1590 q 1649 1688 1639 1679 q 1673 1697 1658 1696 q 1699 1694 1688 1699 q 1713 1675 1711 1689 m 1085 1819 q 1174 1792 1142 1819 q 1206 1724 1206 1765 q 1184 1660 1206 1689 q 1119 1607 1163 1632 q 1084 1577 1094 1593 q 1074 1544 1074 1561 l 1072 1522 q 1063 1503 1072 1508 q 1040 1497 1053 1497 q 1017 1503 1026 1497 q 1007 1519 1007 1508 l 1006 1549 q 1022 1610 1004 1585 q 1068 1653 1039 1635 q 1111 1683 1097 1668 q 1125 1715 1125 1699 q 1110 1743 1125 1733 q 1069 1753 1096 1753 q 1024 1747 1046 1753 q 978 1728 1001 1740 q 938 1742 951 1713 q 953 1783 926 1767 q 1013 1810 979 1800 q 1085 1819 1047 1819 m 0 -712 l 1354 -712 l 1354 -726 l 0 -726 l 0 -712 m 0 28 l 1354 28 l 1354 0 l 0 0 l 0 28 m 0 701 l 1354 701 l 1354 694 l 0 694 l 0 701 m 0 1435 l 1354 1435 l 1354 1421 l 0 1421 l 0 1435 z "},"Ữ":{"ha":1354,"x_min":0,"x_max":1724,"o":"m 594 -26 q 388 8 471 -26 q 263 107 306 43 q 215 260 219 171 q 246 457 211 349 l 556 1415 q 570 1435 561 1429 q 601 1442 579 1442 q 630 1435 621 1442 q 635 1414 639 1429 l 321 449 q 295 235 281 325 q 385 97 310 144 q 600 49 461 49 q 821 92 725 49 q 985 222 917 135 q 1094 439 1053 308 l 1411 1415 q 1424 1435 1415 1429 q 1456 1442 1433 1442 q 1488 1414 1496 1442 l 1169 433 q 1041 178 1121 281 q 850 24 961 75 q 594 -26 739 -26 m 1713 1675 q 1715 1553 1724 1607 q 1674 1461 1706 1499 q 1585 1404 1642 1424 q 1446 1386 1529 1385 l 1463 1438 q 1582 1467 1540 1442 q 1637 1541 1624 1492 q 1640 1665 1650 1590 q 1649 1688 1639 1679 q 1673 1697 1658 1696 q 1699 1694 1688 1699 q 1713 1675 1711 1689 m 833 1557 q 806 1588 803 1557 q 851 1708 819 1668 q 940 1747 883 1747 q 1015 1730 981 1747 q 1081 1690 1050 1713 q 1140 1649 1111 1667 q 1196 1632 1168 1632 q 1236 1653 1221 1632 q 1263 1721 1251 1675 q 1300 1750 1267 1750 q 1324 1743 1318 1750 q 1328 1719 1331 1736 q 1283 1601 1314 1640 q 1192 1561 1251 1561 q 1117 1578 1151 1561 q 1053 1619 1083 1596 q 994 1659 1022 1642 q 936 1676 965 1676 q 897 1655 913 1676 q 869 1585 881 1633 q 858 1564 867 1571 q 833 1557 850 1557 m 0 -712 l 1354 -712 l 1354 -726 l 0 -726 l 0 -712 m 0 28 l 1354 28 l 1354 0 l 0 0 l 0 28 m 0 701 l 1354 701 l 1354 694 l 0 694 l 0 701 m 0 1435 l 1354 1435 l 1354 1421 l 0 1421 l 0 1435 z "},"Ẃ":{"ha":1869,"x_min":0,"x_max":2176,"o":"m 444 -19 q 419 -12 428 -19 q 408 18 410 -4 l 392 1403 q 401 1433 392 1424 q 432 1442 411 1442 q 458 1435 451 1442 q 465 1410 465 1428 l 478 111 l 1226 1410 q 1248 1435 1238 1429 q 1279 1442 1258 1442 q 1311 1435 1303 1442 q 1319 1410 1319 1428 l 1311 108 l 2086 1408 q 2108 1435 2097 1428 q 2138 1442 2119 1442 q 2168 1429 2160 1442 q 2163 1394 2176 1417 l 1333 11 q 1311 -12 1322 -6 q 1281 -19 1300 -19 q 1253 -11 1263 -19 q 1244 18 1244 -3 l 1249 1307 l 497 11 q 476 -12 488 -6 q 444 -19 465 -19 m 1232 1513 q 1209 1525 1221 1513 q 1197 1546 1197 1538 q 1199 1554 1197 1550 q 1206 1564 1200 1558 l 1440 1768 q 1451 1777 1446 1774 q 1463 1781 1456 1781 q 1481 1774 1471 1781 q 1499 1756 1492 1767 q 1506 1736 1506 1744 q 1504 1726 1506 1731 q 1494 1715 1503 1721 l 1251 1524 q 1240 1516 1244 1519 q 1232 1513 1236 1513 m 0 -712 l 1869 -712 l 1869 -726 l 0 -726 l 0 -712 m 0 28 l 1869 28 l 1869 0 l 0 0 l 0 28 m 0 701 l 1869 701 l 1869 694 l 0 694 l 0 701 m 0 1435 l 1869 1435 l 1869 1421 l 0 1421 l 0 1435 z "},"Ŵ":{"ha":1869,"x_min":0,"x_max":2176,"o":"m 444 -19 q 419 -12 428 -19 q 408 18 410 -4 l 392 1403 q 401 1433 392 1424 q 432 1442 411 1442 q 458 1435 451 1442 q 465 1410 465 1428 l 478 111 l 1226 1410 q 1248 1435 1238 1429 q 1279 1442 1258 1442 q 1311 1435 1303 1442 q 1319 1410 1319 1428 l 1311 108 l 2086 1408 q 2108 1435 2097 1428 q 2138 1442 2119 1442 q 2168 1429 2160 1442 q 2163 1394 2176 1417 l 1333 11 q 1312 -12 1322 -6 q 1281 -19 1301 -19 q 1253 -11 1263 -19 q 1244 18 1244 -3 l 1249 1307 l 497 11 q 476 -12 488 -6 q 444 -19 465 -19 m 1092 1513 q 1072 1522 1081 1513 q 1063 1542 1063 1532 q 1066 1555 1063 1550 q 1075 1565 1069 1560 l 1328 1758 q 1350 1774 1340 1769 q 1371 1778 1360 1778 q 1388 1773 1381 1778 q 1404 1757 1396 1768 l 1561 1563 q 1567 1551 1565 1557 q 1569 1540 1569 1546 q 1558 1520 1569 1528 q 1536 1513 1546 1513 q 1521 1516 1528 1513 q 1508 1526 1514 1519 l 1357 1686 l 1122 1525 q 1106 1515 1113 1518 q 1092 1513 1100 1513 m 0 -712 l 1869 -712 l 1869 -726 l 0 -726 l 0 -712 m 0 28 l 1869 28 l 1869 0 l 0 0 l 0 28 m 0 701 l 1869 701 l 1869 694 l 0 694 l 0 701 m 0 1435 l 1869 1435 l 1869 1421 l 0 1421 l 0 1435 z "},"Ẅ":{"ha":1869,"x_min":0,"x_max":2176,"o":"m 444 -19 q 419 -12 428 -19 q 408 18 410 -4 l 392 1403 q 401 1433 392 1424 q 432 1442 411 1442 q 458 1435 451 1442 q 465 1410 465 1428 l 478 111 l 1226 1410 q 1248 1435 1238 1429 q 1279 1442 1258 1442 q 1311 1435 1303 1442 q 1319 1410 1319 1428 l 1311 108 l 2086 1408 q 2108 1435 2097 1428 q 2138 1442 2119 1442 q 2168 1429 2160 1442 q 2163 1394 2176 1417 l 1333 11 q 1311 -12 1322 -6 q 1279 -19 1300 -19 q 1253 -11 1263 -19 q 1244 18 1244 -3 l 1249 1307 l 497 11 q 476 -12 488 -6 q 444 -19 465 -19 m 1146 1565 q 1106 1577 1122 1565 q 1090 1614 1090 1589 q 1111 1674 1090 1647 q 1171 1701 1132 1701 q 1210 1689 1194 1701 q 1226 1651 1226 1676 q 1206 1592 1226 1618 q 1146 1565 1186 1565 m 1489 1565 q 1448 1577 1464 1565 q 1432 1614 1432 1589 q 1453 1674 1432 1647 q 1513 1701 1474 1701 q 1552 1689 1536 1701 q 1568 1651 1568 1676 q 1548 1592 1568 1618 q 1489 1565 1528 1565 m 0 -712 l 1869 -712 l 1869 -726 l 0 -726 l 0 -712 m 0 28 l 1869 28 l 1869 0 l 0 0 l 0 28 m 0 701 l 1869 701 l 1869 694 l 0 694 l 0 701 m 0 1435 l 1869 1435 l 1869 1421 l 0 1421 l 0 1435 z "},"Ẁ":{"ha":1869,"x_min":0,"x_max":2176,"o":"m 444 -19 q 419 -12 428 -19 q 408 18 410 -4 l 392 1403 q 401 1433 392 1424 q 432 1442 411 1442 q 458 1435 451 1442 q 465 1410 465 1428 l 478 111 l 1226 1410 q 1248 1435 1238 1429 q 1279 1442 1258 1442 q 1311 1435 1303 1442 q 1319 1410 1319 1428 l 1311 108 l 2086 1408 q 2108 1435 2097 1428 q 2138 1442 2119 1442 q 2168 1429 2160 1442 q 2163 1394 2176 1417 l 1333 11 q 1311 -12 1322 -6 q 1281 -19 1300 -19 q 1253 -11 1263 -19 q 1244 18 1244 -3 l 1249 1307 l 497 11 q 476 -12 488 -6 q 444 -19 465 -19 m 1383 1513 q 1374 1516 1378 1513 q 1364 1524 1371 1519 l 1150 1714 q 1141 1725 1143 1721 q 1139 1735 1139 1729 q 1147 1756 1139 1744 q 1165 1774 1154 1767 q 1186 1781 1176 1781 q 1196 1778 1192 1781 q 1206 1768 1200 1775 l 1411 1564 q 1417 1555 1417 1560 q 1418 1547 1418 1550 q 1406 1525 1418 1538 q 1383 1513 1394 1513 m 0 -712 l 1869 -712 l 1869 -726 l 0 -726 l 0 -712 m 0 28 l 1869 28 l 1869 0 l 0 0 l 0 28 m 0 701 l 1869 701 l 1869 694 l 0 694 l 0 701 m 0 1435 l 1869 1435 l 1869 1421 l 0 1421 l 0 1435 z "},"Ý":{"ha":979,"x_min":0,"x_max":1315,"o":"m 378 -19 q 349 7 340 -19 l 549 622 l 363 1399 q 367 1431 357 1421 q 396 1442 376 1442 q 424 1434 417 1442 q 433 1411 431 1426 l 604 697 l 1229 1415 q 1258 1440 1246 1435 q 1289 1438 1269 1446 q 1310 1422 1306 1433 q 1301 1393 1315 1410 l 625 619 l 426 7 q 378 -19 417 -19 m 764 1513 q 741 1525 753 1513 q 729 1546 729 1538 q 730 1554 729 1550 q 738 1564 731 1558 l 972 1768 q 982 1777 978 1774 q 993 1781 986 1781 q 1013 1774 1003 1781 q 1031 1756 1024 1767 q 1038 1736 1038 1744 q 1036 1726 1038 1731 q 1026 1715 1035 1721 l 782 1524 q 772 1516 776 1519 q 764 1513 768 1513 m 0 -712 l 979 -712 l 979 -726 l 0 -726 l 0 -712 m 0 28 l 979 28 l 979 0 l 0 0 l 0 28 m 0 701 l 979 701 l 979 694 l 0 694 l 0 701 m 0 1435 l 979 1435 l 979 1421 l 0 1421 l 0 1435 z "},"Ŷ":{"ha":979,"x_min":0,"x_max":1315,"o":"m 378 -19 q 349 7 340 -19 l 549 622 l 363 1399 q 367 1431 357 1421 q 394 1442 376 1442 q 424 1434 417 1442 q 433 1411 431 1426 l 604 697 l 1229 1415 q 1258 1440 1246 1435 q 1289 1438 1269 1446 q 1310 1422 1306 1433 q 1301 1393 1315 1410 l 625 619 l 426 7 q 378 -19 417 -19 m 624 1513 q 603 1522 611 1513 q 594 1542 594 1532 q 598 1555 594 1550 q 607 1565 601 1560 l 860 1758 q 881 1774 872 1769 q 901 1778 890 1778 q 919 1773 911 1778 q 935 1757 928 1768 l 1093 1563 q 1099 1551 1097 1557 q 1100 1540 1100 1546 q 1089 1520 1100 1528 q 1067 1513 1078 1513 q 1053 1516 1060 1513 q 1040 1526 1046 1519 l 889 1686 l 654 1525 q 638 1515 644 1518 q 624 1513 632 1513 m 0 -712 l 979 -712 l 979 -726 l 0 -726 l 0 -712 m 0 28 l 979 28 l 979 0 l 0 0 l 0 28 m 0 701 l 979 701 l 979 694 l 0 694 l 0 701 m 0 1435 l 979 1435 l 979 1421 l 0 1421 l 0 1435 z "},"Ÿ":{"ha":979,"x_min":0,"x_max":1315,"o":"m 378 -19 q 349 7 340 -19 l 549 622 l 363 1399 q 367 1431 357 1421 q 396 1442 376 1442 q 424 1434 417 1442 q 433 1411 431 1426 l 604 697 l 1229 1415 q 1258 1440 1246 1435 q 1289 1438 1269 1446 q 1310 1422 1306 1433 q 1301 1393 1315 1410 l 625 619 l 426 7 q 378 -19 417 -19 m 678 1565 q 638 1577 653 1565 q 622 1614 622 1589 q 643 1674 622 1647 q 701 1701 664 1701 q 742 1689 726 1701 q 758 1651 758 1676 q 738 1592 758 1618 q 678 1565 718 1565 m 1019 1565 q 980 1577 996 1565 q 964 1614 964 1589 q 985 1674 964 1647 q 1043 1701 1006 1701 q 1084 1689 1068 1701 q 1100 1651 1100 1676 q 1080 1592 1100 1618 q 1019 1565 1060 1565 m 0 -712 l 979 -712 l 979 -726 l 0 -726 l 0 -712 m 0 28 l 979 28 l 979 0 l 0 0 l 0 28 m 0 701 l 979 701 l 979 694 l 0 694 l 0 701 m 0 1435 l 979 1435 l 979 1421 l 0 1421 l 0 1435 z "},"Ỳ":{"ha":979,"x_min":0,"x_max":1315,"o":"m 378 -19 q 349 7 340 -19 l 549 622 l 363 1399 q 367 1431 357 1421 q 394 1442 376 1442 q 424 1434 417 1442 q 433 1411 431 1426 l 604 697 l 1229 1415 q 1258 1440 1246 1435 q 1289 1438 1269 1446 q 1310 1422 1306 1433 q 1301 1393 1315 1410 l 625 619 l 426 7 q 378 -19 417 -19 m 915 1513 q 906 1516 910 1513 q 896 1524 901 1519 l 682 1714 q 673 1725 675 1721 q 671 1735 671 1729 q 678 1756 671 1744 q 697 1774 686 1767 q 717 1781 708 1781 q 728 1778 724 1781 q 738 1768 732 1775 l 942 1564 q 949 1555 947 1560 q 950 1547 950 1550 q 938 1525 950 1538 q 915 1513 925 1513 m 0 -712 l 979 -712 l 979 -726 l 0 -726 l 0 -712 m 0 28 l 979 28 l 979 0 l 0 0 l 0 28 m 0 701 l 979 701 l 979 694 l 0 694 l 0 701 m 0 1435 l 979 1435 l 979 1421 l 0 1421 l 0 1435 z "},"Ỵ":{"ha":979,"x_min":0,"x_max":1315,"o":"m 378 -19 q 349 7 340 -19 l 549 622 l 363 1399 q 367 1431 357 1421 q 396 1442 376 1442 q 424 1434 417 1442 q 433 1411 431 1426 l 604 697 l 1229 1415 q 1258 1440 1246 1435 q 1289 1438 1269 1446 q 1310 1422 1306 1433 q 1301 1393 1315 1410 l 625 619 l 426 7 q 378 -19 417 -19 m 303 -304 q 263 -292 279 -304 q 247 -254 247 -279 q 268 -194 247 -221 q 328 -167 289 -167 q 367 -179 351 -167 q 383 -217 383 -192 q 363 -277 383 -250 q 303 -304 343 -304 m 0 -712 l 979 -712 l 979 -726 l 0 -726 l 0 -712 m 0 28 l 979 28 l 979 0 l 0 0 l 0 28 m 0 701 l 979 701 l 979 694 l 0 694 l 0 701 m 0 1435 l 979 1435 l 979 1421 l 0 1421 l 0 1435 z "},"Ỷ":{"ha":979,"x_min":0,"x_max":1315,"o":"m 378 -19 q 349 7 340 -19 l 549 622 l 363 1399 q 367 1431 357 1421 q 394 1442 376 1442 q 424 1434 417 1442 q 433 1411 431 1426 l 604 697 l 1229 1415 q 1258 1440 1246 1435 q 1289 1438 1269 1446 q 1310 1422 1306 1433 q 1301 1393 1315 1410 l 625 619 l 426 7 q 378 -19 417 -19 m 888 1819 q 976 1792 944 1819 q 1008 1724 1008 1765 q 987 1660 1008 1689 q 922 1607 965 1632 q 886 1577 897 1593 q 875 1544 875 1561 l 874 1522 q 864 1503 874 1508 q 842 1497 854 1497 q 819 1503 829 1497 q 808 1519 810 1508 l 808 1549 q 824 1610 807 1585 q 871 1653 840 1635 q 913 1683 900 1668 q 926 1715 926 1699 q 913 1743 926 1733 q 872 1753 899 1753 q 825 1747 847 1753 q 779 1728 803 1740 q 740 1742 754 1713 q 756 1783 729 1767 q 816 1810 782 1800 q 888 1819 850 1819 m 0 -712 l 979 -712 l 979 -726 l 0 -726 l 0 -712 m 0 28 l 979 28 l 979 0 l 0 0 l 0 28 m 0 701 l 979 701 l 979 694 l 0 694 l 0 701 m 0 1435 l 979 1435 l 979 1421 l 0 1421 l 0 1435 z "}}}
